0
SECTION
2
HEADER
9
$ACADVER
1
AC1006
0
ENDSEC
0
SECTION
2
TABLES
0
TABLE
2
LAYER
70
11
0
LAYER
70
0
62
1
6
CONTINUOUS
2
L0D0_0
0
LAYER
70
0
62
2
6
CONTINUOUS
2
L0D0_0
0
LAYER
70
0
62
3
6
CONTINUOUS
2
MID
0
LAYER
70
0
62
4
6
CONTINUOUS
2
BOT
0
LAYER
70
0
62
5
6
CONTINUOUS
2
BOUNDARIES
0
LAYER
70
0
62
6
6
CONTINUOUS
2
DICING
0
LAYER
70
0
62
7
6
CONTINUOUS
2
TOP
0
LAYER
70
0
62
8
6
CONTINUOUS
2
RES
0
LAYER
70
0
62
9
6
CONTINUOUS
2
Defpoints
0
LAYER
70
0
62
10
6
CONTINUOUS
2
*ADSK_ASSOC_ENTITY_BACKUPS
0
LAYER
70
0
62
11
6
CONTINUOUS
2
L1D0
0
ENDTAB
0
ENDSEC
0
SECTION
2
BLOCKS
0
ENDSEC
0
SECTION
2
ENTITIES
0
POLYLINE
8
MID
70
1
40
0
41
0
66
1
0
VERTEX
8
MID
10
-912.622
20
-1858.734
0
VERTEX
8
MID
10
-953.857
20
-1857.691
0
VERTEX
8
MID
10
-994.948
20
-1854.084
0
VERTEX
8
MID
10
-1035.734
20
-1847.925
0
VERTEX
8
MID
10
-1076.057
20
-1839.239
0
VERTEX
8
MID
10
-1115.762
20
-1828.06
0
VERTEX
8
MID
10
-1154.694
20
-1814.432
0
VERTEX
8
MID
10
-1192.702
20
-1798.406
0
VERTEX
8
MID
10
-1229.639
20
-1780.045
0
VERTEX
8
MID
10
-1265.361
20
-1759.421
0
VERTEX
8
MID
10
-1299.73
20
-1736.613
0
VERTEX
8
MID
10
-1332.613
20
-1711.71
0
VERTEX
8
MID
10
-1363.882
20
-1684.809
0
VERTEX
8
MID
10
-1393.415
20
-1656.013
0
VERTEX
8
MID
10
-1421.099
20
-1625.434
0
VERTEX
8
MID
10
-1446.826
20
-1593.192
0
VERTEX
8
MID
10
-1470.495
20
-1559.41
0
VERTEX
8
MID
10
-1492.016
20
-1524.221
0
VERTEX
8
MID
10
-1511.305
20
-1487.76
0
VERTEX
8
MID
10
-1528.286
20
-1450.17
0
VERTEX
8
MID
10
-1542.895
20
-1411.595
0
VERTEX
8
MID
10
-1555.075
20
-1372.186
0
VERTEX
8
MID
10
-1564.777
20
-1332.094
0
VERTEX
8
MID
10
-1571.965
20
-1291.477
0
VERTEX
8
MID
10
-1576.611
20
-1250.491
0
VERTEX
8
MID
10
-1578.696
20
-1209.295
0
VERTEX
8
MID
10
-1578.213
20
-1168.05
0
VERTEX
8
MID
10
-1575.164
20
-1126.914
0
VERTEX
8
MID
10
-1569.559
20
-1086.048
0
VERTEX
8
MID
10
-1561.422
20
-1045.61
0
VERTEX
8
MID
10
-1550.783
20
-1005.758
0
VERTEX
8
MID
10
-1537.685
20
-966.644
0
VERTEX
8
MID
10
-1522.177
20
-928.422
0
VERTEX
8
MID
10
-1504.319
20
-891.239
0
VERTEX
8
MID
10
-1484.182
20
-855.24
0
VERTEX
8
MID
10
-1461.843
20
-820.565
0
VERTEX
8
MID
10
-1437.389
20
-787.347
0
VERTEX
8
MID
10
-1410.914
20
-755.716
0
VERTEX
8
MID
10
-1382.522
20
-725.794
0
VERTEX
8
MID
10
-1352.322
20
-697.698
0
VERTEX
8
MID
10
-1320.432
20
-671.536
0
VERTEX
8
MID
10
-1286.975
20
-647.409
0
VERTEX
8
MID
10
-1269.528
20
-636.411
0
VERTEX
8
MID
10
-626.155
20
-264.96
0
VERTEX
8
MID
10
-619.215
20
-260.953
0
VERTEX
8
MID
10
-605.866
20
-252.083
0
VERTEX
8
MID
10
-593.099
20
-242.393
0
VERTEX
8
MID
10
-580.967
20
-231.92
0
VERTEX
8
MID
10
-569.515
20
-220.707
0
VERTEX
8
MID
10
-558.791
20
-208.796
0
VERTEX
8
MID
10
-548.836
20
-196.235
0
VERTEX
8
MID
10
-539.689
20
-183.075
0
VERTEX
8
MID
10
-531.386
20
-169.365
0
VERTEX
8
MID
10
-523.961
20
-155.162
0
VERTEX
8
MID
10
-517.442
20
-140.52
0
VERTEX
8
MID
10
-511.855
20
-125.498
0
VERTEX
8
MID
10
-507.223
20
-110.154
0
VERTEX
8
MID
10
-503.563
20
-94.551
0
VERTEX
8
MID
10
-500.89
20
-78.748
0
VERTEX
8
MID
10
-499.214
20
-62.808
0
VERTEX
8
MID
10
-498.543
20
-46.795
0
VERTEX
8
MID
10
-498.879
20
-30.771
0
VERTEX
8
MID
10
-500.22
20
-14.8
0
VERTEX
8
MID
10
-502.561
20
1.056
0
VERTEX
8
MID
10
-505.894
20
16.733
0
VERTEX
8
MID
10
-510.204
20
32.17
0
VERTEX
8
MID
10
-515.475
20
47.306
0
VERTEX
8
MID
10
-521.686
20
62.081
0
VERTEX
8
MID
10
-528.812
20
76.437
0
VERTEX
8
MID
10
-536.826
20
90.317
0
VERTEX
8
MID
10
-545.695
20
103.667
0
VERTEX
8
MID
10
-555.385
20
116.433
0
VERTEX
8
MID
10
-565.858
20
128.566
0
VERTEX
8
MID
10
-577.072
20
140.017
0
VERTEX
8
MID
10
-588.982
20
150.741
0
VERTEX
8
MID
10
-601.543
20
160.696
0
VERTEX
8
MID
10
-614.704
20
169.844
0
VERTEX
8
MID
10
-628.413
20
178.146
0
VERTEX
8
MID
10
-642.616
20
185.572
0
VERTEX
8
MID
10
-657.258
20
192.091
0
VERTEX
8
MID
10
-672.28
20
197.677
0
VERTEX
8
MID
10
-687.624
20
202.31
0
VERTEX
8
MID
10
-703.228
20
205.97
0
VERTEX
8
MID
10
-719.031
20
208.642
0
VERTEX
8
MID
10
-734.97
20
210.318
0
VERTEX
8
MID
10
-750.984
20
210.989
0
VERTEX
8
MID
10
-767.007
20
210.653
0
VERTEX
8
MID
10
-782.979
20
209.312
0
VERTEX
8
MID
10
-798.834
20
206.971
0
VERTEX
8
MID
10
-814.511
20
203.638
0
VERTEX
8
MID
10
-829.948
20
199.328
0
VERTEX
8
MID
10
-845.084
20
194.058
0
VERTEX
8
MID
10
-859.859
20
187.847
0
VERTEX
8
MID
10
-874.215
20
180.72
0
VERTEX
8
MID
10
-881.155
20
176.713
0
VERTEX
8
MID
10
-1524.528
20
-194.738
0
VERTEX
8
MID
10
-1542.776
20
-204.348
0
VERTEX
8
MID
10
-1580.399
20
-221.26
0
VERTEX
8
MID
10
-1619.001
20
-235.796
0
VERTEX
8
MID
10
-1658.433
20
-247.902
0
VERTEX
8
MID
10
-1698.542
20
-257.529
0
VERTEX
8
MID
10
-1739.173
20
-264.642
0
VERTEX
8
MID
10
-1780.167
20
-269.211
0
VERTEX
8
MID
10
-1821.367
20
-271.219
0
VERTEX
8
MID
10
-1862.612
20
-270.659
0
VERTEX
8
MID
10
-1903.741
20
-267.532
0
VERTEX
8
MID
10
-1944.597
20
-261.852
0
VERTEX
8
MID
10
-1985.019
20
-253.639
0
VERTEX
8
MID
10
-2024.852
20
-242.926
0
VERTEX
8
MID
10
-2063.941
20
-229.754
0
VERTEX
8
MID
10
-2102.134
20
-214.175
0
VERTEX
8
MID
10
-2139.283
20
-196.248
0
VERTEX
8
MID
10
-2175.245
20
-176.043
0
VERTEX
8
MID
10
-2209.878
20
-153.639
0
VERTEX
8
MID
10
-2243.05
20
-129.123
0
VERTEX
8
MID
10
-2274.632
20
-102.589
0
VERTEX
8
MID
10
-2304.501
20
-74.141
0
VERTEX
8
MID
10
-2332.541
20
-43.889
0
VERTEX
8
MID
10
-2358.643
20
-11.95
0
VERTEX
8
MID
10
-2382.707
20
21.552
0
VERTEX
8
MID
10
-2404.638
20
56.487
0
VERTEX
8
MID
10
-2424.353
20
92.719
0
VERTEX
8
MID
10
-2441.773
20
130.108
0
VERTEX
8
MID
10
-2456.833
20
168.509
0
VERTEX
8
MID
10
-2469.473
20
207.773
0
VERTEX
8
MID
10
-2479.644
20
247.748
0
VERTEX
8
MID
10
-2487.307
20
288.279
0
VERTEX
8
MID
10
-2492.432
20
329.207
0
VERTEX
8
MID
10
-2495
20
370.376
0
VERTEX
8
MID
10
-2495
20
411.624
0
VERTEX
8
MID
10
-2492.432
20
452.793
0
VERTEX
8
MID
10
-2487.307
20
493.721
0
VERTEX
8
MID
10
-2479.644
20
534.252
0
VERTEX
8
MID
10
-2469.473
20
574.227
0
VERTEX
8
MID
10
-2456.833
20
613.491
0
VERTEX
8
MID
10
-2441.773
20
651.892
0
VERTEX
8
MID
10
-2424.353
20
689.281
0
VERTEX
8
MID
10
-2404.638
20
725.513
0
VERTEX
8
MID
10
-2382.707
20
760.448
0
VERTEX
8
MID
10
-2358.643
20
793.95
0
VERTEX
8
MID
10
-2332.541
20
825.889
0
VERTEX
8
MID
10
-2304.501
20
856.141
0
VERTEX
8
MID
10
-2274.632
20
884.589
0
VERTEX
8
MID
10
-2243.05
20
911.123
0
VERTEX
8
MID
10
-2209.878
20
935.639
0
VERTEX
8
MID
10
-2175.245
20
958.043
0
VERTEX
8
MID
10
-2139.283
20
978.248
0
VERTEX
8
MID
10
-2102.134
20
996.175
0
VERTEX
8
MID
10
-2063.941
20
1011.754
0
VERTEX
8
MID
10
-2024.852
20
1024.926
0
VERTEX
8
MID
10
-1985.019
20
1035.639
0
VERTEX
8
MID
10
-1944.597
20
1043.852
0
VERTEX
8
MID
10
-1903.741
20
1049.532
0
VERTEX
8
MID
10
-1862.612
20
1052.659
0
VERTEX
8
MID
10
-1821.367
20
1053.219
0
VERTEX
8
MID
10
-1780.167
20
1051.211
0
VERTEX
8
MID
10
-1739.173
20
1046.642
0
VERTEX
8
MID
10
-1698.542
20
1039.529
0
VERTEX
8
MID
10
-1658.433
20
1029.902
0
VERTEX
8
MID
10
-1619.001
20
1017.796
0
VERTEX
8
MID
10
-1580.399
20
1003.26
0
VERTEX
8
MID
10
-1542.776
20
986.348
0
VERTEX
8
MID
10
-1524.528
20
976.738
0
VERTEX
8
MID
10
-881.155
20
605.287
0
VERTEX
8
MID
10
-874.215
20
601.28
0
VERTEX
8
MID
10
-859.859
20
594.153
0
VERTEX
8
MID
10
-845.084
20
587.942
0
VERTEX
8
MID
10
-829.948
20
582.672
0
VERTEX
8
MID
10
-814.511
20
578.362
0
VERTEX
8
MID
10
-798.834
20
575.029
0
VERTEX
8
MID
10
-782.979
20
572.688
0
VERTEX
8
MID
10
-767.007
20
571.347
0
VERTEX
8
MID
10
-750.984
20
571.011
0
VERTEX
8
MID
10
-734.97
20
571.682
0
VERTEX
8
MID
10
-719.031
20
573.358
0
VERTEX
8
MID
10
-703.228
20
576.03
0
VERTEX
8
MID
10
-687.624
20
579.69
0
VERTEX
8
MID
10
-672.28
20
584.323
0
VERTEX
8
MID
10
-657.258
20
589.909
0
VERTEX
8
MID
10
-642.616
20
596.428
0
VERTEX
8
MID
10
-628.413
20
603.854
0
VERTEX
8
MID
10
-614.704
20
612.156
0
VERTEX
8
MID
10
-601.543
20
621.304
0
VERTEX
8
MID
10
-588.982
20
631.259
0
VERTEX
8
MID
10
-577.072
20
641.983
0
VERTEX
8
MID
10
-565.858
20
653.434
0
VERTEX
8
MID
10
-555.385
20
665.567
0
VERTEX
8
MID
10
-545.695
20
678.333
0
VERTEX
8
MID
10
-536.826
20
691.683
0
VERTEX
8
MID
10
-528.812
20
705.563
0
VERTEX
8
MID
10
-521.686
20
719.919
0
VERTEX
8
MID
10
-515.475
20
734.694
0
VERTEX
8
MID
10
-510.204
20
749.83
0
VERTEX
8
MID
10
-505.894
20
765.267
0
VERTEX
8
MID
10
-502.561
20
780.944
0
VERTEX
8
MID
10
-500.22
20
796.8
0
VERTEX
8
MID
10
-498.879
20
812.771
0
VERTEX
8
MID
10
-498.543
20
828.795
0
VERTEX
8
MID
10
-499.214
20
844.808
0
VERTEX
8
MID
10
-500.89
20
860.748
0
VERTEX
8
MID
10
-503.563
20
876.551
0
VERTEX
8
MID
10
-507.223
20
892.154
0
VERTEX
8
MID
10
-511.855
20
907.498
0
VERTEX
8
MID
10
-517.442
20
922.52
0
VERTEX
8
MID
10
-523.961
20
937.162
0
VERTEX
8
MID
10
-531.386
20
951.365
0
VERTEX
8
MID
10
-539.689
20
965.075
0
VERTEX
8
MID
10
-548.836
20
978.235
0
VERTEX
8
MID
10
-558.791
20
990.796
0
VERTEX
8
MID
10
-569.515
20
1002.707
0
VERTEX
8
MID
10
-580.967
20
1013.92
0
VERTEX
8
MID
10
-593.099
20
1024.393
0
VERTEX
8
MID
10
-605.866
20
1034.083
0
VERTEX
8
MID
10
-619.215
20
1042.953
0
VERTEX
8
MID
10
-626.155
20
1046.96
0
VERTEX
8
MID
10
-1269.528
20
1418.411
0
VERTEX
8
MID
10
-1286.975
20
1429.409
0
VERTEX
8
MID
10
-1320.432
20
1453.536
0
VERTEX
8
MID
10
-1352.322
20
1479.698
0
VERTEX
8
MID
10
-1382.522
20
1507.794
0
VERTEX
8
MID
10
-1410.914
20
1537.716
0
VERTEX
8
MID
10
-1437.389
20
1569.347
0
VERTEX
8
MID
10
-1461.843
20
1602.565
0
VERTEX
8
MID
10
-1484.182
20
1637.24
0
VERTEX
8
MID
10
-1504.319
20
1673.239
0
VERTEX
8
MID
10
-1522.177
20
1710.422
0
VERTEX
8
MID
10
-1537.685
20
1748.644
0
VERTEX
8
MID
10
-1550.783
20
1787.758
0
VERTEX
8
MID
10
-1561.422
20
1827.61
0
VERTEX
8
MID
10
-1569.559
20
1868.048
0
VERTEX
8
MID
10
-1575.164
20
1908.914
0
VERTEX
8
MID
10
-1578.213
20
1950.05
0
VERTEX
8
MID
10
-1578.696
20
1991.295
0
VERTEX
8
MID
10
-1576.611
20
2032.491
0
VERTEX
8
MID
10
-1571.965
20
2073.477
0
VERTEX
8
MID
10
-1564.777
20
2114.094
0
VERTEX
8
MID
10
-1555.075
20
2154.186
0
VERTEX
8
MID
10
-1542.895
20
2193.595
0
VERTEX
8
MID
10
-1528.286
20
2232.17
0
VERTEX
8
MID
10
-1511.305
20
2269.76
0
VERTEX
8
MID
10
-1492.016
20
2306.221
0
VERTEX
8
MID
10
-1470.495
20
2341.41
0
VERTEX
8
MID
10
-1446.826
20
2375.192
0
VERTEX
8
MID
10
-1421.099
20
2407.434
0
VERTEX
8
MID
10
-1393.415
20
2438.013
0
VERTEX
8
MID
10
-1363.882
20
2466.809
0
VERTEX
8
MID
10
-1332.613
20
2493.71
0
VERTEX
8
MID
10
-1299.73
20
2518.613
0
VERTEX
8
MID
10
-1265.361
20
2541.421
0
VERTEX
8
MID
10
-1229.639
20
2562.045
0
VERTEX
8
MID
10
-1192.702
20
2580.406
0
VERTEX
8
MID
10
-1154.694
20
2596.432
0
VERTEX
8
MID
10
-1115.762
20
2610.06
0
VERTEX
8
MID
10
-1076.057
20
2621.239
0
VERTEX
8
MID
10
-1035.734
20
2629.925
0
VERTEX
8
MID
10
-994.948
20
2636.084
0
VERTEX
8
MID
10
-953.857
20
2639.691
0
VERTEX
8
MID
10
-912.622
20
2640.734
0
VERTEX
8
MID
10
-871.402
20
2639.209
0
VERTEX
8
MID
10
-830.357
20
2635.12
0
VERTEX
8
MID
10
-789.645
20
2628.484
0
VERTEX
8
MID
10
-749.426
20
2619.327
0
VERTEX
8
MID
10
-709.855
20
2607.684
0
VERTEX
8
MID
10
-671.085
20
2593.6
0
VERTEX
8
MID
10
-633.268
20
2577.131
0
VERTEX
8
MID
10
-596.548
20
2558.339
0
VERTEX
8
MID
10
-561.07
20
2537.298
0
VERTEX
8
MID
10
-526.971
20
2514.089
0
VERTEX
8
MID
10
-494.382
20
2488.802
0
VERTEX
8
MID
10
-463.43
20
2461.536
0
VERTEX
8
MID
10
-434.236
20
2432.397
0
VERTEX
8
MID
10
-406.912
20
2401.496
0
VERTEX
8
MID
10
-381.565
20
2368.955
0
VERTEX
8
MID
10
-358.292
20
2334.898
0
VERTEX
8
MID
10
-337.185
20
2299.459
0
VERTEX
8
MID
10
-318.324
20
2262.775
0
VERTEX
8
MID
10
-301.784
20
2224.989
0
VERTEX
8
MID
10
-287.628
20
2186.245
0
VERTEX
8
MID
10
-275.911
20
2146.696
0
VERTEX
8
MID
10
-266.679
20
2106.494
0
VERTEX
8
MID
10
-259.967
20
2065.795
0
VERTEX
8
MID
10
-255.801
20
2024.758
0
VERTEX
8
MID
10
-255
20
2004.149
0
VERTEX
8
MID
10
-255
20
1253.232
0
VERTEX
8
MID
10
-253.994
20
1237.237
0
VERTEX
8
MID
10
-251.985
20
1221.336
0
VERTEX
8
MID
10
-248.982
20
1205.592
0
VERTEX
8
MID
10
-244.996
20
1190.068
0
VERTEX
8
MID
10
-240.043
20
1174.825
0
VERTEX
8
MID
10
-234.143
20
1159.923
0
VERTEX
8
MID
10
-227.319
20
1145.421
0
VERTEX
8
MID
10
-219.598
20
1131.376
0
VERTEX
8
MID
10
-211.01
20
1117.844
0
VERTEX
8
MID
10
-201.589
20
1104.878
0
VERTEX
8
MID
10
-191.373
20
1092.528
0
VERTEX
8
MID
10
-180.401
20
1080.845
0
VERTEX
8
MID
10
-168.718
20
1069.873
0
VERTEX
8
MID
10
-156.368
20
1059.657
0
VERTEX
8
MID
10
-143.402
20
1050.236
0
VERTEX
8
MID
10
-129.87
20
1041.648
0
VERTEX
8
MID
10
-115.825
20
1033.927
0
VERTEX
8
MID
10
-101.323
20
1027.103
0
VERTEX
8
MID
10
-86.421
20
1021.203
0
VERTEX
8
MID
10
-71.178
20
1016.25
0
VERTEX
8
MID
10
-55.654
20
1012.264
0
VERTEX
8
MID
10
-39.91
20
1009.261
0
VERTEX
8
MID
10
-24.009
20
1007.252
0
VERTEX
8
MID
10
-8.014
20
1006.246
0
VERTEX
8
MID
10
8.014
20
1006.246
0
VERTEX
8
MID
10
24.009
20
1007.252
0
VERTEX
8
MID
10
39.91
20
1009.261
0
VERTEX
8
MID
10
55.654
20
1012.264
0
VERTEX
8
MID
10
71.178
20
1016.25
0
VERTEX
8
MID
10
86.421
20
1021.203
0
VERTEX
8
MID
10
101.323
20
1027.103
0
VERTEX
8
MID
10
115.825
20
1033.927
0
VERTEX
8
MID
10
129.87
20
1041.648
0
VERTEX
8
MID
10
143.402
20
1050.236
0
VERTEX
8
MID
10
156.368
20
1059.657
0
VERTEX
8
MID
10
168.718
20
1069.873
0
VERTEX
8
MID
10
180.401
20
1080.845
0
VERTEX
8
MID
10
191.373
20
1092.528
0
VERTEX
8
MID
10
201.589
20
1104.878
0
VERTEX
8
MID
10
211.01
20
1117.844
0
VERTEX
8
MID
10
219.598
20
1131.376
0
VERTEX
8
MID
10
227.319
20
1145.421
0
VERTEX
8
MID
10
234.143
20
1159.923
0
VERTEX
8
MID
10
240.043
20
1174.825
0
VERTEX
8
MID
10
244.996
20
1190.068
0
VERTEX
8
MID
10
248.982
20
1205.592
0
VERTEX
8
MID
10
251.985
20
1221.336
0
VERTEX
8
MID
10
253.994
20
1237.237
0
VERTEX
8
MID
10
255
20
1253.232
0
VERTEX
8
MID
10
255
20
2004.149
0
VERTEX
8
MID
10
255.801
20
2024.758
0
VERTEX
8
MID
10
259.967
20
2065.795
0
VERTEX
8
MID
10
266.679
20
2106.494
0
VERTEX
8
MID
10
275.911
20
2146.696
0
VERTEX
8
MID
10
287.628
20
2186.245
0
VERTEX
8
MID
10
301.784
20
2224.989
0
VERTEX
8
MID
10
318.324
20
2262.775
0
VERTEX
8
MID
10
337.185
20
2299.459
0
VERTEX
8
MID
10
358.292
20
2334.898
0
VERTEX
8
MID
10
381.565
20
2368.955
0
VERTEX
8
MID
10
406.912
20
2401.496
0
VERTEX
8
MID
10
434.236
20
2432.397
0
VERTEX
8
MID
10
463.43
20
2461.536
0
VERTEX
8
MID
10
494.382
20
2488.802
0
VERTEX
8
MID
10
526.971
20
2514.089
0
VERTEX
8
MID
10
561.07
20
2537.298
0
VERTEX
8
MID
10
596.548
20
2558.339
0
VERTEX
8
MID
10
633.268
20
2577.131
0
VERTEX
8
MID
10
671.085
20
2593.6
0
VERTEX
8
MID
10
709.855
20
2607.684
0
VERTEX
8
MID
10
749.426
20
2619.327
0
VERTEX
8
MID
10
754.688
20
2620.525
0
VERTEX
8
MID
10
912.841
20
2620.525
0
VERTEX
8
MID
10
872.89
20
2619.053
0
VERTEX
8
MID
10
833.108
20
2615.098
0
VERTEX
8
MID
10
793.65
20
2608.674
0
VERTEX
8
MID
10
754.667
20
2599.808
0
VERTEX
8
MID
10
716.312
20
2588.532
0
VERTEX
8
MID
10
678.733
20
2574.892
0
VERTEX
8
MID
10
642.076
20
2558.94
0
VERTEX
8
MID
10
606.482
20
2540.737
0
VERTEX
8
MID
10
572.09
20
2520.355
0
VERTEX
8
MID
10
539.033
20
2497.872
0
VERTEX
8
MID
10
507.44
20
2473.376
0
VERTEX
8
MID
10
477.432
20
2446.96
0
VERTEX
8
MID
10
449.126
20
2418.729
0
VERTEX
8
MID
10
422.631
20
2388.791
0
VERTEX
8
MID
10
398.051
20
2357.262
0
VERTEX
8
MID
10
375.481
20
2324.265
0
VERTEX
8
MID
10
355.008
20
2289.927
0
VERTEX
8
MID
10
336.712
20
2254.381
0
VERTEX
8
MID
10
320.663
20
2217.766
0
VERTEX
8
MID
10
306.923
20
2180.223
0
VERTEX
8
MID
10
295.547
20
2141.898
0
VERTEX
8
MID
10
286.577
20
2102.94
0
VERTEX
8
MID
10
280.049
20
2063.498
0
VERTEX
8
MID
10
275.989
20
2023.727
0
VERTEX
8
MID
10
275.2
20
2003.753
0
VERTEX
8
MID
10
275.2
20
1252.598
0
VERTEX
8
MID
10
274.114
20
1235.335
0
VERTEX
8
MID
10
271.946
20
1218.174
0
VERTEX
8
MID
10
268.705
20
1201.183
0
VERTEX
8
MID
10
264.403
20
1184.43
0
VERTEX
8
MID
10
259.058
20
1167.979
0
VERTEX
8
MID
10
252.691
20
1151.897
0
VERTEX
8
MID
10
245.326
20
1136.246
0
VERTEX
8
MID
10
236.993
20
1121.089
0
VERTEX
8
MID
10
227.725
20
1106.484
0
VERTEX
8
MID
10
217.558
20
1092.491
0
VERTEX
8
MID
10
206.532
20
1079.163
0
VERTEX
8
MID
10
194.692
20
1066.554
0
VERTEX
8
MID
10
182.083
20
1054.714
0
VERTEX
8
MID
10
168.755
20
1043.688
0
VERTEX
8
MID
10
154.762
20
1033.521
0
VERTEX
8
MID
10
140.157
20
1024.253
0
VERTEX
8
MID
10
125
20
1015.92
0
VERTEX
8
MID
10
109.349
20
1008.555
0
VERTEX
8
MID
10
93.267
20
1002.188
0
VERTEX
8
MID
10
76.816
20
996.843
0
VERTEX
8
MID
10
60.063
20
992.541
0
VERTEX
8
MID
10
43.072
20
989.3
0
VERTEX
8
MID
10
25.911
20
987.132
0
VERTEX
8
MID
10
8.649
20
986.046
0
VERTEX
8
MID
10
-8.649
20
986.046
0
VERTEX
8
MID
10
-25.911
20
987.132
0
VERTEX
8
MID
10
-43.072
20
989.3
0
VERTEX
8
MID
10
-60.063
20
992.541
0
VERTEX
8
MID
10
-76.816
20
996.843
0
VERTEX
8
MID
10
-93.267
20
1002.188
0
VERTEX
8
MID
10
-109.349
20
1008.555
0
VERTEX
8
MID
10
-125
20
1015.92
0
VERTEX
8
MID
10
-140.157
20
1024.253
0
VERTEX
8
MID
10
-154.762
20
1033.521
0
VERTEX
8
MID
10
-168.755
20
1043.688
0
VERTEX
8
MID
10
-182.083
20
1054.714
0
VERTEX
8
MID
10
-194.692
20
1066.554
0
VERTEX
8
MID
10
-206.532
20
1079.163
0
VERTEX
8
MID
10
-217.558
20
1092.491
0
VERTEX
8
MID
10
-227.725
20
1106.484
0
VERTEX
8
MID
10
-236.993
20
1121.089
0
VERTEX
8
MID
10
-245.326
20
1136.246
0
VERTEX
8
MID
10
-252.691
20
1151.897
0
VERTEX
8
MID
10
-259.058
20
1167.979
0
VERTEX
8
MID
10
-264.403
20
1184.43
0
VERTEX
8
MID
10
-268.705
20
1201.183
0
VERTEX
8
MID
10
-271.946
20
1218.174
0
VERTEX
8
MID
10
-274.114
20
1235.335
0
VERTEX
8
MID
10
-275.2
20
1252.598
0
VERTEX
8
MID
10
-275.2
20
2003.753
0
VERTEX
8
MID
10
-275.989
20
2023.727
0
VERTEX
8
MID
10
-280.049
20
2063.498
0
VERTEX
8
MID
10
-286.577
20
2102.94
0
VERTEX
8
MID
10
-295.547
20
2141.898
0
VERTEX
8
MID
10
-306.923
20
2180.223
0
VERTEX
8
MID
10
-320.663
20
2217.766
0
VERTEX
8
MID
10
-336.712
20
2254.381
0
VERTEX
8
MID
10
-355.008
20
2289.927
0
VERTEX
8
MID
10
-375.481
20
2324.265
0
VERTEX
8
MID
10
-398.051
20
2357.262
0
VERTEX
8
MID
10
-422.631
20
2388.791
0
VERTEX
8
MID
10
-449.126
20
2418.729
0
VERTEX
8
MID
10
-477.432
20
2446.96
0
VERTEX
8
MID
10
-507.44
20
2473.376
0
VERTEX
8
MID
10
-539.033
20
2497.872
0
VERTEX
8
MID
10
-572.09
20
2520.355
0
VERTEX
8
MID
10
-606.482
20
2540.737
0
VERTEX
8
MID
10
-642.076
20
2558.94
0
VERTEX
8
MID
10
-678.733
20
2574.892
0
VERTEX
8
MID
10
-716.312
20
2588.532
0
VERTEX
8
MID
10
-754.667
20
2599.808
0
VERTEX
8
MID
10
-793.65
20
2608.674
0
VERTEX
8
MID
10
-833.108
20
2615.098
0
VERTEX
8
MID
10
-872.89
20
2619.053
0
VERTEX
8
MID
10
-912.841
20
2620.525
0
VERTEX
8
MID
10
-952.806
20
2619.509
0
VERTEX
8
MID
10
-992.63
20
2616.007
0
VERTEX
8
MID
10
-1032.159
20
2610.033
0
VERTEX
8
MID
10
-1071.24
20
2601.612
0
VERTEX
8
MID
10
-1109.721
20
2590.774
0
VERTEX
8
MID
10
-1147.453
20
2577.563
0
VERTEX
8
MID
10
-1184.29
20
2562.03
0
VERTEX
8
MID
10
-1220.089
20
2544.234
0
VERTEX
8
MID
10
-1237.4
20
2534.24
0
VERTEX
8
MID
10
-1254.711
20
2524.245
0
VERTEX
8
MID
10
-1288.022
20
2502.14
0
VERTEX
8
MID
10
-1319.893
20
2478.006
0
VERTEX
8
MID
10
-1350.2
20
2451.934
0
VERTEX
8
MID
10
-1378.826
20
2424.027
0
VERTEX
8
MID
10
-1405.66
20
2394.393
0
VERTEX
8
MID
10
-1430.597
20
2363.146
0
VERTEX
8
MID
10
-1453.542
20
2330.408
0
VERTEX
8
MID
10
-1474.405
20
2296.306
0
VERTEX
8
MID
10
-1493.106
20
2260.971
0
VERTEX
8
MID
10
-1509.571
20
2224.542
0
VERTEX
8
MID
10
-1523.737
20
2187.158
0
VERTEX
8
MID
10
-1535.55
20
2148.965
0
VERTEX
8
MID
10
-1544.963
20
2110.111
0
VERTEX
8
MID
10
-1551.94
20
2070.746
0
VERTEX
8
MID
10
-1556.453
20
2031.024
0
VERTEX
8
MID
10
-1558.486
20
1991.098
0
VERTEX
8
MID
10
-1558.03
20
1951.122
0
VERTEX
8
MID
10
-1555.088
20
1911.253
0
VERTEX
8
MID
10
-1549.67
20
1871.643
0
VERTEX
8
MID
10
-1541.798
20
1832.448
0
VERTEX
8
MID
10
-1531.502
20
1793.819
0
VERTEX
8
MID
10
-1518.822
20
1755.905
0
VERTEX
8
MID
10
-1503.807
20
1718.854
0
VERTEX
8
MID
10
-1486.516
20
1682.809
0
VERTEX
8
MID
10
-1467.015
20
1647.909
0
VERTEX
8
MID
10
-1445.38
20
1614.292
0
VERTEX
8
MID
10
-1421.695
20
1582.085
0
VERTEX
8
MID
10
-1396.051
20
1551.415
0
VERTEX
8
MID
10
-1368.549
20
1522.4
0
VERTEX
8
MID
10
-1339.295
20
1495.153
0
VERTEX
8
MID
10
-1308.401
20
1469.779
0
VERTEX
8
MID
10
-1275.988
20
1446.377
0
VERTEX
8
MID
10
-1259.085
20
1435.707
0
VERTEX
8
MID
10
-616.055
20
1064.453
0
VERTEX
8
MID
10
-608.565
20
1060.129
0
VERTEX
8
MID
10
-594.158
20
1050.557
0
VERTEX
8
MID
10
-580.381
20
1040.099
0
VERTEX
8
MID
10
-567.287
20
1028.797
0
VERTEX
8
MID
10
-554.929
20
1016.695
0
VERTEX
8
MID
10
-543.355
20
1003.841
0
VERTEX
8
MID
10
-532.611
20
990.285
0
VERTEX
8
MID
10
-522.739
20
976.082
0
VERTEX
8
MID
10
-513.779
20
961.286
0
VERTEX
8
MID
10
-505.765
20
945.958
0
VERTEX
8
MID
10
-498.73
20
930.156
0
VERTEX
8
MID
10
-492.701
20
913.944
0
VERTEX
8
MID
10
-487.701
20
897.385
0
VERTEX
8
MID
10
-483.751
20
880.545
0
VERTEX
8
MID
10
-480.867
20
863.49
0
VERTEX
8
MID
10
-479.059
20
846.288
0
VERTEX
8
MID
10
-478.334
20
829.006
0
VERTEX
8
MID
10
-478.697
20
811.713
0
VERTEX
8
MID
10
-480.144
20
794.477
0
VERTEX
8
MID
10
-482.671
20
777.365
0
VERTEX
8
MID
10
-486.267
20
760.446
0
VERTEX
8
MID
10
-490.919
20
743.786
0
VERTEX
8
MID
10
-496.607
20
727.451
0
VERTEX
8
MID
10
-503.31
20
711.506
0
VERTEX
8
MID
10
-511.001
20
696.013
0
VERTEX
8
MID
10
-519.649
20
681.033
0
VERTEX
8
MID
10
-529.221
20
666.626
0
VERTEX
8
MID
10
-539.679
20
652.849
0
VERTEX
8
MID
10
-550.981
20
639.755
0
VERTEX
8
MID
10
-563.083
20
627.397
0
VERTEX
8
MID
10
-575.938
20
615.823
0
VERTEX
8
MID
10
-589.493
20
605.079
0
VERTEX
8
MID
10
-603.697
20
595.207
0
VERTEX
8
MID
10
-618.492
20
586.247
0
VERTEX
8
MID
10
-633.82
20
578.233
0
VERTEX
8
MID
10
-649.622
20
571.198
0
VERTEX
8
MID
10
-665.834
20
565.168
0
VERTEX
8
MID
10
-682.393
20
560.169
0
VERTEX
8
MID
10
-699.233
20
556.219
0
VERTEX
8
MID
10
-716.288
20
553.335
0
VERTEX
8
MID
10
-733.49
20
551.527
0
VERTEX
8
MID
10
-750.772
20
550.802
0
VERTEX
8
MID
10
-768.065
20
551.165
0
VERTEX
8
MID
10
-785.302
20
552.612
0
VERTEX
8
MID
10
-802.413
20
555.139
0
VERTEX
8
MID
10
-819.332
20
558.735
0
VERTEX
8
MID
10
-835.992
20
563.386
0
VERTEX
8
MID
10
-852.327
20
569.075
0
VERTEX
8
MID
10
-868.272
20
575.778
0
VERTEX
8
MID
10
-883.765
20
583.469
0
VERTEX
8
MID
10
-891.255
20
587.793
0
VERTEX
8
MID
10
-1534.285
20
959.047
0
VERTEX
8
MID
10
-1551.977
20
968.35
0
VERTEX
8
MID
10
-1588.451
20
984.719
0
VERTEX
8
MID
10
-1625.872
20
998.787
0
VERTEX
8
MID
10
-1664.096
20
1010.498
0
VERTEX
8
MID
10
-1702.975
20
1019.809
0
VERTEX
8
MID
10
-1742.357
20
1026.681
0
VERTEX
8
MID
10
-1782.091
20
1031.09
0
VERTEX
8
MID
10
-1822.023
20
1033.017
0
VERTEX
8
MID
10
-1861.997
20
1032.456
0
VERTEX
8
MID
10
-1901.859
20
1029.408
0
VERTEX
8
MID
10
-1941.453
20
1023.886
0
VERTEX
8
MID
10
-1980.628
20
1015.91
0
VERTEX
8
MID
10
-2019.23
20
1005.512
0
VERTEX
8
MID
10
-2057.11
20
992.732
0
VERTEX
8
MID
10
-2094.121
20
977.619
0
VERTEX
8
MID
10
-2130.121
20
960.233
0
VERTEX
8
MID
10
-2164.968
20
940.64
0
VERTEX
8
MID
10
-2198.529
20
918.916
0
VERTEX
8
MID
10
-2230.673
20
895.146
0
VERTEX
8
MID
10
-2261.275
20
869.422
0
VERTEX
8
MID
10
-2290.217
20
841.843
0
VERTEX
8
MID
10
-2317.387
20
812.516
0
VERTEX
8
MID
10
-2342.679
20
781.556
0
VERTEX
8
MID
10
-2365.996
20
749.082
0
VERTEX
8
MID
10
-2387.246
20
715.219
0
VERTEX
8
MID
10
-2406.348
20
680.1
0
VERTEX
8
MID
10
-2423.227
20
643.86
0
VERTEX
8
MID
10
-2437.819
20
606.64
0
VERTEX
8
MID
10
-2450.066
20
568.585
0
VERTEX
8
MID
10
-2459.921
20
529.84
0
VERTEX
8
MID
10
-2467.346
20
490.558
0
VERTEX
8
MID
10
-2472.312
20
450.89
0
VERTEX
8
MID
10
-2474.8
20
410.989
0
VERTEX
8
MID
10
-2474.8
20
371.011
0
VERTEX
8
MID
10
-2472.312
20
331.11
0
VERTEX
8
MID
10
-2467.346
20
291.442
0
VERTEX
8
MID
10
-2459.921
20
252.16
0
VERTEX
8
MID
10
-2450.066
20
213.415
0
VERTEX
8
MID
10
-2437.819
20
175.36
0
VERTEX
8
MID
10
-2423.227
20
138.14
0
VERTEX
8
MID
10
-2406.348
20
101.9
0
VERTEX
8
MID
10
-2387.246
20
66.781
0
VERTEX
8
MID
10
-2365.996
20
32.918
0
VERTEX
8
MID
10
-2342.679
20
0.444
0
VERTEX
8
MID
10
-2317.387
20
-30.516
0
VERTEX
8
MID
10
-2290.217
20
-59.843
0
VERTEX
8
MID
10
-2261.275
20
-87.422
0
VERTEX
8
MID
10
-2230.673
20
-113.146
0
VERTEX
8
MID
10
-2198.529
20
-136.916
0
VERTEX
8
MID
10
-2164.968
20
-158.64
0
VERTEX
8
MID
10
-2130.121
20
-178.233
0
VERTEX
8
MID
10
-2094.121
20
-195.619
0
VERTEX
8
MID
10
-2057.11
20
-210.732
0
VERTEX
8
MID
10
-2019.23
20
-223.512
0
VERTEX
8
MID
10
-1980.628
20
-233.91
0
VERTEX
8
MID
10
-1941.453
20
-241.886
0
VERTEX
8
MID
10
-1901.859
20
-247.408
0
VERTEX
8
MID
10
-1861.997
20
-250.456
0
VERTEX
8
MID
10
-1822.023
20
-251.017
0
VERTEX
8
MID
10
-1782.091
20
-249.09
0
VERTEX
8
MID
10
-1742.357
20
-244.681
0
VERTEX
8
MID
10
-1702.975
20
-237.809
0
VERTEX
8
MID
10
-1664.096
20
-228.498
0
VERTEX
8
MID
10
-1625.872
20
-216.787
0
VERTEX
8
MID
10
-1588.451
20
-202.719
0
VERTEX
8
MID
10
-1551.977
20
-186.35
0
VERTEX
8
MID
10
-1534.285
20
-177.047
0
VERTEX
8
MID
10
-891.255
20
194.207
0
VERTEX
8
MID
10
-883.765
20
198.531
0
VERTEX
8
MID
10
-868.272
20
206.222
0
VERTEX
8
MID
10
-852.327
20
212.925
0
VERTEX
8
MID
10
-835.992
20
218.614
0
VERTEX
8
MID
10
-819.332
20
223.265
0
VERTEX
8
MID
10
-802.413
20
226.861
0
VERTEX
8
MID
10
-785.302
20
229.388
0
VERTEX
8
MID
10
-768.065
20
230.835
0
VERTEX
8
MID
10
-750.772
20
231.198
0
VERTEX
8
MID
10
-733.49
20
230.473
0
VERTEX
8
MID
10
-716.288
20
228.665
0
VERTEX
8
MID
10
-699.233
20
225.781
0
VERTEX
8
MID
10
-682.393
20
221.831
0
VERTEX
8
MID
10
-665.834
20
216.832
0
VERTEX
8
MID
10
-649.622
20
210.802
0
VERTEX
8
MID
10
-633.82
20
203.767
0
VERTEX
8
MID
10
-618.492
20
195.753
0
VERTEX
8
MID
10
-603.697
20
186.793
0
VERTEX
8
MID
10
-589.493
20
176.921
0
VERTEX
8
MID
10
-575.938
20
166.177
0
VERTEX
8
MID
10
-563.083
20
154.603
0
VERTEX
8
MID
10
-550.981
20
142.245
0
VERTEX
8
MID
10
-539.679
20
129.151
0
VERTEX
8
MID
10
-529.221
20
115.374
0
VERTEX
8
MID
10
-519.649
20
100.967
0
VERTEX
8
MID
10
-511.001
20
85.987
0
VERTEX
8
MID
10
-503.31
20
70.494
0
VERTEX
8
MID
10
-496.607
20
54.549
0
VERTEX
8
MID
10
-490.919
20
38.214
0
VERTEX
8
MID
10
-486.267
20
21.554
0
VERTEX
8
MID
10
-482.671
20
4.635
0
VERTEX
8
MID
10
-480.144
20
-12.477
0
VERTEX
8
MID
10
-478.697
20
-29.713
0
VERTEX
8
MID
10
-478.334
20
-47.006
0
VERTEX
8
MID
10
-479.059
20
-64.288
0
VERTEX
8
MID
10
-480.867
20
-81.49
0
VERTEX
8
MID
10
-483.751
20
-98.545
0
VERTEX
8
MID
10
-487.701
20
-115.385
0
VERTEX
8
MID
10
-492.701
20
-131.944
0
VERTEX
8
MID
10
-498.73
20
-148.156
0
VERTEX
8
MID
10
-505.765
20
-163.958
0
VERTEX
8
MID
10
-513.779
20
-179.286
0
VERTEX
8
MID
10
-522.739
20
-194.082
0
VERTEX
8
MID
10
-532.611
20
-208.285
0
VERTEX
8
MID
10
-543.355
20
-221.841
0
VERTEX
8
MID
10
-554.929
20
-234.695
0
VERTEX
8
MID
10
-567.287
20
-246.797
0
VERTEX
8
MID
10
-580.381
20
-258.099
0
VERTEX
8
MID
10
-594.158
20
-268.557
0
VERTEX
8
MID
10
-608.565
20
-278.129
0
VERTEX
8
MID
10
-616.055
20
-282.453
0
VERTEX
8
MID
10
-1259.085
20
-653.707
0
VERTEX
8
MID
10
-1275.988
20
-664.377
0
VERTEX
8
MID
10
-1308.401
20
-687.779
0
VERTEX
8
MID
10
-1339.295
20
-713.153
0
VERTEX
8
MID
10
-1368.549
20
-740.4
0
VERTEX
8
MID
10
-1396.051
20
-769.415
0
VERTEX
8
MID
10
-1421.695
20
-800.085
0
VERTEX
8
MID
10
-1445.38
20
-832.292
0
VERTEX
8
MID
10
-1467.015
20
-865.909
0
VERTEX
8
MID
10
-1486.516
20
-900.809
0
VERTEX
8
MID
10
-1503.807
20
-936.854
0
VERTEX
8
MID
10
-1518.822
20
-973.905
0
VERTEX
8
MID
10
-1531.502
20
-1011.819
0
VERTEX
8
MID
10
-1541.798
20
-1050.448
0
VERTEX
8
MID
10
-1549.67
20
-1089.643
0
VERTEX
8
MID
10
-1555.088
20
-1129.253
0
VERTEX
8
MID
10
-1558.03
20
-1169.122
0
VERTEX
8
MID
10
-1558.486
20
-1209.098
0
VERTEX
8
MID
10
-1556.453
20
-1249.024
0
VERTEX
8
MID
10
-1551.94
20
-1288.746
0
VERTEX
8
MID
10
-1544.963
20
-1328.111
0
VERTEX
8
MID
10
-1535.55
20
-1366.965
0
VERTEX
8
MID
10
-1523.737
20
-1405.158
0
VERTEX
8
MID
10
-1509.571
20
-1442.542
0
VERTEX
8
MID
10
-1493.106
20
-1478.971
0
VERTEX
8
MID
10
-1474.405
20
-1514.306
0
VERTEX
8
MID
10
-1453.542
20
-1548.408
0
VERTEX
8
MID
10
-1430.597
20
-1581.146
0
VERTEX
8
MID
10
-1405.66
20
-1612.393
0
VERTEX
8
MID
10
-1378.826
20
-1642.027
0
VERTEX
8
MID
10
-1350.2
20
-1669.934
0
VERTEX
8
MID
10
-1319.893
20
-1696.006
0
VERTEX
8
MID
10
-1288.022
20
-1720.14
0
VERTEX
8
MID
10
-1254.711
20
-1742.245
0
VERTEX
8
MID
10
-1237.4
20
-1752.24
0
VERTEX
8
MID
10
-1220.089
20
-1762.234
0
VERTEX
8
MID
10
-1184.29
20
-1780.03
0
VERTEX
8
MID
10
-1147.453
20
-1795.563
0
VERTEX
8
MID
10
-1109.721
20
-1808.774
0
VERTEX
8
MID
10
-1071.24
20
-1819.612
0
VERTEX
8
MID
10
-1032.159
20
-1828.033
0
VERTEX
8
MID
10
-992.63
20
-1834.007
0
VERTEX
8
MID
10
-952.806
20
-1837.509
0
VERTEX
8
MID
10
-912.841
20
-1838.525
0
VERTEX
8
MID
10
-872.89
20
-1837.053
0
VERTEX
8
MID
10
-833.108
20
-1833.098
0
VERTEX
8
MID
10
-793.65
20
-1826.674
0
VERTEX
8
MID
10
-754.667
20
-1817.808
0
VERTEX
8
MID
10
-716.312
20
-1806.532
0
VERTEX
8
MID
10
-678.733
20
-1792.892
0
VERTEX
8
MID
10
-642.076
20
-1776.94
0
VERTEX
8
MID
10
-606.482
20
-1758.737
0
VERTEX
8
MID
10
-572.09
20
-1738.355
0
VERTEX
8
MID
10
-539.033
20
-1715.872
0
VERTEX
8
MID
10
-507.44
20
-1691.376
0
VERTEX
8
MID
10
-477.432
20
-1664.96
0
VERTEX
8
MID
10
-449.126
20
-1636.729
0
VERTEX
8
MID
10
-422.631
20
-1606.791
0
VERTEX
8
MID
10
-398.051
20
-1575.262
0
VERTEX
8
MID
10
-375.481
20
-1542.265
0
VERTEX
8
MID
10
-355.008
20
-1507.927
0
VERTEX
8
MID
10
-336.712
20
-1472.381
0
VERTEX
8
MID
10
-320.663
20
-1435.766
0
VERTEX
8
MID
10
-306.923
20
-1398.223
0
VERTEX
8
MID
10
-295.547
20
-1359.898
0
VERTEX
8
MID
10
-286.577
20
-1320.94
0
VERTEX
8
MID
10
-280.049
20
-1281.498
0
VERTEX
8
MID
10
-275.989
20
-1241.727
0
VERTEX
8
MID
10
-275.2
20
-1221.753
0
VERTEX
8
MID
10
-275.2
20
-470.598
0
VERTEX
8
MID
10
-274.114
20
-453.335
0
VERTEX
8
MID
10
-271.946
20
-436.174
0
VERTEX
8
MID
10
-268.705
20
-419.183
0
VERTEX
8
MID
10
-264.403
20
-402.43
0
VERTEX
8
MID
10
-259.058
20
-385.979
0
VERTEX
8
MID
10
-252.691
20
-369.897
0
VERTEX
8
MID
10
-245.326
20
-354.246
0
VERTEX
8
MID
10
-236.993
20
-339.089
0
VERTEX
8
MID
10
-227.725
20
-324.484
0
VERTEX
8
MID
10
-217.558
20
-310.491
0
VERTEX
8
MID
10
-206.532
20
-297.163
0
VERTEX
8
MID
10
-194.692
20
-284.554
0
VERTEX
8
MID
10
-182.083
20
-272.714
0
VERTEX
8
MID
10
-168.755
20
-261.688
0
VERTEX
8
MID
10
-154.762
20
-251.521
0
VERTEX
8
MID
10
-140.157
20
-242.253
0
VERTEX
8
MID
10
-125
20
-233.92
0
VERTEX
8
MID
10
-109.349
20
-226.555
0
VERTEX
8
MID
10
-93.267
20
-220.188
0
VERTEX
8
MID
10
-76.816
20
-214.843
0
VERTEX
8
MID
10
-60.063
20
-210.541
0
VERTEX
8
MID
10
-43.072
20
-207.3
0
VERTEX
8
MID
10
-25.911
20
-205.132
0
VERTEX
8
MID
10
-8.649
20
-204.046
0
VERTEX
8
MID
10
8.649
20
-204.046
0
VERTEX
8
MID
10
25.911
20
-205.132
0
VERTEX
8
MID
10
43.072
20
-207.3
0
VERTEX
8
MID
10
60.063
20
-210.541
0
VERTEX
8
MID
10
76.816
20
-214.843
0
VERTEX
8
MID
10
93.267
20
-220.188
0
VERTEX
8
MID
10
109.349
20
-226.555
0
VERTEX
8
MID
10
125
20
-233.92
0
VERTEX
8
MID
10
140.157
20
-242.253
0
VERTEX
8
MID
10
154.762
20
-251.521
0
VERTEX
8
MID
10
168.755
20
-261.688
0
VERTEX
8
MID
10
182.083
20
-272.714
0
VERTEX
8
MID
10
194.692
20
-284.554
0
VERTEX
8
MID
10
206.532
20
-297.163
0
VERTEX
8
MID
10
217.558
20
-310.491
0
VERTEX
8
MID
10
227.725
20
-324.484
0
VERTEX
8
MID
10
236.993
20
-339.089
0
VERTEX
8
MID
10
245.326
20
-354.246
0
VERTEX
8
MID
10
252.691
20
-369.897
0
VERTEX
8
MID
10
259.058
20
-385.979
0
VERTEX
8
MID
10
264.403
20
-402.43
0
VERTEX
8
MID
10
268.705
20
-419.183
0
VERTEX
8
MID
10
271.946
20
-436.174
0
VERTEX
8
MID
10
274.114
20
-453.335
0
VERTEX
8
MID
10
275.2
20
-470.598
0
VERTEX
8
MID
10
275.2
20
-1221.753
0
VERTEX
8
MID
10
275.989
20
-1241.727
0
VERTEX
8
MID
10
280.049
20
-1281.498
0
VERTEX
8
MID
10
286.577
20
-1320.94
0
VERTEX
8
MID
10
295.547
20
-1359.898
0
VERTEX
8
MID
10
306.923
20
-1398.223
0
VERTEX
8
MID
10
320.663
20
-1435.766
0
VERTEX
8
MID
10
336.712
20
-1472.381
0
VERTEX
8
MID
10
355.008
20
-1507.927
0
VERTEX
8
MID
10
375.481
20
-1542.265
0
VERTEX
8
MID
10
398.051
20
-1575.262
0
VERTEX
8
MID
10
422.631
20
-1606.791
0
VERTEX
8
MID
10
449.126
20
-1636.729
0
VERTEX
8
MID
10
477.432
20
-1664.96
0
VERTEX
8
MID
10
507.44
20
-1691.376
0
VERTEX
8
MID
10
539.033
20
-1715.872
0
VERTEX
8
MID
10
572.09
20
-1738.355
0
VERTEX
8
MID
10
606.482
20
-1758.737
0
VERTEX
8
MID
10
642.076
20
-1776.94
0
VERTEX
8
MID
10
678.733
20
-1792.892
0
VERTEX
8
MID
10
716.312
20
-1806.532
0
VERTEX
8
MID
10
754.667
20
-1817.808
0
VERTEX
8
MID
10
793.65
20
-1826.674
0
VERTEX
8
MID
10
833.108
20
-1833.098
0
VERTEX
8
MID
10
872.89
20
-1837.053
0
VERTEX
8
MID
10
912.841
20
-1838.525
0
VERTEX
8
MID
10
952.806
20
-1837.509
0
VERTEX
8
MID
10
992.63
20
-1834.007
0
VERTEX
8
MID
10
1032.159
20
-1828.033
0
VERTEX
8
MID
10
1071.24
20
-1819.612
0
VERTEX
8
MID
10
1109.721
20
-1808.774
0
VERTEX
8
MID
10
1147.453
20
-1795.563
0
VERTEX
8
MID
10
1184.29
20
-1780.03
0
VERTEX
8
MID
10
1220.089
20
-1762.234
0
VERTEX
8
MID
10
1237.4
20
-1752.24
0
VERTEX
8
MID
10
1254.711
20
-1742.245
0
VERTEX
8
MID
10
1288.022
20
-1720.14
0
VERTEX
8
MID
10
1319.893
20
-1696.006
0
VERTEX
8
MID
10
1350.2
20
-1669.934
0
VERTEX
8
MID
10
1378.826
20
-1642.027
0
VERTEX
8
MID
10
1405.66
20
-1612.393
0
VERTEX
8
MID
10
1430.597
20
-1581.146
0
VERTEX
8
MID
10
1453.542
20
-1548.408
0
VERTEX
8
MID
10
1474.405
20
-1514.306
0
VERTEX
8
MID
10
1493.106
20
-1478.971
0
VERTEX
8
MID
10
1509.571
20
-1442.542
0
VERTEX
8
MID
10
1523.737
20
-1405.158
0
VERTEX
8
MID
10
1535.55
20
-1366.965
0
VERTEX
8
MID
10
1544.963
20
-1328.111
0
VERTEX
8
MID
10
1551.94
20
-1288.746
0
VERTEX
8
MID
10
1556.453
20
-1249.024
0
VERTEX
8
MID
10
1558.486
20
-1209.098
0
VERTEX
8
MID
10
1558.03
20
-1169.122
0
VERTEX
8
MID
10
1555.088
20
-1129.253
0
VERTEX
8
MID
10
1549.67
20
-1089.643
0
VERTEX
8
MID
10
1541.798
20
-1050.448
0
VERTEX
8
MID
10
1531.502
20
-1011.819
0
VERTEX
8
MID
10
1518.822
20
-973.905
0
VERTEX
8
MID
10
1503.807
20
-936.854
0
VERTEX
8
MID
10
1486.516
20
-900.809
0
VERTEX
8
MID
10
1467.015
20
-865.909
0
VERTEX
8
MID
10
1445.38
20
-832.292
0
VERTEX
8
MID
10
1421.695
20
-800.085
0
VERTEX
8
MID
10
1396.051
20
-769.415
0
VERTEX
8
MID
10
1368.549
20
-740.4
0
VERTEX
8
MID
10
1339.295
20
-713.153
0
VERTEX
8
MID
10
1308.401
20
-687.779
0
VERTEX
8
MID
10
1275.988
20
-664.377
0
VERTEX
8
MID
10
1259.085
20
-653.707
0
VERTEX
8
MID
10
616.055
20
-282.453
0
VERTEX
8
MID
10
608.565
20
-278.129
0
VERTEX
8
MID
10
594.158
20
-268.557
0
VERTEX
8
MID
10
580.381
20
-258.099
0
VERTEX
8
MID
10
567.287
20
-246.797
0
VERTEX
8
MID
10
554.929
20
-234.695
0
VERTEX
8
MID
10
543.355
20
-221.841
0
VERTEX
8
MID
10
532.611
20
-208.285
0
VERTEX
8
MID
10
522.739
20
-194.082
0
VERTEX
8
MID
10
513.779
20
-179.286
0
VERTEX
8
MID
10
505.765
20
-163.958
0
VERTEX
8
MID
10
498.73
20
-148.156
0
VERTEX
8
MID
10
492.701
20
-131.944
0
VERTEX
8
MID
10
487.701
20
-115.385
0
VERTEX
8
MID
10
483.751
20
-98.545
0
VERTEX
8
MID
10
480.867
20
-81.49
0
VERTEX
8
MID
10
479.059
20
-64.288
0
VERTEX
8
MID
10
478.334
20
-47.006
0
VERTEX
8
MID
10
478.697
20
-29.713
0
VERTEX
8
MID
10
480.144
20
-12.477
0
VERTEX
8
MID
10
482.671
20
4.635
0
VERTEX
8
MID
10
486.267
20
21.554
0
VERTEX
8
MID
10
490.919
20
38.214
0
VERTEX
8
MID
10
496.607
20
54.549
0
VERTEX
8
MID
10
503.31
20
70.494
0
VERTEX
8
MID
10
511.001
20
85.987
0
VERTEX
8
MID
10
519.649
20
100.967
0
VERTEX
8
MID
10
529.221
20
115.374
0
VERTEX
8
MID
10
539.679
20
129.151
0
VERTEX
8
MID
10
550.981
20
142.245
0
VERTEX
8
MID
10
563.083
20
154.603
0
VERTEX
8
MID
10
575.938
20
166.177
0
VERTEX
8
MID
10
589.493
20
176.921
0
VERTEX
8
MID
10
603.697
20
186.793
0
VERTEX
8
MID
10
618.492
20
195.753
0
VERTEX
8
MID
10
633.82
20
203.767
0
VERTEX
8
MID
10
649.622
20
210.802
0
VERTEX
8
MID
10
665.834
20
216.832
0
VERTEX
8
MID
10
682.393
20
221.831
0
VERTEX
8
MID
10
699.233
20
225.781
0
VERTEX
8
MID
10
716.288
20
228.665
0
VERTEX
8
MID
10
733.49
20
230.473
0
VERTEX
8
MID
10
750.772
20
231.198
0
VERTEX
8
MID
10
768.065
20
230.835
0
VERTEX
8
MID
10
785.302
20
229.388
0
VERTEX
8
MID
10
802.413
20
226.861
0
VERTEX
8
MID
10
819.332
20
223.265
0
VERTEX
8
MID
10
835.992
20
218.614
0
VERTEX
8
MID
10
852.327
20
212.925
0
VERTEX
8
MID
10
868.272
20
206.222
0
VERTEX
8
MID
10
883.765
20
198.531
0
VERTEX
8
MID
10
891.255
20
194.207
0
VERTEX
8
MID
10
1534.285
20
-177.047
0
VERTEX
8
MID
10
1551.977
20
-186.35
0
VERTEX
8
MID
10
1588.451
20
-202.719
0
VERTEX
8
MID
10
1625.872
20
-216.787
0
VERTEX
8
MID
10
1664.096
20
-228.498
0
VERTEX
8
MID
10
1702.975
20
-237.809
0
VERTEX
8
MID
10
1742.357
20
-244.681
0
VERTEX
8
MID
10
1782.091
20
-249.09
0
VERTEX
8
MID
10
1822.023
20
-251.017
0
VERTEX
8
MID
10
1861.997
20
-250.456
0
VERTEX
8
MID
10
1901.859
20
-247.408
0
VERTEX
8
MID
10
1941.453
20
-241.886
0
VERTEX
8
MID
10
1980.628
20
-233.91
0
VERTEX
8
MID
10
2019.23
20
-223.512
0
VERTEX
8
MID
10
2057.11
20
-210.732
0
VERTEX
8
MID
10
2094.121
20
-195.619
0
VERTEX
8
MID
10
2130.121
20
-178.233
0
VERTEX
8
MID
10
2164.968
20
-158.64
0
VERTEX
8
MID
10
2198.529
20
-136.916
0
VERTEX
8
MID
10
2230.673
20
-113.146
0
VERTEX
8
MID
10
2261.275
20
-87.422
0
VERTEX
8
MID
10
2290.217
20
-59.843
0
VERTEX
8
MID
10
2317.387
20
-30.516
0
VERTEX
8
MID
10
2342.679
20
0.444
0
VERTEX
8
MID
10
2365.996
20
32.918
0
VERTEX
8
MID
10
2387.246
20
66.781
0
VERTEX
8
MID
10
2406.348
20
101.9
0
VERTEX
8
MID
10
2423.227
20
138.14
0
VERTEX
8
MID
10
2437.819
20
175.36
0
VERTEX
8
MID
10
2450.066
20
213.415
0
VERTEX
8
MID
10
2459.921
20
252.16
0
VERTEX
8
MID
10
2467.346
20
291.442
0
VERTEX
8
MID
10
2472.312
20
331.11
0
VERTEX
8
MID
10
2474.8
20
371.011
0
VERTEX
8
MID
10
2474.8
20
410.989
0
VERTEX
8
MID
10
2472.312
20
450.89
0
VERTEX
8
MID
10
2467.346
20
490.558
0
VERTEX
8
MID
10
2459.921
20
529.84
0
VERTEX
8
MID
10
2450.066
20
568.585
0
VERTEX
8
MID
10
2437.819
20
606.64
0
VERTEX
8
MID
10
2423.227
20
643.86
0
VERTEX
8
MID
10
2406.348
20
680.1
0
VERTEX
8
MID
10
2387.246
20
715.219
0
VERTEX
8
MID
10
2365.996
20
749.082
0
VERTEX
8
MID
10
2342.679
20
781.556
0
VERTEX
8
MID
10
2317.387
20
812.516
0
VERTEX
8
MID
10
2290.217
20
841.843
0
VERTEX
8
MID
10
2261.275
20
869.422
0
VERTEX
8
MID
10
2230.673
20
895.146
0
VERTEX
8
MID
10
2198.529
20
918.916
0
VERTEX
8
MID
10
2164.968
20
940.64
0
VERTEX
8
MID
10
2130.121
20
960.233
0
VERTEX
8
MID
10
2094.121
20
977.619
0
VERTEX
8
MID
10
2057.11
20
992.732
0
VERTEX
8
MID
10
2019.23
20
1005.512
0
VERTEX
8
MID
10
1980.628
20
1015.91
0
VERTEX
8
MID
10
1941.453
20
1023.886
0
VERTEX
8
MID
10
1901.859
20
1029.408
0
VERTEX
8
MID
10
1861.997
20
1032.456
0
VERTEX
8
MID
10
1822.023
20
1033.017
0
VERTEX
8
MID
10
1782.091
20
1031.09
0
VERTEX
8
MID
10
1742.357
20
1026.681
0
VERTEX
8
MID
10
1702.975
20
1019.809
0
VERTEX
8
MID
10
1664.096
20
1010.498
0
VERTEX
8
MID
10
1625.872
20
998.787
0
VERTEX
8
MID
10
1588.451
20
984.719
0
VERTEX
8
MID
10
1551.977
20
968.35
0
VERTEX
8
MID
10
1534.285
20
959.047
0
VERTEX
8
MID
10
891.255
20
587.793
0
VERTEX
8
MID
10
883.765
20
583.469
0
VERTEX
8
MID
10
868.272
20
575.778
0
VERTEX
8
MID
10
852.327
20
569.075
0
VERTEX
8
MID
10
835.992
20
563.386
0
VERTEX
8
MID
10
819.332
20
558.735
0
VERTEX
8
MID
10
802.413
20
555.139
0
VERTEX
8
MID
10
785.302
20
552.612
0
VERTEX
8
MID
10
768.065
20
551.165
0
VERTEX
8
MID
10
750.772
20
550.802
0
VERTEX
8
MID
10
733.49
20
551.527
0
VERTEX
8
MID
10
716.288
20
553.335
0
VERTEX
8
MID
10
699.233
20
556.219
0
VERTEX
8
MID
10
682.393
20
560.169
0
VERTEX
8
MID
10
665.834
20
565.168
0
VERTEX
8
MID
10
649.622
20
571.198
0
VERTEX
8
MID
10
633.82
20
578.233
0
VERTEX
8
MID
10
618.492
20
586.247
0
VERTEX
8
MID
10
603.697
20
595.207
0
VERTEX
8
MID
10
589.493
20
605.079
0
VERTEX
8
MID
10
575.938
20
615.823
0
VERTEX
8
MID
10
563.083
20
627.397
0
VERTEX
8
MID
10
550.981
20
639.755
0
VERTEX
8
MID
10
539.679
20
652.849
0
VERTEX
8
MID
10
529.221
20
666.626
0
VERTEX
8
MID
10
519.649
20
681.033
0
VERTEX
8
MID
10
511.001
20
696.013
0
VERTEX
8
MID
10
503.31
20
711.506
0
VERTEX
8
MID
10
496.607
20
727.451
0
VERTEX
8
MID
10
490.919
20
743.786
0
VERTEX
8
MID
10
486.267
20
760.446
0
VERTEX
8
MID
10
482.671
20
777.365
0
VERTEX
8
MID
10
480.144
20
794.477
0
VERTEX
8
MID
10
478.697
20
811.713
0
VERTEX
8
MID
10
478.334
20
829.006
0
VERTEX
8
MID
10
479.059
20
846.288
0
VERTEX
8
MID
10
480.867
20
863.49
0
VERTEX
8
MID
10
483.751
20
880.545
0
VERTEX
8
MID
10
487.701
20
897.385
0
VERTEX
8
MID
10
492.701
20
913.944
0
VERTEX
8
MID
10
498.73
20
930.156
0
VERTEX
8
MID
10
505.765
20
945.958
0
VERTEX
8
MID
10
513.779
20
961.286
0
VERTEX
8
MID
10
522.739
20
976.082
0
VERTEX
8
MID
10
532.611
20
990.285
0
VERTEX
8
MID
10
543.355
20
1003.841
0
VERTEX
8
MID
10
554.929
20
1016.695
0
VERTEX
8
MID
10
567.287
20
1028.797
0
VERTEX
8
MID
10
580.381
20
1040.099
0
VERTEX
8
MID
10
594.158
20
1050.557
0
VERTEX
8
MID
10
608.565
20
1060.129
0
VERTEX
8
MID
10
616.055
20
1064.453
0
VERTEX
8
MID
10
1259.085
20
1435.707
0
VERTEX
8
MID
10
1275.988
20
1446.377
0
VERTEX
8
MID
10
1308.401
20
1469.779
0
VERTEX
8
MID
10
1339.295
20
1495.153
0
VERTEX
8
MID
10
1368.549
20
1522.4
0
VERTEX
8
MID
10
1396.051
20
1551.415
0
VERTEX
8
MID
10
1421.695
20
1582.085
0
VERTEX
8
MID
10
1445.38
20
1614.292
0
VERTEX
8
MID
10
1467.015
20
1647.909
0
VERTEX
8
MID
10
1486.516
20
1682.809
0
VERTEX
8
MID
10
1503.807
20
1718.854
0
VERTEX
8
MID
10
1518.822
20
1755.905
0
VERTEX
8
MID
10
1531.502
20
1793.819
0
VERTEX
8
MID
10
1541.798
20
1832.448
0
VERTEX
8
MID
10
1549.67
20
1871.643
0
VERTEX
8
MID
10
1555.088
20
1911.253
0
VERTEX
8
MID
10
1558.03
20
1951.122
0
VERTEX
8
MID
10
1558.486
20
1991.098
0
VERTEX
8
MID
10
1556.453
20
2031.024
0
VERTEX
8
MID
10
1551.94
20
2070.746
0
VERTEX
8
MID
10
1544.963
20
2110.111
0
VERTEX
8
MID
10
1535.55
20
2148.965
0
VERTEX
8
MID
10
1523.737
20
2187.158
0
VERTEX
8
MID
10
1509.571
20
2224.542
0
VERTEX
8
MID
10
1493.106
20
2260.971
0
VERTEX
8
MID
10
1474.405
20
2296.306
0
VERTEX
8
MID
10
1453.542
20
2330.408
0
VERTEX
8
MID
10
1430.597
20
2363.146
0
VERTEX
8
MID
10
1405.66
20
2394.393
0
VERTEX
8
MID
10
1378.826
20
2424.027
0
VERTEX
8
MID
10
1350.2
20
2451.934
0
VERTEX
8
MID
10
1319.893
20
2478.006
0
VERTEX
8
MID
10
1288.022
20
2502.14
0
VERTEX
8
MID
10
1254.711
20
2524.245
0
VERTEX
8
MID
10
1237.4
20
2534.24
0
VERTEX
8
MID
10
1220.089
20
2544.234
0
VERTEX
8
MID
10
1184.29
20
2562.03
0
VERTEX
8
MID
10
1147.453
20
2577.563
0
VERTEX
8
MID
10
1109.721
20
2590.774
0
VERTEX
8
MID
10
1071.24
20
2601.612
0
VERTEX
8
MID
10
1032.159
20
2610.033
0
VERTEX
8
MID
10
992.63
20
2616.007
0
VERTEX
8
MID
10
952.806
20
2619.509
0
VERTEX
8
MID
10
912.841
20
2620.525
0
VERTEX
8
MID
10
754.688
20
2620.525
0
VERTEX
8
MID
10
789.645
20
2628.484
0
VERTEX
8
MID
10
830.357
20
2635.12
0
VERTEX
8
MID
10
871.402
20
2639.209
0
VERTEX
8
MID
10
912.622
20
2640.734
0
VERTEX
8
MID
10
953.857
20
2639.691
0
VERTEX
8
MID
10
994.948
20
2636.084
0
VERTEX
8
MID
10
1035.734
20
2629.925
0
VERTEX
8
MID
10
1076.057
20
2621.239
0
VERTEX
8
MID
10
1115.762
20
2610.06
0
VERTEX
8
MID
10
1154.694
20
2596.432
0
VERTEX
8
MID
10
1192.702
20
2580.406
0
VERTEX
8
MID
10
1229.639
20
2562.045
0
VERTEX
8
MID
10
1265.361
20
2541.421
0
VERTEX
8
MID
10
1299.73
20
2518.613
0
VERTEX
8
MID
10
1332.613
20
2493.71
0
VERTEX
8
MID
10
1363.882
20
2466.809
0
VERTEX
8
MID
10
1393.415
20
2438.013
0
VERTEX
8
MID
10
1421.099
20
2407.434
0
VERTEX
8
MID
10
1446.826
20
2375.192
0
VERTEX
8
MID
10
1470.495
20
2341.41
0
VERTEX
8
MID
10
1492.016
20
2306.221
0
VERTEX
8
MID
10
1511.305
20
2269.76
0
VERTEX
8
MID
10
1528.286
20
2232.17
0
VERTEX
8
MID
10
1542.895
20
2193.595
0
VERTEX
8
MID
10
1555.075
20
2154.186
0
VERTEX
8
MID
10
1564.777
20
2114.094
0
VERTEX
8
MID
10
1571.965
20
2073.477
0
VERTEX
8
MID
10
1576.611
20
2032.491
0
VERTEX
8
MID
10
1578.696
20
1991.295
0
VERTEX
8
MID
10
1578.213
20
1950.05
0
VERTEX
8
MID
10
1575.164
20
1908.914
0
VERTEX
8
MID
10
1569.559
20
1868.048
0
VERTEX
8
MID
10
1561.422
20
1827.61
0
VERTEX
8
MID
10
1550.783
20
1787.758
0
VERTEX
8
MID
10
1537.685
20
1748.644
0
VERTEX
8
MID
10
1522.177
20
1710.422
0
VERTEX
8
MID
10
1504.319
20
1673.239
0
VERTEX
8
MID
10
1484.182
20
1637.24
0
VERTEX
8
MID
10
1461.843
20
1602.565
0
VERTEX
8
MID
10
1437.389
20
1569.347
0
VERTEX
8
MID
10
1410.914
20
1537.716
0
VERTEX
8
MID
10
1382.522
20
1507.794
0
VERTEX
8
MID
10
1352.322
20
1479.698
0
VERTEX
8
MID
10
1320.432
20
1453.536
0
VERTEX
8
MID
10
1286.975
20
1429.409
0
VERTEX
8
MID
10
1269.528
20
1418.411
0
VERTEX
8
MID
10
626.155
20
1046.96
0
VERTEX
8
MID
10
619.215
20
1042.953
0
VERTEX
8
MID
10
605.866
20
1034.083
0
VERTEX
8
MID
10
593.099
20
1024.393
0
VERTEX
8
MID
10
580.967
20
1013.92
0
VERTEX
8
MID
10
569.515
20
1002.707
0
VERTEX
8
MID
10
558.791
20
990.796
0
VERTEX
8
MID
10
548.836
20
978.235
0
VERTEX
8
MID
10
539.689
20
965.075
0
VERTEX
8
MID
10
531.386
20
951.365
0
VERTEX
8
MID
10
523.961
20
937.162
0
VERTEX
8
MID
10
517.442
20
922.52
0
VERTEX
8
MID
10
511.855
20
907.498
0
VERTEX
8
MID
10
507.223
20
892.154
0
VERTEX
8
MID
10
503.563
20
876.551
0
VERTEX
8
MID
10
500.89
20
860.748
0
VERTEX
8
MID
10
499.214
20
844.808
0
VERTEX
8
MID
10
498.543
20
828.795
0
VERTEX
8
MID
10
498.879
20
812.771
0
VERTEX
8
MID
10
500.22
20
796.8
0
VERTEX
8
MID
10
502.561
20
780.944
0
VERTEX
8
MID
10
505.894
20
765.267
0
VERTEX
8
MID
10
510.204
20
749.83
0
VERTEX
8
MID
10
515.475
20
734.694
0
VERTEX
8
MID
10
521.686
20
719.919
0
VERTEX
8
MID
10
528.812
20
705.563
0
VERTEX
8
MID
10
536.826
20
691.683
0
VERTEX
8
MID
10
545.695
20
678.333
0
VERTEX
8
MID
10
555.385
20
665.567
0
VERTEX
8
MID
10
565.858
20
653.434
0
VERTEX
8
MID
10
577.072
20
641.983
0
VERTEX
8
MID
10
588.982
20
631.259
0
VERTEX
8
MID
10
601.543
20
621.304
0
VERTEX
8
MID
10
614.704
20
612.156
0
VERTEX
8
MID
10
628.413
20
603.854
0
VERTEX
8
MID
10
642.616
20
596.428
0
VERTEX
8
MID
10
657.258
20
589.909
0
VERTEX
8
MID
10
672.28
20
584.323
0
VERTEX
8
MID
10
687.624
20
579.69
0
VERTEX
8
MID
10
703.228
20
576.03
0
VERTEX
8
MID
10
719.031
20
573.358
0
VERTEX
8
MID
10
734.97
20
571.682
0
VERTEX
8
MID
10
750.984
20
571.011
0
VERTEX
8
MID
10
767.007
20
571.347
0
VERTEX
8
MID
10
782.979
20
572.688
0
VERTEX
8
MID
10
798.834
20
575.029
0
VERTEX
8
MID
10
814.511
20
578.362
0
VERTEX
8
MID
10
829.948
20
582.672
0
VERTEX
8
MID
10
845.084
20
587.942
0
VERTEX
8
MID
10
859.859
20
594.153
0
VERTEX
8
MID
10
874.215
20
601.28
0
VERTEX
8
MID
10
881.155
20
605.287
0
VERTEX
8
MID
10
1524.528
20
976.738
0
VERTEX
8
MID
10
1542.776
20
986.348
0
VERTEX
8
MID
10
1580.399
20
1003.26
0
VERTEX
8
MID
10
1619.001
20
1017.796
0
VERTEX
8
MID
10
1658.433
20
1029.902
0
VERTEX
8
MID
10
1698.542
20
1039.529
0
VERTEX
8
MID
10
1739.173
20
1046.642
0
VERTEX
8
MID
10
1780.167
20
1051.211
0
VERTEX
8
MID
10
1821.367
20
1053.219
0
VERTEX
8
MID
10
1862.612
20
1052.659
0
VERTEX
8
MID
10
1903.741
20
1049.532
0
VERTEX
8
MID
10
1944.597
20
1043.852
0
VERTEX
8
MID
10
1985.019
20
1035.639
0
VERTEX
8
MID
10
2024.852
20
1024.926
0
VERTEX
8
MID
10
2063.941
20
1011.754
0
VERTEX
8
MID
10
2102.134
20
996.175
0
VERTEX
8
MID
10
2139.283
20
978.248
0
VERTEX
8
MID
10
2175.245
20
958.043
0
VERTEX
8
MID
10
2209.878
20
935.639
0
VERTEX
8
MID
10
2243.05
20
911.123
0
VERTEX
8
MID
10
2274.632
20
884.589
0
VERTEX
8
MID
10
2304.501
20
856.141
0
VERTEX
8
MID
10
2332.541
20
825.889
0
VERTEX
8
MID
10
2358.643
20
793.95
0
VERTEX
8
MID
10
2382.707
20
760.448
0
VERTEX
8
MID
10
2404.638
20
725.513
0
VERTEX
8
MID
10
2424.353
20
689.281
0
VERTEX
8
MID
10
2441.773
20
651.892
0
VERTEX
8
MID
10
2456.833
20
613.491
0
VERTEX
8
MID
10
2469.473
20
574.227
0
VERTEX
8
MID
10
2479.644
20
534.252
0
VERTEX
8
MID
10
2487.307
20
493.721
0
VERTEX
8
MID
10
2492.432
20
452.793
0
VERTEX
8
MID
10
2495
20
411.624
0
VERTEX
8
MID
10
2495
20
370.376
0
VERTEX
8
MID
10
2492.432
20
329.207
0
VERTEX
8
MID
10
2487.307
20
288.279
0
VERTEX
8
MID
10
2479.644
20
247.748
0
VERTEX
8
MID
10
2469.473
20
207.773
0
VERTEX
8
MID
10
2456.833
20
168.509
0
VERTEX
8
MID
10
2441.773
20
130.108
0
VERTEX
8
MID
10
2424.353
20
92.719
0
VERTEX
8
MID
10
2404.638
20
56.487
0
VERTEX
8
MID
10
2382.707
20
21.552
0
VERTEX
8
MID
10
2358.643
20
-11.95
0
VERTEX
8
MID
10
2332.541
20
-43.889
0
VERTEX
8
MID
10
2304.501
20
-74.141
0
VERTEX
8
MID
10
2274.632
20
-102.589
0
VERTEX
8
MID
10
2243.05
20
-129.123
0
VERTEX
8
MID
10
2209.878
20
-153.639
0
VERTEX
8
MID
10
2175.245
20
-176.043
0
VERTEX
8
MID
10
2139.283
20
-196.248
0
VERTEX
8
MID
10
2102.134
20
-214.175
0
VERTEX
8
MID
10
2063.941
20
-229.754
0
VERTEX
8
MID
10
2024.852
20
-242.926
0
VERTEX
8
MID
10
1985.019
20
-253.639
0
VERTEX
8
MID
10
1944.597
20
-261.852
0
VERTEX
8
MID
10
1903.741
20
-267.532
0
VERTEX
8
MID
10
1862.612
20
-270.659
0
VERTEX
8
MID
10
1821.367
20
-271.219
0
VERTEX
8
MID
10
1780.167
20
-269.211
0
VERTEX
8
MID
10
1739.173
20
-264.642
0
VERTEX
8
MID
10
1698.542
20
-257.529
0
VERTEX
8
MID
10
1658.433
20
-247.902
0
VERTEX
8
MID
10
1619.001
20
-235.796
0
VERTEX
8
MID
10
1580.399
20
-221.26
0
VERTEX
8
MID
10
1542.776
20
-204.348
0
VERTEX
8
MID
10
1524.528
20
-194.738
0
VERTEX
8
MID
10
881.155
20
176.713
0
VERTEX
8
MID
10
874.215
20
180.72
0
VERTEX
8
MID
10
859.859
20
187.847
0
VERTEX
8
MID
10
845.084
20
194.058
0
VERTEX
8
MID
10
829.948
20
199.328
0
VERTEX
8
MID
10
814.511
20
203.638
0
VERTEX
8
MID
10
798.834
20
206.971
0
VERTEX
8
MID
10
782.979
20
209.312
0
VERTEX
8
MID
10
767.007
20
210.653
0
VERTEX
8
MID
10
750.984
20
210.989
0
VERTEX
8
MID
10
734.97
20
210.318
0
VERTEX
8
MID
10
719.031
20
208.642
0
VERTEX
8
MID
10
703.228
20
205.97
0
VERTEX
8
MID
10
687.624
20
202.31
0
VERTEX
8
MID
10
672.28
20
197.677
0
VERTEX
8
MID
10
657.258
20
192.091
0
VERTEX
8
MID
10
642.616
20
185.572
0
VERTEX
8
MID
10
628.413
20
178.146
0
VERTEX
8
MID
10
614.704
20
169.844
0
VERTEX
8
MID
10
601.543
20
160.696
0
VERTEX
8
MID
10
588.982
20
150.741
0
VERTEX
8
MID
10
577.072
20
140.017
0
VERTEX
8
MID
10
565.858
20
128.566
0
VERTEX
8
MID
10
555.385
20
116.433
0
VERTEX
8
MID
10
545.695
20
103.667
0
VERTEX
8
MID
10
536.826
20
90.317
0
VERTEX
8
MID
10
528.812
20
76.437
0
VERTEX
8
MID
10
521.686
20
62.081
0
VERTEX
8
MID
10
515.475
20
47.306
0
VERTEX
8
MID
10
510.204
20
32.17
0
VERTEX
8
MID
10
505.894
20
16.733
0
VERTEX
8
MID
10
502.561
20
1.056
0
VERTEX
8
MID
10
500.22
20
-14.8
0
VERTEX
8
MID
10
498.879
20
-30.771
0
VERTEX
8
MID
10
498.543
20
-46.795
0
VERTEX
8
MID
10
499.214
20
-62.808
0
VERTEX
8
MID
10
500.89
20
-78.748
0
VERTEX
8
MID
10
503.563
20
-94.551
0
VERTEX
8
MID
10
507.223
20
-110.154
0
VERTEX
8
MID
10
511.855
20
-125.498
0
VERTEX
8
MID
10
517.442
20
-140.52
0
VERTEX
8
MID
10
523.961
20
-155.162
0
VERTEX
8
MID
10
531.386
20
-169.365
0
VERTEX
8
MID
10
539.689
20
-183.075
0
VERTEX
8
MID
10
548.836
20
-196.235
0
VERTEX
8
MID
10
558.791
20
-208.796
0
VERTEX
8
MID
10
569.515
20
-220.707
0
VERTEX
8
MID
10
580.967
20
-231.92
0
VERTEX
8
MID
10
593.099
20
-242.393
0
VERTEX
8
MID
10
605.866
20
-252.083
0
VERTEX
8
MID
10
619.215
20
-260.953
0
VERTEX
8
MID
10
626.155
20
-264.96
0
VERTEX
8
MID
10
1269.528
20
-636.411
0
VERTEX
8
MID
10
1286.975
20
-647.409
0
VERTEX
8
MID
10
1320.432
20
-671.536
0
VERTEX
8
MID
10
1352.322
20
-697.698
0
VERTEX
8
MID
10
1382.522
20
-725.794
0
VERTEX
8
MID
10
1410.914
20
-755.716
0
VERTEX
8
MID
10
1437.389
20
-787.347
0
VERTEX
8
MID
10
1461.843
20
-820.565
0
VERTEX
8
MID
10
1484.182
20
-855.24
0
VERTEX
8
MID
10
1504.319
20
-891.239
0
VERTEX
8
MID
10
1522.177
20
-928.422
0
VERTEX
8
MID
10
1537.685
20
-966.644
0
VERTEX
8
MID
10
1550.783
20
-1005.758
0
VERTEX
8
MID
10
1561.422
20
-1045.61
0
VERTEX
8
MID
10
1569.559
20
-1086.048
0
VERTEX
8
MID
10
1575.164
20
-1126.914
0
VERTEX
8
MID
10
1578.213
20
-1168.05
0
VERTEX
8
MID
10
1578.696
20
-1209.295
0
VERTEX
8
MID
10
1576.611
20
-1250.491
0
VERTEX
8
MID
10
1571.965
20
-1291.477
0
VERTEX
8
MID
10
1564.777
20
-1332.094
0
VERTEX
8
MID
10
1555.075
20
-1372.186
0
VERTEX
8
MID
10
1542.895
20
-1411.595
0
VERTEX
8
MID
10
1528.286
20
-1450.17
0
VERTEX
8
MID
10
1511.305
20
-1487.76
0
VERTEX
8
MID
10
1492.016
20
-1524.221
0
VERTEX
8
MID
10
1470.495
20
-1559.41
0
VERTEX
8
MID
10
1446.826
20
-1593.192
0
VERTEX
8
MID
10
1421.099
20
-1625.434
0
VERTEX
8
MID
10
1393.415
20
-1656.013
0
VERTEX
8
MID
10
1363.882
20
-1684.809
0
VERTEX
8
MID
10
1332.613
20
-1711.71
0
VERTEX
8
MID
10
1299.73
20
-1736.613
0
VERTEX
8
MID
10
1265.361
20
-1759.421
0
VERTEX
8
MID
10
1229.639
20
-1780.045
0
VERTEX
8
MID
10
1192.702
20
-1798.406
0
VERTEX
8
MID
10
1154.694
20
-1814.432
0
VERTEX
8
MID
10
1115.762
20
-1828.06
0
VERTEX
8
MID
10
1076.057
20
-1839.239
0
VERTEX
8
MID
10
1035.734
20
-1847.925
0
VERTEX
8
MID
10
994.948
20
-1854.084
0
VERTEX
8
MID
10
953.857
20
-1857.691
0
VERTEX
8
MID
10
912.622
20
-1858.734
0
VERTEX
8
MID
10
871.402
20
-1857.209
0
VERTEX
8
MID
10
830.357
20
-1853.12
0
VERTEX
8
MID
10
789.645
20
-1846.484
0
VERTEX
8
MID
10
749.426
20
-1837.327
0
VERTEX
8
MID
10
709.855
20
-1825.684
0
VERTEX
8
MID
10
671.085
20
-1811.6
0
VERTEX
8
MID
10
633.268
20
-1795.131
0
VERTEX
8
MID
10
596.548
20
-1776.339
0
VERTEX
8
MID
10
561.07
20
-1755.298
0
VERTEX
8
MID
10
526.971
20
-1732.089
0
VERTEX
8
MID
10
494.382
20
-1706.802
0
VERTEX
8
MID
10
463.43
20
-1679.536
0
VERTEX
8
MID
10
434.236
20
-1650.397
0
VERTEX
8
MID
10
406.912
20
-1619.496
0
VERTEX
8
MID
10
381.565
20
-1586.955
0
VERTEX
8
MID
10
358.292
20
-1552.898
0
VERTEX
8
MID
10
337.185
20
-1517.459
0
VERTEX
8
MID
10
318.324
20
-1480.775
0
VERTEX
8
MID
10
301.784
20
-1442.989
0
VERTEX
8
MID
10
287.628
20
-1404.245
0
VERTEX
8
MID
10
275.911
20
-1364.696
0
VERTEX
8
MID
10
266.679
20
-1324.494
0
VERTEX
8
MID
10
259.967
20
-1283.795
0
VERTEX
8
MID
10
255.801
20
-1242.758
0
VERTEX
8
MID
10
255
20
-1222.149
0
VERTEX
8
MID
10
255
20
-471.232
0
VERTEX
8
MID
10
253.994
20
-455.237
0
VERTEX
8
MID
10
251.985
20
-439.336
0
VERTEX
8
MID
10
248.982
20
-423.592
0
VERTEX
8
MID
10
244.996
20
-408.068
0
VERTEX
8
MID
10
240.043
20
-392.825
0
VERTEX
8
MID
10
234.143
20
-377.923
0
VERTEX
8
MID
10
227.319
20
-363.421
0
VERTEX
8
MID
10
219.598
20
-349.376
0
VERTEX
8
MID
10
211.01
20
-335.844
0
VERTEX
8
MID
10
201.589
20
-322.878
0
VERTEX
8
MID
10
191.373
20
-310.528
0
VERTEX
8
MID
10
180.401
20
-298.845
0
VERTEX
8
MID
10
168.718
20
-287.873
0
VERTEX
8
MID
10
156.368
20
-277.657
0
VERTEX
8
MID
10
143.402
20
-268.236
0
VERTEX
8
MID
10
129.87
20
-259.648
0
VERTEX
8
MID
10
115.825
20
-251.927
0
VERTEX
8
MID
10
101.323
20
-245.103
0
VERTEX
8
MID
10
86.421
20
-239.203
0
VERTEX
8
MID
10
71.178
20
-234.25
0
VERTEX
8
MID
10
55.654
20
-230.264
0
VERTEX
8
MID
10
39.91
20
-227.261
0
VERTEX
8
MID
10
24.009
20
-225.252
0
VERTEX
8
MID
10
8.014
20
-224.246
0
VERTEX
8
MID
10
-8.014
20
-224.246
0
VERTEX
8
MID
10
-24.009
20
-225.252
0
VERTEX
8
MID
10
-39.91
20
-227.261
0
VERTEX
8
MID
10
-55.654
20
-230.264
0
VERTEX
8
MID
10
-71.178
20
-234.25
0
VERTEX
8
MID
10
-86.421
20
-239.203
0
VERTEX
8
MID
10
-101.323
20
-245.103
0
VERTEX
8
MID
10
-115.825
20
-251.927
0
VERTEX
8
MID
10
-129.87
20
-259.648
0
VERTEX
8
MID
10
-143.402
20
-268.236
0
VERTEX
8
MID
10
-156.368
20
-277.657
0
VERTEX
8
MID
10
-168.718
20
-287.873
0
VERTEX
8
MID
10
-180.401
20
-298.845
0
VERTEX
8
MID
10
-191.373
20
-310.528
0
VERTEX
8
MID
10
-201.589
20
-322.878
0
VERTEX
8
MID
10
-211.01
20
-335.844
0
VERTEX
8
MID
10
-219.598
20
-349.376
0
VERTEX
8
MID
10
-227.319
20
-363.421
0
VERTEX
8
MID
10
-234.143
20
-377.923
0
VERTEX
8
MID
10
-240.043
20
-392.825
0
VERTEX
8
MID
10
-244.996
20
-408.068
0
VERTEX
8
MID
10
-248.982
20
-423.592
0
VERTEX
8
MID
10
-251.985
20
-439.336
0
VERTEX
8
MID
10
-253.994
20
-455.237
0
VERTEX
8
MID
10
-255
20
-471.232
0
VERTEX
8
MID
10
-255
20
-1222.149
0
VERTEX
8
MID
10
-255.801
20
-1242.758
0
VERTEX
8
MID
10
-259.967
20
-1283.795
0
VERTEX
8
MID
10
-266.679
20
-1324.494
0
VERTEX
8
MID
10
-275.911
20
-1364.696
0
VERTEX
8
MID
10
-287.628
20
-1404.245
0
VERTEX
8
MID
10
-301.784
20
-1442.989
0
VERTEX
8
MID
10
-318.324
20
-1480.775
0
VERTEX
8
MID
10
-337.185
20
-1517.459
0
VERTEX
8
MID
10
-358.292
20
-1552.898
0
VERTEX
8
MID
10
-381.565
20
-1586.955
0
VERTEX
8
MID
10
-406.912
20
-1619.496
0
VERTEX
8
MID
10
-434.236
20
-1650.397
0
VERTEX
8
MID
10
-463.43
20
-1679.536
0
VERTEX
8
MID
10
-494.382
20
-1706.802
0
VERTEX
8
MID
10
-526.971
20
-1732.089
0
VERTEX
8
MID
10
-561.07
20
-1755.298
0
VERTEX
8
MID
10
-596.548
20
-1776.339
0
VERTEX
8
MID
10
-633.268
20
-1795.131
0
VERTEX
8
MID
10
-671.085
20
-1811.6
0
VERTEX
8
MID
10
-709.855
20
-1825.684
0
VERTEX
8
MID
10
-749.426
20
-1837.327
0
VERTEX
8
MID
10
-789.645
20
-1846.484
0
VERTEX
8
MID
10
-830.357
20
-1853.12
0
VERTEX
8
MID
10
-871.402
20
-1857.209
0
SEQEND
0
POLYLINE
8
MID
70
1
40
0
41
0
66
1
0
VERTEX
8
MID
10
-912.292
20
-1888.948
0
VERTEX
8
MID
10
-955.427
20
-1887.866
0
VERTEX
8
MID
10
-998.41
20
-1884.1
0
VERTEX
8
MID
10
-1041.076
20
-1877.664
0
VERTEX
8
MID
10
-1083.258
20
-1868.584
0
VERTEX
8
MID
10
-1124.792
20
-1856.895
0
VERTEX
8
MID
10
-1165.518
20
-1842.641
0
VERTEX
8
MID
10
-1205.278
20
-1825.88
0
VERTEX
8
MID
10
-1243.916
20
-1806.674
0
VERTEX
8
MID
10
-1281.284
20
-1785.1
0
VERTEX
8
MID
10
-1317.235
20
-1761.241
0
VERTEX
8
MID
10
-1351.631
20
-1735.189
0
VERTEX
8
MID
10
-1384.338
20
-1707.046
0
VERTEX
8
MID
10
-1415.228
20
-1676.921
0
VERTEX
8
MID
10
-1444.183
20
-1644.93
0
VERTEX
8
MID
10
-1471.089
20
-1611.199
0
VERTEX
8
MID
10
-1495.842
20
-1575.857
0
VERTEX
8
MID
10
-1518.347
20
-1539.042
0
VERTEX
8
MID
10
-1538.515
20
-1500.898
0
VERTEX
8
MID
10
-1556.268
20
-1461.571
0
VERTEX
8
MID
10
-1571.538
20
-1421.215
0
VERTEX
8
MID
10
-1584.266
20
-1379.987
0
VERTEX
8
MID
10
-1594.401
20
-1338.046
0
VERTEX
8
MID
10
-1601.905
20
-1295.555
0
VERTEX
8
MID
10
-1606.748
20
-1252.68
0
VERTEX
8
MID
10
-1608.911
20
-1209.586
0
VERTEX
8
MID
10
-1608.387
20
-1166.441
0
VERTEX
8
MID
10
-1605.177
20
-1123.412
0
VERTEX
8
MID
10
-1599.293
20
-1080.667
0
VERTEX
8
MID
10
-1590.759
20
-1038.371
0
VERTEX
8
MID
10
-1579.608
20
-996.689
0
VERTEX
8
MID
10
-1565.882
20
-955.782
0
VERTEX
8
MID
10
-1549.636
20
-915.809
0
VERTEX
8
MID
10
-1530.932
20
-876.926
0
VERTEX
8
MID
10
-1509.843
20
-839.283
0
VERTEX
8
MID
10
-1486.451
20
-803.026
0
VERTEX
8
MID
10
-1460.846
20
-768.296
0
VERTEX
8
MID
10
-1433.128
20
-735.228
0
VERTEX
8
MID
10
-1403.404
20
-703.951
0
VERTEX
8
MID
10
-1371.791
20
-674.585
0
VERTEX
8
MID
10
-1338.41
20
-647.245
0
VERTEX
8
MID
10
-1303.391
20
-622.037
0
VERTEX
8
MID
10
-1285.131
20
-610.547
0
VERTEX
8
MID
10
-641.255
20
-238.806
0
VERTEX
8
MID
10
-635.137
20
-235.273
0
VERTEX
8
MID
10
-623.369
20
-227.454
0
VERTEX
8
MID
10
-612.114
20
-218.912
0
VERTEX
8
MID
10
-601.418
20
-209.679
0
VERTEX
8
MID
10
-591.323
20
-199.794
0
VERTEX
8
MID
10
-581.869
20
-189.294
0
VERTEX
8
MID
10
-573.093
20
-178.221
0
VERTEX
8
MID
10
-565.029
20
-166.618
0
VERTEX
8
MID
10
-557.71
20
-154.533
0
VERTEX
8
MID
10
-551.164
20
-142.011
0
VERTEX
8
MID
10
-545.417
20
-129.104
0
VERTEX
8
MID
10
-540.492
20
-115.86
0
VERTEX
8
MID
10
-536.408
20
-102.334
0
VERTEX
8
MID
10
-533.181
20
-88.578
0
VERTEX
8
MID
10
-530.825
20
-74.647
0
VERTEX
8
MID
10
-529.348
20
-60.595
0
VERTEX
8
MID
10
-528.757
20
-46.478
0
VERTEX
8
MID
10
-529.052
20
-32.352
0
VERTEX
8
MID
10
-530.235
20
-18.272
0
VERTEX
8
MID
10
-532.299
20
-4.295
0
VERTEX
8
MID
10
-535.236
20
9.526
0
VERTEX
8
MID
10
-539.036
20
23.135
0
VERTEX
8
MID
10
-543.683
20
36.478
0
VERTEX
8
MID
10
-549.158
20
49.503
0
VERTEX
8
MID
10
-555.44
20
62.159
0
VERTEX
8
MID
10
-562.505
20
74.395
0
VERTEX
8
MID
10
-570.324
20
86.164
0
VERTEX
8
MID
10
-578.867
20
97.418
0
VERTEX
8
MID
10
-588.099
20
108.114
0
VERTEX
8
MID
10
-597.985
20
118.209
0
VERTEX
8
MID
10
-608.485
20
127.663
0
VERTEX
8
MID
10
-619.558
20
136.439
0
VERTEX
8
MID
10
-631.16
20
144.503
0
VERTEX
8
MID
10
-643.246
20
151.823
0
VERTEX
8
MID
10
-655.767
20
158.369
0
VERTEX
8
MID
10
-668.675
20
164.115
0
VERTEX
8
MID
10
-681.918
20
169.04
0
VERTEX
8
MID
10
-695.444
20
173.124
0
VERTEX
8
MID
10
-709.2
20
176.351
0
VERTEX
8
MID
10
-723.131
20
178.707
0
VERTEX
8
MID
10
-737.183
20
180.184
0
VERTEX
8
MID
10
-751.3
20
180.776
0
VERTEX
8
MID
10
-765.426
20
180.48
0
VERTEX
8
MID
10
-779.506
20
179.297
0
VERTEX
8
MID
10
-793.484
20
177.233
0
VERTEX
8
MID
10
-807.304
20
174.296
0
VERTEX
8
MID
10
-820.913
20
170.496
0
VERTEX
8
MID
10
-834.256
20
165.849
0
VERTEX
8
MID
10
-847.281
20
160.374
0
VERTEX
8
MID
10
-859.937
20
154.092
0
VERTEX
8
MID
10
-866.055
20
150.559
0
VERTEX
8
MID
10
-1509.931
20
-221.182
0
VERTEX
8
MID
10
-1528.863
20
-231.174
0
VERTEX
8
MID
10
-1567.891
20
-248.778
0
VERTEX
8
MID
10
-1607.932
20
-263.938
0
VERTEX
8
MID
10
-1648.833
20
-276.594
0
VERTEX
8
MID
10
-1690.438
20
-286.698
0
VERTEX
8
MID
10
-1732.588
20
-294.213
0
VERTEX
8
MID
10
-1775.122
20
-299.108
0
VERTEX
8
MID
10
-1817.877
20
-301.366
0
VERTEX
8
MID
10
-1860.689
20
-300.977
0
VERTEX
8
MID
10
-1903.396
20
-297.944
0
VERTEX
8
MID
10
-1945.834
20
-292.277
0
VERTEX
8
MID
10
-1987.841
20
-283.999
0
VERTEX
8
MID
10
-2029.255
20
-273.141
0
VERTEX
8
MID
10
-2069.92
20
-259.744
0
VERTEX
8
MID
10
-2109.679
20
-243.86
0
VERTEX
8
MID
10
-2148.381
20
-225.55
0
VERTEX
8
MID
10
-2185.877
20
-204.883
0
VERTEX
8
MID
10
-2222.025
20
-181.939
0
VERTEX
8
MID
10
-2256.685
20
-156.805
0
VERTEX
8
MID
10
-2289.726
20
-129.577
0
VERTEX
8
MID
10
-2321.022
20
-100.359
0
VERTEX
8
MID
10
-2350.452
20
-69.263
0
VERTEX
8
MID
10
-2377.905
20
-36.409
0
VERTEX
8
MID
10
-2403.274
20
-1.92
0
VERTEX
8
MID
10
-2426.465
20
34.07
0
VERTEX
8
MID
10
-2447.386
20
71.425
0
VERTEX
8
MID
10
-2465.96
20
110.001
0
VERTEX
8
MID
10
-2482.114
20
149.651
0
VERTEX
8
MID
10
-2495.788
20
190.223
0
VERTEX
8
MID
10
-2506.928
20
231.563
0
VERTEX
8
MID
10
-2515.492
20
273.512
0
VERTEX
8
MID
10
-2521.448
20
315.91
0
VERTEX
8
MID
10
-2524.772
20
358.595
0
VERTEX
8
MID
10
-2525.113
20
380
0
VERTEX
8
MID
10
-2621.458
20
380
0
VERTEX
8
MID
10
-2970
20
141
0
VERTEX
8
MID
10
-3070
20
141
0
VERTEX
8
MID
10
-3070
20
641
0
VERTEX
8
MID
10
-2970
20
641
0
VERTEX
8
MID
10
-2621.458
20
402
0
VERTEX
8
MID
10
-2525.113
20
402
0
VERTEX
8
MID
10
-2524.772
20
423.405
0
VERTEX
8
MID
10
-2521.448
20
466.09
0
VERTEX
8
MID
10
-2515.492
20
508.488
0
VERTEX
8
MID
10
-2506.928
20
550.437
0
VERTEX
8
MID
10
-2495.788
20
591.777
0
VERTEX
8
MID
10
-2482.114
20
632.349
0
VERTEX
8
MID
10
-2478.589
20
641
0
VERTEX
8
MID
10
-2465.96
20
671.999
0
VERTEX
8
MID
10
-2447.386
20
710.575
0
VERTEX
8
MID
10
-2426.465
20
747.93
0
VERTEX
8
MID
10
-2403.274
20
783.92
0
VERTEX
8
MID
10
-2377.905
20
818.409
0
VERTEX
8
MID
10
-2350.452
20
851.263
0
VERTEX
8
MID
10
-2321.022
20
882.359
0
VERTEX
8
MID
10
-2289.726
20
911.577
0
VERTEX
8
MID
10
-2256.685
20
938.805
0
VERTEX
8
MID
10
-2222.025
20
963.939
0
VERTEX
8
MID
10
-2185.877
20
986.883
0
VERTEX
8
MID
10
-2148.381
20
1007.55
0
VERTEX
8
MID
10
-2109.679
20
1025.86
0
VERTEX
8
MID
10
-2069.92
20
1041.744
0
VERTEX
8
MID
10
-2029.256
20
1055.141
0
VERTEX
8
MID
10
-1987.841
20
1065.999
0
VERTEX
8
MID
10
-1945.834
20
1074.277
0
VERTEX
8
MID
10
-1903.396
20
1079.944
0
VERTEX
8
MID
10
-1860.689
20
1082.977
0
VERTEX
8
MID
10
-1817.877
20
1083.366
0
VERTEX
8
MID
10
-1775.122
20
1081.108
0
VERTEX
8
MID
10
-1732.588
20
1076.213
0
VERTEX
8
MID
10
-1690.438
20
1068.698
0
VERTEX
8
MID
10
-1648.833
20
1058.594
0
VERTEX
8
MID
10
-1607.932
20
1045.938
0
VERTEX
8
MID
10
-1567.891
20
1030.778
0
VERTEX
8
MID
10
-1528.863
20
1013.174
0
VERTEX
8
MID
10
-1509.931
20
1003.182
0
VERTEX
8
MID
10
-882.612
20
641
0
VERTEX
8
MID
10
-866.055
20
631.441
0
VERTEX
8
MID
10
-859.937
20
627.908
0
VERTEX
8
MID
10
-847.281
20
621.626
0
VERTEX
8
MID
10
-834.256
20
616.151
0
VERTEX
8
MID
10
-820.913
20
611.504
0
VERTEX
8
MID
10
-807.304
20
607.704
0
VERTEX
8
MID
10
-793.484
20
604.767
0
VERTEX
8
MID
10
-779.506
20
602.703
0
VERTEX
8
MID
10
-765.426
20
601.52
0
VERTEX
8
MID
10
-751.3
20
601.224
0
VERTEX
8
MID
10
-737.183
20
601.816
0
VERTEX
8
MID
10
-723.131
20
603.293
0
VERTEX
8
MID
10
-709.2
20
605.649
0
VERTEX
8
MID
10
-695.444
20
608.876
0
VERTEX
8
MID
10
-681.918
20
612.96
0
VERTEX
8
MID
10
-668.675
20
617.885
0
VERTEX
8
MID
10
-655.767
20
623.631
0
VERTEX
8
MID
10
-643.246
20
630.177
0
VERTEX
8
MID
10
-631.16
20
637.497
0
VERTEX
8
MID
10
-626.12
20
641
0
VERTEX
8
MID
10
-619.558
20
645.561
0
VERTEX
8
MID
10
-608.485
20
654.337
0
VERTEX
8
MID
10
-597.985
20
663.791
0
VERTEX
8
MID
10
-588.099
20
673.886
0
VERTEX
8
MID
10
-578.867
20
684.582
0
VERTEX
8
MID
10
-570.324
20
695.836
0
VERTEX
8
MID
10
-562.505
20
707.605
0
VERTEX
8
MID
10
-555.44
20
719.841
0
VERTEX
8
MID
10
-549.158
20
732.497
0
VERTEX
8
MID
10
-543.683
20
745.522
0
VERTEX
8
MID
10
-539.036
20
758.865
0
VERTEX
8
MID
10
-535.236
20
772.474
0
VERTEX
8
MID
10
-532.299
20
786.295
0
VERTEX
8
MID
10
-530.235
20
800.272
0
VERTEX
8
MID
10
-529.052
20
814.352
0
VERTEX
8
MID
10
-528.757
20
828.478
0
VERTEX
8
MID
10
-529.348
20
842.595
0
VERTEX
8
MID
10
-530.825
20
856.647
0
VERTEX
8
MID
10
-533.181
20
870.578
0
VERTEX
8
MID
10
-536.408
20
884.334
0
VERTEX
8
MID
10
-540.492
20
897.86
0
VERTEX
8
MID
10
-545.417
20
911.104
0
VERTEX
8
MID
10
-551.164
20
924.011
0
VERTEX
8
MID
10
-557.71
20
936.533
0
VERTEX
8
MID
10
-565.029
20
948.618
0
VERTEX
8
MID
10
-573.093
20
960.221
0
VERTEX
8
MID
10
-581.869
20
971.294
0
VERTEX
8
MID
10
-591.323
20
981.794
0
VERTEX
8
MID
10
-601.418
20
991.679
0
VERTEX
8
MID
10
-612.114
20
1000.912
0
VERTEX
8
MID
10
-623.369
20
1009.454
0
VERTEX
8
MID
10
-635.137
20
1017.273
0
VERTEX
8
MID
10
-641.255
20
1020.806
0
VERTEX
8
MID
10
-1285.131
20
1392.547
0
VERTEX
8
MID
10
-1303.25
20
1403.948
0
VERTEX
8
MID
10
-1338.01
20
1428.944
0
VERTEX
8
MID
10
-1371.159
20
1456.041
0
VERTEX
8
MID
10
-1402.57
20
1485.134
0
VERTEX
8
MID
10
-1432.123
20
1516.113
0
VERTEX
8
MID
10
-1459.706
20
1548.859
0
VERTEX
8
MID
10
-1485.212
20
1583.246
0
VERTEX
8
MID
10
-1508.545
20
1619.144
0
VERTEX
8
MID
10
-1529.615
20
1656.416
0
VERTEX
8
MID
10
-1548.341
20
1694.918
0
VERTEX
8
MID
10
-1564.652
20
1734.503
0
VERTEX
8
MID
10
-1578.487
20
1775.021
0
VERTEX
8
MID
10
-1589.79
20
1816.316
0
VERTEX
8
MID
10
-1598.521
20
1858.231
0
VERTEX
8
MID
10
-1604.645
20
1900.606
0
VERTEX
8
MID
10
-1608.138
20
1943.277
0
VERTEX
8
MID
10
-1608.989
20
1986.083
0
VERTEX
8
MID
10
-1607.192
20
2028.86
0
VERTEX
8
MID
10
-1602.755
20
2071.444
0
VERTEX
8
MID
10
-1595.696
20
2113.673
0
VERTEX
8
MID
10
-1586.04
20
2155.384
0
VERTEX
8
MID
10
-1573.826
20
2196.42
0
VERTEX
8
MID
10
-1559.099
20
2236.622
0
VERTEX
8
MID
10
-1541.916
20
2275.837
0
VERTEX
8
MID
10
-1522.343
20
2313.915
0
VERTEX
8
MID
10
-1500.454
20
2350.711
0
VERTEX
8
MID
10
-1476.333
20
2386.084
0
VERTEX
8
MID
10
-1450.072
20
2419.899
0
VERTEX
8
MID
10
-1421.772
20
2452.027
0
VERTEX
8
MID
10
-1391.541
20
2482.345
0
VERTEX
8
MID
10
-1359.494
20
2510.736
0
VERTEX
8
MID
10
-1325.754
20
2537.093
0
VERTEX
8
MID
10
-1290.449
20
2561.315
0
VERTEX
8
MID
10
-1272.083
20
2572.312
0
VERTEX
8
MID
10
-1319.526
20
2654.487
0
VERTEX
8
MID
10
-1320.255
20
2655.75
0
VERTEX
8
MID
10
-1701.506
20
2838.095
0
VERTEX
8
MID
10
-1751.506
20
2924.698
0
VERTEX
8
MID
10
-1318.494
20
3174.698
0
VERTEX
8
MID
10
-1268.494
20
3088.095
0
VERTEX
8
MID
10
-1301.203
20
2666.75
0
VERTEX
8
MID
10
-1300.474
20
2665.487
0
VERTEX
8
MID
10
-1253.03
20
2583.312
0
VERTEX
8
MID
10
-1234.323
20
2593.719
0
VERTEX
8
MID
10
-1195.694
20
2612.183
0
VERTEX
8
MID
10
-1155.998
20
2628.224
0
VERTEX
8
MID
10
-1115.387
20
2641.782
0
VERTEX
8
MID
10
-1074.016
20
2652.804
0
VERTEX
8
MID
10
-1032.042
20
2661.249
0
VERTEX
8
MID
10
-989.627
20
2667.084
0
VERTEX
8
MID
10
-946.933
20
2670.287
0
VERTEX
8
MID
10
-904.122
20
2670.845
0
VERTEX
8
MID
10
-861.358
20
2668.757
0
VERTEX
8
MID
10
-818.806
20
2664.03
0
VERTEX
8
MID
10
-776.626
20
2656.683
0
VERTEX
8
MID
10
-734.981
20
2646.743
0
VERTEX
8
MID
10
-694.03
20
2634.25
0
VERTEX
8
MID
10
-653.93
20
2619.249
0
VERTEX
8
MID
10
-614.833
20
2601.799
0
VERTEX
8
MID
10
-576.889
20
2581.967
0
VERTEX
8
MID
10
-540.242
20
2559.827
0
VERTEX
8
MID
10
-505.034
20
2535.466
0
VERTEX
8
MID
10
-471.399
20
2508.976
0
VERTEX
8
MID
10
-439.465
20
2480.457
0
VERTEX
8
MID
10
-409.354
20
2450.02
0
VERTEX
8
MID
10
-381.182
20
2417.78
0
VERTEX
8
MID
10
-355.055
20
2383.861
0
VERTEX
8
MID
10
-331.075
20
2348.393
0
VERTEX
8
MID
10
-309.332
20
2311.51
0
VERTEX
8
MID
10
-289.91
20
2273.355
0
VERTEX
8
MID
10
-272.882
20
2234.072
0
VERTEX
8
MID
10
-258.315
20
2193.812
0
VERTEX
8
MID
10
-246.263
20
2152.728
0
VERTEX
8
MID
10
-236.773
20
2110.979
0
VERTEX
8
MID
10
-229.881
20
2068.723
0
VERTEX
8
MID
10
-225.614
20
2026.121
0
VERTEX
8
MID
10
-224.8
20
2004.73
0
VERTEX
8
MID
10
-224.8
20
1254.181
0
VERTEX
8
MID
10
-223.913
20
1240.08
0
VERTEX
8
MID
10
-222.142
20
1226.062
0
VERTEX
8
MID
10
-219.494
20
1212.183
0
VERTEX
8
MID
10
-215.981
20
1198.498
0
VERTEX
8
MID
10
-211.614
20
1185.06
0
VERTEX
8
MID
10
-206.413
20
1171.923
0
VERTEX
8
MID
10
-200.397
20
1159.139
0
VERTEX
8
MID
10
-193.59
20
1146.757
0
VERTEX
8
MID
10
-186.02
20
1134.827
0
VERTEX
8
MID
10
-177.715
20
1123.397
0
VERTEX
8
MID
10
-168.708
20
1112.51
0
VERTEX
8
MID
10
-159.036
20
1102.21
0
VERTEX
8
MID
10
-148.736
20
1092.538
0
VERTEX
8
MID
10
-137.85
20
1083.532
0
VERTEX
8
MID
10
-126.419
20
1075.227
0
VERTEX
8
MID
10
-114.489
20
1067.656
0
VERTEX
8
MID
10
-102.107
20
1060.849
0
VERTEX
8
MID
10
-89.323
20
1054.833
0
VERTEX
8
MID
10
-76.186
20
1049.632
0
VERTEX
8
MID
10
-62.748
20
1045.265
0
VERTEX
8
MID
10
-49.063
20
1041.752
0
VERTEX
8
MID
10
-35.184
20
1039.104
0
VERTEX
8
MID
10
-21.166
20
1037.333
0
VERTEX
8
MID
10
-7.065
20
1036.446
0
VERTEX
8
MID
10
7.065
20
1036.446
0
VERTEX
8
MID
10
21.166
20
1037.333
0
VERTEX
8
MID
10
35.184
20
1039.104
0
VERTEX
8
MID
10
49.063
20
1041.752
0
VERTEX
8
MID
10
62.748
20
1045.265
0
VERTEX
8
MID
10
76.186
20
1049.632
0
VERTEX
8
MID
10
89.323
20
1054.833
0
VERTEX
8
MID
10
102.107
20
1060.849
0
VERTEX
8
MID
10
114.489
20
1067.656
0
VERTEX
8
MID
10
126.419
20
1075.227
0
VERTEX
8
MID
10
137.85
20
1083.532
0
VERTEX
8
MID
10
148.736
20
1092.538
0
VERTEX
8
MID
10
159.036
20
1102.21
0
VERTEX
8
MID
10
168.708
20
1112.51
0
VERTEX
8
MID
10
177.715
20
1123.397
0
VERTEX
8
MID
10
186.02
20
1134.827
0
VERTEX
8
MID
10
193.59
20
1146.757
0
VERTEX
8
MID
10
200.397
20
1159.139
0
VERTEX
8
MID
10
206.413
20
1171.923
0
VERTEX
8
MID
10
211.614
20
1185.06
0
VERTEX
8
MID
10
215.981
20
1198.498
0
VERTEX
8
MID
10
219.494
20
1212.183
0
VERTEX
8
MID
10
222.142
20
1226.062
0
VERTEX
8
MID
10
223.913
20
1240.08
0
VERTEX
8
MID
10
224.8
20
1254.181
0
VERTEX
8
MID
10
224.8
20
2004.73
0
VERTEX
8
MID
10
225.614
20
2026.121
0
VERTEX
8
MID
10
229.881
20
2068.723
0
VERTEX
8
MID
10
236.773
20
2110.979
0
VERTEX
8
MID
10
246.263
20
2152.728
0
VERTEX
8
MID
10
258.315
20
2193.812
0
VERTEX
8
MID
10
272.882
20
2234.072
0
VERTEX
8
MID
10
289.91
20
2273.355
0
VERTEX
8
MID
10
309.332
20
2311.51
0
VERTEX
8
MID
10
331.075
20
2348.393
0
VERTEX
8
MID
10
355.055
20
2383.861
0
VERTEX
8
MID
10
381.182
20
2417.78
0
VERTEX
8
MID
10
409.354
20
2450.02
0
VERTEX
8
MID
10
439.465
20
2480.457
0
VERTEX
8
MID
10
471.399
20
2508.976
0
VERTEX
8
MID
10
505.034
20
2535.466
0
VERTEX
8
MID
10
540.242
20
2559.827
0
VERTEX
8
MID
10
576.889
20
2581.967
0
VERTEX
8
MID
10
614.833
20
2601.799
0
VERTEX
8
MID
10
653.93
20
2619.249
0
VERTEX
8
MID
10
694.03
20
2634.25
0
VERTEX
8
MID
10
734.981
20
2646.743
0
VERTEX
8
MID
10
776.626
20
2656.683
0
VERTEX
8
MID
10
818.806
20
2664.03
0
VERTEX
8
MID
10
861.358
20
2668.757
0
VERTEX
8
MID
10
904.122
20
2670.845
0
VERTEX
8
MID
10
946.933
20
2670.287
0
VERTEX
8
MID
10
989.627
20
2667.084
0
VERTEX
8
MID
10
1032.042
20
2661.249
0
VERTEX
8
MID
10
1074.016
20
2652.804
0
VERTEX
8
MID
10
1115.387
20
2641.782
0
VERTEX
8
MID
10
1155.999
20
2628.224
0
VERTEX
8
MID
10
1195.694
20
2612.183
0
VERTEX
8
MID
10
1234.323
20
2593.719
0
VERTEX
8
MID
10
1253.03
20
2583.312
0
VERTEX
8
MID
10
1300.474
20
2665.487
0
VERTEX
8
MID
10
1301.203
20
2666.75
0
VERTEX
8
MID
10
1271.987
20
3043.095
0
VERTEX
8
MID
10
1346.436
20
3043.095
0
VERTEX
8
MID
10
1305.67
20
2662.487
0
VERTEX
8
MID
10
1248.161
20
2562.878
0
VERTEX
8
MID
10
1230.016
20
2573.174
0
VERTEX
8
MID
10
1192.518
20
2591.477
0
VERTEX
8
MID
10
1153.958
20
2607.418
0
VERTEX
8
MID
10
1114.483
20
2620.937
0
VERTEX
8
MID
10
1074.245
20
2631.981
0
VERTEX
8
MID
10
1033.4
20
2640.507
0
VERTEX
8
MID
10
992.104
20
2646.484
0
VERTEX
8
MID
10
950.517
20
2649.887
0
VERTEX
8
MID
10
908.799
20
2650.704
0
VERTEX
8
MID
10
867.111
20
2648.932
0
VERTEX
8
MID
10
825.613
20
2644.577
0
VERTEX
8
MID
10
802.765
20
2640.734
0
VERTEX
8
MID
10
784.466
20
2637.656
0
VERTEX
8
MID
10
743.826
20
2628.196
0
VERTEX
8
MID
10
703.852
20
2616.233
0
VERTEX
8
MID
10
664.697
20
2601.814
0
VERTEX
8
MID
10
626.512
20
2584.994
0
VERTEX
8
MID
10
589.443
20
2565.837
0
VERTEX
8
MID
10
553.635
20
2544.418
0
VERTEX
8
MID
10
519.224
20
2520.818
0
VERTEX
8
MID
10
486.343
20
2495.13
0
VERTEX
8
MID
10
455.119
20
2467.451
0
VERTEX
8
MID
10
425.672
20
2437.889
0
VERTEX
8
MID
10
398.116
20
2406.557
0
VERTEX
8
MID
10
372.556
20
2373.576
0
VERTEX
8
MID
10
349.092
20
2339.073
0
VERTEX
8
MID
10
327.813
20
2303.181
0
VERTEX
8
MID
10
308.801
20
2266.038
0
VERTEX
8
MID
10
292.13
20
2227.787
0
VERTEX
8
MID
10
277.864
20
2188.576
0
VERTEX
8
MID
10
266.058
20
2148.555
0
VERTEX
8
MID
10
256.757
20
2107.879
0
VERTEX
8
MID
10
249.997
20
2066.705
0
VERTEX
8
MID
10
245.805
20
2025.19
0
VERTEX
8
MID
10
245
20
2004.343
0
VERTEX
8
MID
10
245
20
1253.547
0
VERTEX
8
MID
10
244.033
20
1238.178
0
VERTEX
8
MID
10
242.103
20
1222.901
0
VERTEX
8
MID
10
239.218
20
1207.775
0
VERTEX
8
MID
10
235.388
20
1192.86
0
VERTEX
8
MID
10
230.63
20
1178.214
0
VERTEX
8
MID
10
224.961
20
1163.897
0
VERTEX
8
MID
10
218.404
20
1149.963
0
VERTEX
8
MID
10
210.986
20
1136.469
0
VERTEX
8
MID
10
202.735
20
1123.468
0
VERTEX
8
MID
10
193.684
20
1111.01
0
VERTEX
8
MID
10
183.868
20
1099.145
0
VERTEX
8
MID
10
173.327
20
1087.919
0
VERTEX
8
MID
10
162.101
20
1077.378
0
VERTEX
8
MID
10
150.236
20
1067.563
0
VERTEX
8
MID
10
137.778
20
1058.511
0
VERTEX
8
MID
10
124.777
20
1050.26
0
VERTEX
8
MID
10
111.283
20
1042.842
0
VERTEX
8
MID
10
97.349
20
1036.285
0
VERTEX
8
MID
10
83.032
20
1030.616
0
VERTEX
8
MID
10
68.387
20
1025.858
0
VERTEX
8
MID
10
53.471
20
1022.028
0
VERTEX
8
MID
10
38.345
20
1019.143
0
VERTEX
8
MID
10
23.068
20
1017.213
0
VERTEX
8
MID
10
7.699
20
1016.246
0
VERTEX
8
MID
10
-7.699
20
1016.246
0
VERTEX
8
MID
10
-23.068
20
1017.213
0
VERTEX
8
MID
10
-38.345
20
1019.143
0
VERTEX
8
MID
10
-53.471
20
1022.028
0
VERTEX
8
MID
10
-68.387
20
1025.858
0
VERTEX
8
MID
10
-83.032
20
1030.616
0
VERTEX
8
MID
10
-97.349
20
1036.285
0
VERTEX
8
MID
10
-111.283
20
1042.842
0
VERTEX
8
MID
10
-124.777
20
1050.26
0
VERTEX
8
MID
10
-137.778
20
1058.511
0
VERTEX
8
MID
10
-150.236
20
1067.563
0
VERTEX
8
MID
10
-162.101
20
1077.378
0
VERTEX
8
MID
10
-173.327
20
1087.919
0
VERTEX
8
MID
10
-183.868
20
1099.145
0
VERTEX
8
MID
10
-193.684
20
1111.01
0
VERTEX
8
MID
10
-202.735
20
1123.468
0
VERTEX
8
MID
10
-210.986
20
1136.469
0
VERTEX
8
MID
10
-218.404
20
1149.963
0
VERTEX
8
MID
10
-224.961
20
1163.897
0
VERTEX
8
MID
10
-230.63
20
1178.214
0
VERTEX
8
MID
10
-235.388
20
1192.86
0
VERTEX
8
MID
10
-239.218
20
1207.775
0
VERTEX
8
MID
10
-242.103
20
1222.901
0
VERTEX
8
MID
10
-244.033
20
1238.178
0
VERTEX
8
MID
10
-245
20
1253.547
0
VERTEX
8
MID
10
-245
20
2004.343
0
VERTEX
8
MID
10
-245.805
20
2025.19
0
VERTEX
8
MID
10
-249.997
20
2066.705
0
VERTEX
8
MID
10
-256.757
20
2107.879
0
VERTEX
8
MID
10
-266.058
20
2148.555
0
VERTEX
8
MID
10
-277.864
20
2188.576
0
VERTEX
8
MID
10
-292.13
20
2227.787
0
VERTEX
8
MID
10
-308.801
20
2266.038
0
VERTEX
8
MID
10
-327.813
20
2303.181
0
VERTEX
8
MID
10
-349.092
20
2339.073
0
VERTEX
8
MID
10
-372.556
20
2373.576
0
VERTEX
8
MID
10
-398.116
20
2406.557
0
VERTEX
8
MID
10
-425.672
20
2437.889
0
VERTEX
8
MID
10
-455.119
20
2467.451
0
VERTEX
8
MID
10
-486.343
20
2495.13
0
VERTEX
8
MID
10
-519.224
20
2520.818
0
VERTEX
8
MID
10
-553.635
20
2544.418
0
VERTEX
8
MID
10
-589.443
20
2565.837
0
VERTEX
8
MID
10
-626.512
20
2584.994
0
VERTEX
8
MID
10
-664.697
20
2601.814
0
VERTEX
8
MID
10
-703.852
20
2616.233
0
VERTEX
8
MID
10
-743.826
20
2628.196
0
VERTEX
8
MID
10
-784.466
20
2637.656
0
VERTEX
8
MID
10
-825.613
20
2644.577
0
VERTEX
8
MID
10
-867.111
20
2648.932
0
VERTEX
8
MID
10
-908.799
20
2650.704
0
VERTEX
8
MID
10
-950.517
20
2649.887
0
VERTEX
8
MID
10
-992.104
20
2646.484
0
VERTEX
8
MID
10
-1033.4
20
2640.507
0
VERTEX
8
MID
10
-1074.245
20
2631.981
0
VERTEX
8
MID
10
-1114.483
20
2620.937
0
VERTEX
8
MID
10
-1153.958
20
2607.418
0
VERTEX
8
MID
10
-1192.518
20
2591.477
0
VERTEX
8
MID
10
-1230.016
20
2573.174
0
VERTEX
8
MID
10
-1248.161
20
2562.878
0
VERTEX
8
MID
10
-1305.67
20
2662.487
0
VERTEX
8
MID
10
-1346.436
20
3043.095
0
VERTEX
8
MID
10
-1623.564
20
2883.095
0
VERTEX
8
MID
10
-1314.33
20
2657.487
0
VERTEX
8
MID
10
-1256.821
20
2557.878
0
VERTEX
8
MID
10
-1274.811
20
2547.312
0
VERTEX
8
MID
10
-1309.41
20
2523.99
0
VERTEX
8
MID
10
-1342.496
20
2498.566
0
VERTEX
8
MID
10
-1373.941
20
2471.139
0
VERTEX
8
MID
10
-1403.624
20
2441.814
0
VERTEX
8
MID
10
-1431.431
20
2410.704
0
VERTEX
8
MID
10
-1457.254
20
2377.929
0
VERTEX
8
MID
10
-1480.995
20
2343.616
0
VERTEX
8
MID
10
-1502.562
20
2307.896
0
VERTEX
8
MID
10
-1521.871
20
2270.906
0
VERTEX
8
MID
10
-1538.848
20
2232.791
0
VERTEX
8
MID
10
-1553.428
20
2193.695
0
VERTEX
8
MID
10
-1565.555
20
2153.771
0
VERTEX
8
MID
10
-1575.183
20
2113.171
0
VERTEX
8
MID
10
-1582.273
20
2072.052
0
VERTEX
8
MID
10
-1586.798
20
2030.572
0
VERTEX
8
MID
10
-1588.742
20
1988.891
0
VERTEX
8
MID
10
-1588.097
20
1947.171
0
VERTEX
8
MID
10
-1584.865
20
1905.57
0
VERTEX
8
MID
10
-1579.058
20
1864.25
0
VERTEX
8
MID
10
-1570.7
20
1823.37
0
VERTEX
8
MID
10
-1559.822
20
1783.088
0
VERTEX
8
MID
10
-1546.466
20
1743.557
0
VERTEX
8
MID
10
-1530.683
20
1704.931
0
VERTEX
8
MID
10
-1512.535
20
1667.359
0
VERTEX
8
MID
10
-1492.091
20
1630.985
0
VERTEX
8
MID
10
-1469.43
20
1595.949
0
VERTEX
8
MID
10
-1444.639
20
1562.386
0
VERTEX
8
MID
10
-1417.814
20
1530.425
0
VERTEX
8
MID
10
-1389.058
20
1500.191
0
VERTEX
8
MID
10
-1358.483
20
1471.798
0
VERTEX
8
MID
10
-1326.204
20
1445.356
0
VERTEX
8
MID
10
-1292.348
20
1420.968
0
VERTEX
8
MID
10
-1274.696
20
1409.848
0
VERTEX
8
MID
10
-631.155
20
1038.299
0
VERTEX
8
MID
10
-624.487
20
1034.45
0
VERTEX
8
MID
10
-611.661
20
1025.928
0
VERTEX
8
MID
10
-599.396
20
1016.618
0
VERTEX
8
MID
10
-587.739
20
1006.556
0
VERTEX
8
MID
10
-576.737
20
995.782
0
VERTEX
8
MID
10
-566.433
20
984.338
0
VERTEX
8
MID
10
-556.868
20
972.27
0
VERTEX
8
MID
10
-548.079
20
959.625
0
VERTEX
8
MID
10
-540.102
20
946.454
0
VERTEX
8
MID
10
-532.968
20
932.807
0
VERTEX
8
MID
10
-526.705
20
918.74
0
VERTEX
8
MID
10
-521.337
20
904.307
0
VERTEX
8
MID
10
-516.887
20
889.565
0
VERTEX
8
MID
10
-513.37
20
874.573
0
VERTEX
8
MID
10
-510.802
20
859.39
0
VERTEX
8
MID
10
-509.193
20
844.075
0
VERTEX
8
MID
10
-508.548
20
828.69
0
VERTEX
8
MID
10
-508.87
20
813.294
0
VERTEX
8
MID
10
-510.159
20
797.95
0
VERTEX
8
MID
10
-512.408
20
782.716
0
VERTEX
8
MID
10
-515.61
20
767.653
0
VERTEX
8
MID
10
-519.751
20
752.822
0
VERTEX
8
MID
10
-524.815
20
738.28
0
VERTEX
8
MID
10
-530.782
20
724.084
0
VERTEX
8
MID
10
-537.629
20
710.291
0
VERTEX
8
MID
10
-545.329
20
696.955
0
VERTEX
8
MID
10
-553.85
20
684.129
0
VERTEX
8
MID
10
-563.16
20
671.863
0
VERTEX
8
MID
10
-573.222
20
660.207
0
VERTEX
8
MID
10
-583.996
20
649.204
0
VERTEX
8
MID
10
-595.44
20
638.901
0
VERTEX
8
MID
10
-607.508
20
629.336
0
VERTEX
8
MID
10
-620.153
20
620.547
0
VERTEX
8
MID
10
-633.324
20
612.57
0
VERTEX
8
MID
10
-646.971
20
605.436
0
VERTEX
8
MID
10
-661.039
20
599.173
0
VERTEX
8
MID
10
-675.472
20
593.805
0
VERTEX
8
MID
10
-690.213
20
589.354
0
VERTEX
8
MID
10
-705.205
20
585.838
0
VERTEX
8
MID
10
-720.388
20
583.27
0
VERTEX
8
MID
10
-735.703
20
581.66
0
VERTEX
8
MID
10
-751.088
20
581.016
0
VERTEX
8
MID
10
-766.484
20
581.338
0
VERTEX
8
MID
10
-781.829
20
582.627
0
VERTEX
8
MID
10
-797.062
20
584.876
0
VERTEX
8
MID
10
-812.125
20
588.078
0
VERTEX
8
MID
10
-826.956
20
592.219
0
VERTEX
8
MID
10
-841.499
20
597.283
0
VERTEX
8
MID
10
-855.694
20
603.25
0
VERTEX
8
MID
10
-869.487
20
610.097
0
VERTEX
8
MID
10
-876.155
20
613.947
0
VERTEX
8
MID
10
-1519.696
20
985.495
0
VERTEX
8
MID
10
-1538.152
20
995.222
0
VERTEX
8
MID
10
-1576.201
20
1012.348
0
VERTEX
8
MID
10
-1615.24
20
1027.081
0
VERTEX
8
MID
10
-1655.116
20
1039.365
0
VERTEX
8
MID
10
-1695.679
20
1049.15
0
VERTEX
8
MID
10
-1736.769
20
1056.401
0
VERTEX
8
MID
10
-1778.231
20
1061.089
0
VERTEX
8
MID
10
-1819.904
20
1063.196
0
VERTEX
8
MID
10
-1861.627
20
1062.714
0
VERTEX
8
MID
10
-1903.239
20
1059.645
0
VERTEX
8
MID
10
-1944.582
20
1054
0
VERTEX
8
MID
10
-1985.494
20
1045.801
0
VERTEX
8
MID
10
-2025.819
20
1035.081
0
VERTEX
8
MID
10
-2065.401
20
1021.879
0
VERTEX
8
MID
10
-2104.089
20
1006.248
0
VERTEX
8
MID
10
-2141.732
20
988.247
0
VERTEX
8
MID
10
-2178.186
20
967.945
0
VERTEX
8
MID
10
-2213.31
20
945.422
0
VERTEX
8
MID
10
-2246.97
20
920.763
0
VERTEX
8
MID
10
-2279.035
20
894.063
0
VERTEX
8
MID
10
-2309.382
20
865.426
0
VERTEX
8
MID
10
-2337.894
20
834.961
0
VERTEX
8
MID
10
-2364.462
20
802.786
0
VERTEX
8
MID
10
-2388.982
20
769.025
0
VERTEX
8
MID
10
-2411.361
20
733.809
0
VERTEX
8
MID
10
-2431.512
20
697.272
0
VERTEX
8
MID
10
-2449.358
20
659.555
0
VERTEX
8
MID
10
-2464.83
20
620.803
0
VERTEX
8
MID
10
-2477.869
20
581.167
0
VERTEX
8
MID
10
-2488.423
20
540.798
0
VERTEX
8
MID
10
-2496.453
20
499.852
0
VERTEX
8
MID
10
-2501.928
20
458.487
0
VERTEX
8
MID
10
-2504.826
20
416.862
0
VERTEX
8
MID
10
-2504.981
20
396
0
VERTEX
8
MID
10
-2620
20
396
0
VERTEX
8
MID
10
-2970
20
551
0
VERTEX
8
MID
10
-2970
20
231
0
VERTEX
8
MID
10
-2620
20
386
0
VERTEX
8
MID
10
-2504.981
20
386
0
VERTEX
8
MID
10
-2504.826
20
365.138
0
VERTEX
8
MID
10
-2501.928
20
323.513
0
VERTEX
8
MID
10
-2496.453
20
282.148
0
VERTEX
8
MID
10
-2488.423
20
241.202
0
VERTEX
8
MID
10
-2477.869
20
200.833
0
VERTEX
8
MID
10
-2464.83
20
161.197
0
VERTEX
8
MID
10
-2449.358
20
122.445
0
VERTEX
8
MID
10
-2431.512
20
84.728
0
VERTEX
8
MID
10
-2411.361
20
48.191
0
VERTEX
8
MID
10
-2388.982
20
12.975
0
VERTEX
8
MID
10
-2364.462
20
-20.786
0
VERTEX
8
MID
10
-2337.894
20
-52.961
0
VERTEX
8
MID
10
-2309.382
20
-83.426
0
VERTEX
8
MID
10
-2279.035
20
-112.063
0
VERTEX
8
MID
10
-2246.97
20
-138.763
0
VERTEX
8
MID
10
-2213.31
20
-163.422
0
VERTEX
8
MID
10
-2178.186
20
-185.945
0
VERTEX
8
MID
10
-2141.732
20
-206.247
0
VERTEX
8
MID
10
-2104.089
20
-224.248
0
VERTEX
8
MID
10
-2065.401
20
-239.879
0
VERTEX
8
MID
10
-2025.819
20
-253.081
0
VERTEX
8
MID
10
-1985.494
20
-263.801
0
VERTEX
8
MID
10
-1944.582
20
-272
0
VERTEX
8
MID
10
-1903.239
20
-277.645
0
VERTEX
8
MID
10
-1861.627
20
-280.714
0
VERTEX
8
MID
10
-1819.904
20
-281.196
0
VERTEX
8
MID
10
-1778.231
20
-279.089
0
VERTEX
8
MID
10
-1736.769
20
-274.401
0
VERTEX
8
MID
10
-1695.679
20
-267.15
0
VERTEX
8
MID
10
-1655.116
20
-257.365
0
VERTEX
8
MID
10
-1615.24
20
-245.081
0
VERTEX
8
MID
10
-1576.201
20
-230.348
0
VERTEX
8
MID
10
-1538.152
20
-213.222
0
VERTEX
8
MID
10
-1519.696
20
-203.495
0
VERTEX
8
MID
10
-876.155
20
168.053
0
VERTEX
8
MID
10
-869.487
20
171.903
0
VERTEX
8
MID
10
-855.694
20
178.75
0
VERTEX
8
MID
10
-841.499
20
184.717
0
VERTEX
8
MID
10
-826.956
20
189.781
0
VERTEX
8
MID
10
-812.125
20
193.922
0
VERTEX
8
MID
10
-797.062
20
197.124
0
VERTEX
8
MID
10
-781.829
20
199.373
0
VERTEX
8
MID
10
-766.484
20
200.662
0
VERTEX
8
MID
10
-751.088
20
200.984
0
VERTEX
8
MID
10
-735.703
20
200.34
0
VERTEX
8
MID
10
-720.388
20
198.73
0
VERTEX
8
MID
10
-705.205
20
196.162
0
VERTEX
8
MID
10
-690.213
20
192.646
0
VERTEX
8
MID
10
-675.472
20
188.195
0
VERTEX
8
MID
10
-661.039
20
182.827
0
VERTEX
8
MID
10
-646.971
20
176.564
0
VERTEX
8
MID
10
-633.324
20
169.43
0
VERTEX
8
MID
10
-620.153
20
161.453
0
VERTEX
8
MID
10
-607.508
20
152.664
0
VERTEX
8
MID
10
-595.44
20
143.099
0
VERTEX
8
MID
10
-583.996
20
132.796
0
VERTEX
8
MID
10
-573.222
20
121.793
0
VERTEX
8
MID
10
-563.16
20
110.137
0
VERTEX
8
MID
10
-553.85
20
97.871
0
VERTEX
8
MID
10
-545.329
20
85.045
0
VERTEX
8
MID
10
-537.629
20
71.709
0
VERTEX
8
MID
10
-530.782
20
57.916
0
VERTEX
8
MID
10
-524.815
20
43.72
0
VERTEX
8
MID
10
-519.751
20
29.178
0
VERTEX
8
MID
10
-515.61
20
14.347
0
VERTEX
8
MID
10
-512.408
20
-0.716
0
VERTEX
8
MID
10
-510.159
20
-15.95
0
VERTEX
8
MID
10
-508.87
20
-31.294
0
VERTEX
8
MID
10
-508.548
20
-46.69
0
VERTEX
8
MID
10
-509.193
20
-62.075
0
VERTEX
8
MID
10
-510.802
20
-77.39
0
VERTEX
8
MID
10
-513.37
20
-92.573
0
VERTEX
8
MID
10
-516.887
20
-107.565
0
VERTEX
8
MID
10
-521.337
20
-122.307
0
VERTEX
8
MID
10
-526.705
20
-136.74
0
VERTEX
8
MID
10
-532.968
20
-150.807
0
VERTEX
8
MID
10
-540.102
20
-164.454
0
VERTEX
8
MID
10
-548.079
20
-177.625
0
VERTEX
8
MID
10
-556.868
20
-190.27
0
VERTEX
8
MID
10
-566.433
20
-202.338
0
VERTEX
8
MID
10
-576.737
20
-213.782
0
VERTEX
8
MID
10
-587.739
20
-224.556
0
VERTEX
8
MID
10
-599.396
20
-234.618
0
VERTEX
8
MID
10
-611.661
20
-243.928
0
VERTEX
8
MID
10
-624.487
20
-252.45
0
VERTEX
8
MID
10
-631.155
20
-256.299
0
VERTEX
8
MID
10
-1274.696
20
-627.848
0
VERTEX
8
MID
10
-1292.412
20
-639.009
0
VERTEX
8
MID
10
-1326.386
20
-663.493
0
VERTEX
8
MID
10
-1358.77
20
-690.045
0
VERTEX
8
MID
10
-1389.437
20
-718.562
0
VERTEX
8
MID
10
-1418.27
20
-748.933
0
VERTEX
8
MID
10
-1445.157
20
-781.04
0
VERTEX
8
MID
10
-1469.992
20
-814.758
0
VERTEX
8
MID
10
-1492.68
20
-849.957
0
VERTEX
8
MID
10
-1513.132
20
-886.501
0
VERTEX
8
MID
10
-1531.27
20
-924.247
0
VERTEX
8
MID
10
-1547.022
20
-963.048
0
VERTEX
8
MID
10
-1560.328
20
-1002.756
0
VERTEX
8
MID
10
-1571.137
20
-1043.214
0
VERTEX
8
MID
10
-1579.405
20
-1084.267
0
VERTEX
8
MID
10
-1585.102
20
-1125.755
0
VERTEX
8
MID
10
-1588.204
20
-1167.518
0
VERTEX
8
MID
10
-1588.701
20
-1209.392
0
VERTEX
8
MID
10
-1586.59
20
-1251.217
0
VERTEX
8
MID
10
-1581.879
20
-1292.828
0
VERTEX
8
MID
10
-1574.586
20
-1334.066
0
VERTEX
8
MID
10
-1564.74
20
-1374.769
0
VERTEX
8
MID
10
-1552.38
20
-1414.781
0
VERTEX
8
MID
10
-1537.552
20
-1453.946
0
VERTEX
8
MID
10
-1520.315
20
-1492.111
0
VERTEX
8
MID
10
-1500.735
20
-1529.129
0
VERTEX
8
MID
10
-1478.888
20
-1564.857
0
VERTEX
8
MID
10
-1454.86
20
-1599.155
0
VERTEX
8
MID
10
-1428.742
20
-1631.89
0
VERTEX
8
MID
10
-1400.638
20
-1662.936
0
VERTEX
8
MID
10
-1370.655
20
-1692.172
0
VERTEX
8
MID
10
-1338.91
20
-1719.485
0
VERTEX
8
MID
10
-1305.526
20
-1744.768
0
VERTEX
8
MID
10
-1270.633
20
-1767.924
0
VERTEX
8
MID
10
-1252.5
20
-1778.394
0
VERTEX
8
MID
10
-1234.367
20
-1788.863
0
VERTEX
8
MID
10
-1196.866
20
-1807.503
0
VERTEX
8
MID
10
-1158.278
20
-1823.773
0
VERTEX
8
MID
10
-1118.752
20
-1837.608
0
VERTEX
8
MID
10
-1078.442
20
-1848.956
0
VERTEX
8
MID
10
-1037.503
20
-1857.772
0
VERTEX
8
MID
10
-996.095
20
-1864.023
0
VERTEX
8
MID
10
-954.377
20
-1867.683
0
VERTEX
8
MID
10
-912.513
20
-1868.739
0
VERTEX
8
MID
10
-870.665
20
-1867.186
0
VERTEX
8
MID
10
-828.994
20
-1863.032
0
VERTEX
8
MID
10
-787.662
20
-1856.291
0
VERTEX
8
MID
10
-746.831
20
-1846.99
0
VERTEX
8
MID
10
-706.658
20
-1835.164
0
VERTEX
8
MID
10
-667.299
20
-1820.861
0
VERTEX
8
MID
10
-628.906
20
-1804.135
0
VERTEX
8
MID
10
-591.63
20
-1785.052
0
VERTEX
8
MID
10
-555.614
20
-1763.684
0
VERTEX
8
MID
10
-520.998
20
-1740.116
0
VERTEX
8
MID
10
-487.916
20
-1714.439
0
VERTEX
8
MID
10
-456.498
20
-1686.751
0
VERTEX
8
MID
10
-426.864
20
-1657.162
0
VERTEX
8
MID
10
-399.129
20
-1625.785
0
VERTEX
8
MID
10
-373.402
20
-1592.742
0
VERTEX
8
MID
10
-349.782
20
-1558.161
0
VERTEX
8
MID
10
-328.361
20
-1522.177
0
VERTEX
8
MID
10
-309.221
20
-1484.929
0
VERTEX
8
MID
10
-292.438
20
-1446.562
0
VERTEX
8
MID
10
-278.076
20
-1407.225
0
VERTEX
8
MID
10
-266.19
20
-1367.069
0
VERTEX
8
MID
10
-256.828
20
-1326.252
0
VERTEX
8
MID
10
-250.025
20
-1284.93
0
VERTEX
8
MID
10
-245.808
20
-1243.266
0
VERTEX
8
MID
10
-245
20
-1222.343
0
VERTEX
8
MID
10
-245
20
-471.547
0
VERTEX
8
MID
10
-244.033
20
-456.178
0
VERTEX
8
MID
10
-242.103
20
-440.901
0
VERTEX
8
MID
10
-239.218
20
-425.775
0
VERTEX
8
MID
10
-235.388
20
-410.86
0
VERTEX
8
MID
10
-230.63
20
-396.214
0
VERTEX
8
MID
10
-224.961
20
-381.897
0
VERTEX
8
MID
10
-218.404
20
-367.963
0
VERTEX
8
MID
10
-210.986
20
-354.469
0
VERTEX
8
MID
10
-202.735
20
-341.468
0
VERTEX
8
MID
10
-193.684
20
-329.01
0
VERTEX
8
MID
10
-183.868
20
-317.145
0
VERTEX
8
MID
10
-173.327
20
-305.919
0
VERTEX
8
MID
10
-162.101
20
-295.378
0
VERTEX
8
MID
10
-150.236
20
-285.563
0
VERTEX
8
MID
10
-137.778
20
-276.511
0
VERTEX
8
MID
10
-124.777
20
-268.26
0
VERTEX
8
MID
10
-111.283
20
-260.842
0
VERTEX
8
MID
10
-97.349
20
-254.285
0
VERTEX
8
MID
10
-83.032
20
-248.616
0
VERTEX
8
MID
10
-68.387
20
-243.858
0
VERTEX
8
MID
10
-53.471
20
-240.028
0
VERTEX
8
MID
10
-38.345
20
-237.143
0
VERTEX
8
MID
10
-23.068
20
-235.213
0
VERTEX
8
MID
10
-7.699
20
-234.246
0
VERTEX
8
MID
10
7.699
20
-234.246
0
VERTEX
8
MID
10
23.068
20
-235.213
0
VERTEX
8
MID
10
38.345
20
-237.143
0
VERTEX
8
MID
10
53.471
20
-240.028
0
VERTEX
8
MID
10
68.387
20
-243.858
0
VERTEX
8
MID
10
83.032
20
-248.616
0
VERTEX
8
MID
10
97.349
20
-254.285
0
VERTEX
8
MID
10
111.283
20
-260.842
0
VERTEX
8
MID
10
124.777
20
-268.26
0
VERTEX
8
MID
10
137.778
20
-276.511
0
VERTEX
8
MID
10
150.236
20
-285.563
0
VERTEX
8
MID
10
162.101
20
-295.378
0
VERTEX
8
MID
10
173.327
20
-305.919
0
VERTEX
8
MID
10
183.868
20
-317.145
0
VERTEX
8
MID
10
193.684
20
-329.01
0
VERTEX
8
MID
10
202.735
20
-341.468
0
VERTEX
8
MID
10
210.986
20
-354.469
0
VERTEX
8
MID
10
218.404
20
-367.963
0
VERTEX
8
MID
10
224.961
20
-381.897
0
VERTEX
8
MID
10
230.63
20
-396.214
0
VERTEX
8
MID
10
235.388
20
-410.86
0
VERTEX
8
MID
10
239.218
20
-425.775
0
VERTEX
8
MID
10
242.103
20
-440.901
0
VERTEX
8
MID
10
244.033
20
-456.178
0
VERTEX
8
MID
10
245
20
-471.547
0
VERTEX
8
MID
10
245
20
-1222.343
0
VERTEX
8
MID
10
245.808
20
-1243.266
0
VERTEX
8
MID
10
250.025
20
-1284.93
0
VERTEX
8
MID
10
256.828
20
-1326.252
0
VERTEX
8
MID
10
266.19
20
-1367.069
0
VERTEX
8
MID
10
278.076
20
-1407.225
0
VERTEX
8
MID
10
292.438
20
-1446.562
0
VERTEX
8
MID
10
309.221
20
-1484.929
0
VERTEX
8
MID
10
328.361
20
-1522.177
0
VERTEX
8
MID
10
349.782
20
-1558.161
0
VERTEX
8
MID
10
373.402
20
-1592.742
0
VERTEX
8
MID
10
399.129
20
-1625.785
0
VERTEX
8
MID
10
426.864
20
-1657.162
0
VERTEX
8
MID
10
456.498
20
-1686.751
0
VERTEX
8
MID
10
487.916
20
-1714.439
0
VERTEX
8
MID
10
520.998
20
-1740.116
0
VERTEX
8
MID
10
555.614
20
-1763.684
0
VERTEX
8
MID
10
591.63
20
-1785.052
0
VERTEX
8
MID
10
628.906
20
-1804.135
0
VERTEX
8
MID
10
667.299
20
-1820.861
0
VERTEX
8
MID
10
706.658
20
-1835.164
0
VERTEX
8
MID
10
746.831
20
-1846.99
0
VERTEX
8
MID
10
787.662
20
-1856.291
0
VERTEX
8
MID
10
828.994
20
-1863.032
0
VERTEX
8
MID
10
870.665
20
-1867.186
0
VERTEX
8
MID
10
912.513
20
-1868.739
0
VERTEX
8
MID
10
954.377
20
-1867.683
0
VERTEX
8
MID
10
996.095
20
-1864.023
0
VERTEX
8
MID
10
1037.503
20
-1857.772
0
VERTEX
8
MID
10
1078.442
20
-1848.956
0
VERTEX
8
MID
10
1118.752
20
-1837.608
0
VERTEX
8
MID
10
1158.278
20
-1823.773
0
VERTEX
8
MID
10
1196.866
20
-1807.503
0
VERTEX
8
MID
10
1234.367
20
-1788.863
0
VERTEX
8
MID
10
1252.5
20
-1778.394
0
VERTEX
8
MID
10
1270.633
20
-1767.924
0
VERTEX
8
MID
10
1305.526
20
-1744.768
0
VERTEX
8
MID
10
1338.91
20
-1719.485
0
VERTEX
8
MID
10
1370.655
20
-1692.172
0
VERTEX
8
MID
10
1400.638
20
-1662.936
0
VERTEX
8
MID
10
1428.742
20
-1631.89
0
VERTEX
8
MID
10
1454.86
20
-1599.155
0
VERTEX
8
MID
10
1478.888
20
-1564.857
0
VERTEX
8
MID
10
1500.735
20
-1529.129
0
VERTEX
8
MID
10
1520.315
20
-1492.111
0
VERTEX
8
MID
10
1537.552
20
-1453.946
0
VERTEX
8
MID
10
1552.38
20
-1414.781
0
VERTEX
8
MID
10
1564.74
20
-1374.769
0
VERTEX
8
MID
10
1574.586
20
-1334.066
0
VERTEX
8
MID
10
1581.879
20
-1292.828
0
VERTEX
8
MID
10
1586.59
20
-1251.217
0
VERTEX
8
MID
10
1588.701
20
-1209.392
0
VERTEX
8
MID
10
1588.204
20
-1167.518
0
VERTEX
8
MID
10
1585.102
20
-1125.755
0
VERTEX
8
MID
10
1579.405
20
-1084.267
0
VERTEX
8
MID
10
1571.137
20
-1043.214
0
VERTEX
8
MID
10
1560.328
20
-1002.756
0
VERTEX
8
MID
10
1547.022
20
-963.048
0
VERTEX
8
MID
10
1531.27
20
-924.247
0
VERTEX
8
MID
10
1513.132
20
-886.501
0
VERTEX
8
MID
10
1492.68
20
-849.957
0
VERTEX
8
MID
10
1469.992
20
-814.758
0
VERTEX
8
MID
10
1445.157
20
-781.04
0
VERTEX
8
MID
10
1418.27
20
-748.933
0
VERTEX
8
MID
10
1389.437
20
-718.562
0
VERTEX
8
MID
10
1358.77
20
-690.045
0
VERTEX
8
MID
10
1326.386
20
-663.493
0
VERTEX
8
MID
10
1292.412
20
-639.009
0
VERTEX
8
MID
10
1274.696
20
-627.848
0
VERTEX
8
MID
10
631.155
20
-256.299
0
VERTEX
8
MID
10
624.487
20
-252.45
0
VERTEX
8
MID
10
611.661
20
-243.928
0
VERTEX
8
MID
10
599.396
20
-234.618
0
VERTEX
8
MID
10
587.739
20
-224.556
0
VERTEX
8
MID
10
576.737
20
-213.782
0
VERTEX
8
MID
10
566.433
20
-202.338
0
VERTEX
8
MID
10
556.868
20
-190.27
0
VERTEX
8
MID
10
548.079
20
-177.625
0
VERTEX
8
MID
10
540.102
20
-164.454
0
VERTEX
8
MID
10
532.968
20
-150.807
0
VERTEX
8
MID
10
526.705
20
-136.74
0
VERTEX
8
MID
10
521.337
20
-122.307
0
VERTEX
8
MID
10
516.887
20
-107.565
0
VERTEX
8
MID
10
513.37
20
-92.573
0
VERTEX
8
MID
10
510.802
20
-77.39
0
VERTEX
8
MID
10
509.193
20
-62.075
0
VERTEX
8
MID
10
508.548
20
-46.69
0
VERTEX
8
MID
10
508.87
20
-31.294
0
VERTEX
8
MID
10
510.159
20
-15.95
0
VERTEX
8
MID
10
512.408
20
-0.716
0
VERTEX
8
MID
10
515.61
20
14.347
0
VERTEX
8
MID
10
519.751
20
29.178
0
VERTEX
8
MID
10
524.815
20
43.72
0
VERTEX
8
MID
10
530.782
20
57.916
0
VERTEX
8
MID
10
537.629
20
71.709
0
VERTEX
8
MID
10
545.329
20
85.045
0
VERTEX
8
MID
10
553.85
20
97.871
0
VERTEX
8
MID
10
563.16
20
110.137
0
VERTEX
8
MID
10
573.222
20
121.793
0
VERTEX
8
MID
10
583.996
20
132.796
0
VERTEX
8
MID
10
595.44
20
143.099
0
VERTEX
8
MID
10
607.508
20
152.664
0
VERTEX
8
MID
10
620.153
20
161.453
0
VERTEX
8
MID
10
633.324
20
169.43
0
VERTEX
8
MID
10
646.971
20
176.564
0
VERTEX
8
MID
10
661.039
20
182.827
0
VERTEX
8
MID
10
675.472
20
188.195
0
VERTEX
8
MID
10
690.213
20
192.646
0
VERTEX
8
MID
10
705.205
20
196.162
0
VERTEX
8
MID
10
720.388
20
198.73
0
VERTEX
8
MID
10
735.703
20
200.34
0
VERTEX
8
MID
10
751.088
20
200.984
0
VERTEX
8
MID
10
766.484
20
200.662
0
VERTEX
8
MID
10
781.829
20
199.373
0
VERTEX
8
MID
10
797.062
20
197.124
0
VERTEX
8
MID
10
812.125
20
193.922
0
VERTEX
8
MID
10
826.956
20
189.781
0
VERTEX
8
MID
10
841.499
20
184.717
0
VERTEX
8
MID
10
855.694
20
178.75
0
VERTEX
8
MID
10
869.487
20
171.903
0
VERTEX
8
MID
10
876.155
20
168.053
0
VERTEX
8
MID
10
1519.696
20
-203.495
0
VERTEX
8
MID
10
1538.152
20
-213.222
0
VERTEX
8
MID
10
1576.201
20
-230.348
0
VERTEX
8
MID
10
1615.24
20
-245.081
0
VERTEX
8
MID
10
1655.116
20
-257.365
0
VERTEX
8
MID
10
1695.679
20
-267.15
0
VERTEX
8
MID
10
1736.769
20
-274.401
0
VERTEX
8
MID
10
1778.231
20
-279.089
0
VERTEX
8
MID
10
1819.904
20
-281.196
0
VERTEX
8
MID
10
1861.627
20
-280.714
0
VERTEX
8
MID
10
1903.239
20
-277.645
0
VERTEX
8
MID
10
1944.582
20
-272
0
VERTEX
8
MID
10
1985.494
20
-263.801
0
VERTEX
8
MID
10
2025.819
20
-253.081
0
VERTEX
8
MID
10
2065.401
20
-239.879
0
VERTEX
8
MID
10
2104.089
20
-224.248
0
VERTEX
8
MID
10
2141.732
20
-206.247
0
VERTEX
8
MID
10
2178.186
20
-185.945
0
VERTEX
8
MID
10
2213.31
20
-163.422
0
VERTEX
8
MID
10
2246.97
20
-138.763
0
VERTEX
8
MID
10
2279.035
20
-112.063
0
VERTEX
8
MID
10
2309.382
20
-83.426
0
VERTEX
8
MID
10
2337.894
20
-52.961
0
VERTEX
8
MID
10
2364.462
20
-20.786
0
VERTEX
8
MID
10
2388.982
20
12.975
0
VERTEX
8
MID
10
2411.361
20
48.191
0
VERTEX
8
MID
10
2431.512
20
84.728
0
VERTEX
8
MID
10
2449.358
20
122.445
0
VERTEX
8
MID
10
2464.83
20
161.197
0
VERTEX
8
MID
10
2477.869
20
200.833
0
VERTEX
8
MID
10
2488.423
20
241.202
0
VERTEX
8
MID
10
2496.453
20
282.148
0
VERTEX
8
MID
10
2501.928
20
323.513
0
VERTEX
8
MID
10
2504.826
20
365.138
0
VERTEX
8
MID
10
2504.981
20
386
0
VERTEX
8
MID
10
2620
20
386
0
VERTEX
8
MID
10
2970
20
231
0
VERTEX
8
MID
10
2970
20
551
0
VERTEX
8
MID
10
2620
20
396
0
VERTEX
8
MID
10
2504.981
20
396
0
VERTEX
8
MID
10
2504.826
20
416.862
0
VERTEX
8
MID
10
2501.928
20
458.487
0
VERTEX
8
MID
10
2496.453
20
499.852
0
VERTEX
8
MID
10
2488.423
20
540.798
0
VERTEX
8
MID
10
2477.869
20
581.167
0
VERTEX
8
MID
10
2464.83
20
620.803
0
VERTEX
8
MID
10
2449.358
20
659.555
0
VERTEX
8
MID
10
2431.512
20
697.272
0
VERTEX
8
MID
10
2411.361
20
733.809
0
VERTEX
8
MID
10
2388.982
20
769.025
0
VERTEX
8
MID
10
2364.462
20
802.786
0
VERTEX
8
MID
10
2337.894
20
834.961
0
VERTEX
8
MID
10
2309.382
20
865.426
0
VERTEX
8
MID
10
2279.035
20
894.063
0
VERTEX
8
MID
10
2246.97
20
920.763
0
VERTEX
8
MID
10
2213.31
20
945.422
0
VERTEX
8
MID
10
2178.186
20
967.945
0
VERTEX
8
MID
10
2141.732
20
988.247
0
VERTEX
8
MID
10
2104.089
20
1006.248
0
VERTEX
8
MID
10
2065.401
20
1021.879
0
VERTEX
8
MID
10
2025.819
20
1035.081
0
VERTEX
8
MID
10
1985.494
20
1045.801
0
VERTEX
8
MID
10
1944.582
20
1054
0
VERTEX
8
MID
10
1903.239
20
1059.645
0
VERTEX
8
MID
10
1861.627
20
1062.714
0
VERTEX
8
MID
10
1819.904
20
1063.196
0
VERTEX
8
MID
10
1778.231
20
1061.089
0
VERTEX
8
MID
10
1736.769
20
1056.401
0
VERTEX
8
MID
10
1695.679
20
1049.15
0
VERTEX
8
MID
10
1655.116
20
1039.365
0
VERTEX
8
MID
10
1615.24
20
1027.081
0
VERTEX
8
MID
10
1576.201
20
1012.348
0
VERTEX
8
MID
10
1538.152
20
995.222
0
VERTEX
8
MID
10
1519.696
20
985.495
0
VERTEX
8
MID
10
876.155
20
613.947
0
VERTEX
8
MID
10
869.487
20
610.097
0
VERTEX
8
MID
10
855.694
20
603.25
0
VERTEX
8
MID
10
841.499
20
597.283
0
VERTEX
8
MID
10
826.956
20
592.219
0
VERTEX
8
MID
10
812.125
20
588.078
0
VERTEX
8
MID
10
797.062
20
584.876
0
VERTEX
8
MID
10
781.829
20
582.627
0
VERTEX
8
MID
10
766.484
20
581.338
0
VERTEX
8
MID
10
751.088
20
581.016
0
VERTEX
8
MID
10
735.703
20
581.66
0
VERTEX
8
MID
10
720.388
20
583.27
0
VERTEX
8
MID
10
705.205
20
585.838
0
VERTEX
8
MID
10
690.213
20
589.354
0
VERTEX
8
MID
10
675.472
20
593.805
0
VERTEX
8
MID
10
661.039
20
599.173
0
VERTEX
8
MID
10
646.971
20
605.436
0
VERTEX
8
MID
10
633.324
20
612.57
0
VERTEX
8
MID
10
620.153
20
620.547
0
VERTEX
8
MID
10
607.508
20
629.336
0
VERTEX
8
MID
10
595.44
20
638.901
0
VERTEX
8
MID
10
583.996
20
649.204
0
VERTEX
8
MID
10
573.222
20
660.207
0
VERTEX
8
MID
10
563.16
20
671.863
0
VERTEX
8
MID
10
553.85
20
684.129
0
VERTEX
8
MID
10
545.329
20
696.955
0
VERTEX
8
MID
10
537.629
20
710.291
0
VERTEX
8
MID
10
530.782
20
724.084
0
VERTEX
8
MID
10
524.815
20
738.28
0
VERTEX
8
MID
10
519.751
20
752.822
0
VERTEX
8
MID
10
515.61
20
767.653
0
VERTEX
8
MID
10
512.408
20
782.716
0
VERTEX
8
MID
10
510.159
20
797.95
0
VERTEX
8
MID
10
508.87
20
813.294
0
VERTEX
8
MID
10
508.548
20
828.69
0
VERTEX
8
MID
10
509.193
20
844.075
0
VERTEX
8
MID
10
510.802
20
859.39
0
VERTEX
8
MID
10
513.37
20
874.573
0
VERTEX
8
MID
10
516.887
20
889.565
0
VERTEX
8
MID
10
521.337
20
904.307
0
VERTEX
8
MID
10
526.705
20
918.74
0
VERTEX
8
MID
10
532.968
20
932.807
0
VERTEX
8
MID
10
540.102
20
946.454
0
VERTEX
8
MID
10
548.079
20
959.625
0
VERTEX
8
MID
10
556.868
20
972.27
0
VERTEX
8
MID
10
566.433
20
984.338
0
VERTEX
8
MID
10
576.737
20
995.782
0
VERTEX
8
MID
10
587.739
20
1006.556
0
VERTEX
8
MID
10
599.396
20
1016.618
0
VERTEX
8
MID
10
611.661
20
1025.928
0
VERTEX
8
MID
10
624.487
20
1034.45
0
VERTEX
8
MID
10
631.155
20
1038.299
0
VERTEX
8
MID
10
1274.696
20
1409.848
0
VERTEX
8
MID
10
1292.348
20
1420.968
0
VERTEX
8
MID
10
1326.204
20
1445.356
0
VERTEX
8
MID
10
1358.483
20
1471.798
0
VERTEX
8
MID
10
1389.058
20
1500.191
0
VERTEX
8
MID
10
1417.814
20
1530.425
0
VERTEX
8
MID
10
1444.639
20
1562.386
0
VERTEX
8
MID
10
1469.43
20
1595.949
0
VERTEX
8
MID
10
1492.091
20
1630.985
0
VERTEX
8
MID
10
1512.535
20
1667.359
0
VERTEX
8
MID
10
1530.683
20
1704.931
0
VERTEX
8
MID
10
1546.466
20
1743.557
0
VERTEX
8
MID
10
1559.822
20
1783.088
0
VERTEX
8
MID
10
1570.7
20
1823.37
0
VERTEX
8
MID
10
1579.058
20
1864.25
0
VERTEX
8
MID
10
1584.865
20
1905.57
0
VERTEX
8
MID
10
1588.097
20
1947.171
0
VERTEX
8
MID
10
1588.742
20
1988.891
0
VERTEX
8
MID
10
1586.798
20
2030.572
0
VERTEX
8
MID
10
1582.273
20
2072.052
0
VERTEX
8
MID
10
1575.183
20
2113.171
0
VERTEX
8
MID
10
1565.556
20
2153.771
0
VERTEX
8
MID
10
1553.428
20
2193.695
0
VERTEX
8
MID
10
1538.848
20
2232.791
0
VERTEX
8
MID
10
1521.871
20
2270.906
0
VERTEX
8
MID
10
1502.562
20
2307.896
0
VERTEX
8
MID
10
1480.995
20
2343.616
0
VERTEX
8
MID
10
1457.254
20
2377.929
0
VERTEX
8
MID
10
1431.431
20
2410.704
0
VERTEX
8
MID
10
1403.624
20
2441.814
0
VERTEX
8
MID
10
1373.941
20
2471.139
0
VERTEX
8
MID
10
1342.496
20
2498.566
0
VERTEX
8
MID
10
1309.41
20
2523.99
0
VERTEX
8
MID
10
1274.811
20
2547.312
0
VERTEX
8
MID
10
1256.821
20
2557.878
0
VERTEX
8
MID
10
1314.33
20
2657.487
0
VERTEX
8
MID
10
1623.564
20
2883.095
0
VERTEX
8
MID
10
1346.436
20
3043.095
0
VERTEX
8
MID
10
1271.987
20
3043.095
0
VERTEX
8
MID
10
1268.494
20
3088.095
0
VERTEX
8
MID
10
1318.494
20
3174.698
0
VERTEX
8
MID
10
1751.506
20
2924.698
0
VERTEX
8
MID
10
1701.506
20
2838.095
0
VERTEX
8
MID
10
1320.255
20
2655.75
0
VERTEX
8
MID
10
1319.526
20
2654.487
0
VERTEX
8
MID
10
1272.083
20
2572.312
0
VERTEX
8
MID
10
1290.449
20
2561.315
0
VERTEX
8
MID
10
1325.754
20
2537.093
0
VERTEX
8
MID
10
1359.494
20
2510.736
0
VERTEX
8
MID
10
1391.541
20
2482.345
0
VERTEX
8
MID
10
1421.772
20
2452.027
0
VERTEX
8
MID
10
1450.072
20
2419.899
0
VERTEX
8
MID
10
1476.333
20
2386.084
0
VERTEX
8
MID
10
1500.454
20
2350.711
0
VERTEX
8
MID
10
1522.343
20
2313.915
0
VERTEX
8
MID
10
1541.916
20
2275.837
0
VERTEX
8
MID
10
1559.099
20
2236.622
0
VERTEX
8
MID
10
1573.826
20
2196.42
0
VERTEX
8
MID
10
1586.04
20
2155.384
0
VERTEX
8
MID
10
1595.696
20
2113.673
0
VERTEX
8
MID
10
1602.755
20
2071.444
0
VERTEX
8
MID
10
1607.192
20
2028.86
0
VERTEX
8
MID
10
1608.989
20
1986.083
0
VERTEX
8
MID
10
1608.138
20
1943.277
0
VERTEX
8
MID
10
1604.645
20
1900.606
0
VERTEX
8
MID
10
1598.521
20
1858.231
0
VERTEX
8
MID
10
1589.79
20
1816.316
0
VERTEX
8
MID
10
1578.487
20
1775.021
0
VERTEX
8
MID
10
1564.652
20
1734.503
0
VERTEX
8
MID
10
1548.341
20
1694.918
0
VERTEX
8
MID
10
1529.615
20
1656.416
0
VERTEX
8
MID
10
1508.545
20
1619.144
0
VERTEX
8
MID
10
1485.212
20
1583.246
0
VERTEX
8
MID
10
1459.706
20
1548.859
0
VERTEX
8
MID
10
1432.123
20
1516.113
0
VERTEX
8
MID
10
1402.57
20
1485.134
0
VERTEX
8
MID
10
1371.159
20
1456.041
0
VERTEX
8
MID
10
1338.01
20
1428.944
0
VERTEX
8
MID
10
1303.25
20
1403.948
0
VERTEX
8
MID
10
1285.131
20
1392.547
0
VERTEX
8
MID
10
641.255
20
1020.806
0
VERTEX
8
MID
10
635.137
20
1017.273
0
VERTEX
8
MID
10
623.369
20
1009.454
0
VERTEX
8
MID
10
612.114
20
1000.912
0
VERTEX
8
MID
10
601.418
20
991.679
0
VERTEX
8
MID
10
591.323
20
981.794
0
VERTEX
8
MID
10
581.869
20
971.294
0
VERTEX
8
MID
10
573.093
20
960.221
0
VERTEX
8
MID
10
565.029
20
948.618
0
VERTEX
8
MID
10
557.71
20
936.533
0
VERTEX
8
MID
10
551.164
20
924.011
0
VERTEX
8
MID
10
545.417
20
911.104
0
VERTEX
8
MID
10
540.492
20
897.86
0
VERTEX
8
MID
10
536.408
20
884.334
0
VERTEX
8
MID
10
533.181
20
870.578
0
VERTEX
8
MID
10
530.825
20
856.647
0
VERTEX
8
MID
10
529.348
20
842.595
0
VERTEX
8
MID
10
528.757
20
828.478
0
VERTEX
8
MID
10
529.052
20
814.352
0
VERTEX
8
MID
10
530.235
20
800.272
0
VERTEX
8
MID
10
532.299
20
786.295
0
VERTEX
8
MID
10
535.236
20
772.474
0
VERTEX
8
MID
10
539.036
20
758.865
0
VERTEX
8
MID
10
543.683
20
745.522
0
VERTEX
8
MID
10
549.158
20
732.497
0
VERTEX
8
MID
10
555.44
20
719.841
0
VERTEX
8
MID
10
562.505
20
707.605
0
VERTEX
8
MID
10
570.324
20
695.836
0
VERTEX
8
MID
10
578.867
20
684.582
0
VERTEX
8
MID
10
588.099
20
673.886
0
VERTEX
8
MID
10
597.985
20
663.791
0
VERTEX
8
MID
10
608.485
20
654.337
0
VERTEX
8
MID
10
619.558
20
645.561
0
VERTEX
8
MID
10
626.12
20
641
0
VERTEX
8
MID
10
631.16
20
637.497
0
VERTEX
8
MID
10
643.246
20
630.177
0
VERTEX
8
MID
10
655.767
20
623.631
0
VERTEX
8
MID
10
668.675
20
617.885
0
VERTEX
8
MID
10
681.918
20
612.96
0
VERTEX
8
MID
10
695.444
20
608.876
0
VERTEX
8
MID
10
709.2
20
605.649
0
VERTEX
8
MID
10
723.131
20
603.293
0
VERTEX
8
MID
10
737.183
20
601.816
0
VERTEX
8
MID
10
751.3
20
601.224
0
VERTEX
8
MID
10
765.426
20
601.52
0
VERTEX
8
MID
10
779.506
20
602.703
0
VERTEX
8
MID
10
793.484
20
604.767
0
VERTEX
8
MID
10
807.304
20
607.704
0
VERTEX
8
MID
10
820.913
20
611.504
0
VERTEX
8
MID
10
834.256
20
616.151
0
VERTEX
8
MID
10
847.281
20
621.626
0
VERTEX
8
MID
10
859.937
20
627.908
0
VERTEX
8
MID
10
866.055
20
631.441
0
VERTEX
8
MID
10
882.612
20
641
0
VERTEX
8
MID
10
1509.931
20
1003.182
0
VERTEX
8
MID
10
1528.863
20
1013.174
0
VERTEX
8
MID
10
1567.891
20
1030.778
0
VERTEX
8
MID
10
1607.932
20
1045.938
0
VERTEX
8
MID
10
1648.833
20
1058.594
0
VERTEX
8
MID
10
1690.438
20
1068.698
0
VERTEX
8
MID
10
1732.588
20
1076.213
0
VERTEX
8
MID
10
1775.122
20
1081.108
0
VERTEX
8
MID
10
1817.877
20
1083.366
0
VERTEX
8
MID
10
1860.689
20
1082.977
0
VERTEX
8
MID
10
1903.396
20
1079.944
0
VERTEX
8
MID
10
1945.834
20
1074.277
0
VERTEX
8
MID
10
1987.841
20
1065.999
0
VERTEX
8
MID
10
2029.255
20
1055.141
0
VERTEX
8
MID
10
2069.92
20
1041.744
0
VERTEX
8
MID
10
2109.679
20
1025.86
0
VERTEX
8
MID
10
2148.381
20
1007.55
0
VERTEX
8
MID
10
2185.877
20
986.883
0
VERTEX
8
MID
10
2222.025
20
963.939
0
VERTEX
8
MID
10
2256.685
20
938.805
0
VERTEX
8
MID
10
2289.726
20
911.577
0
VERTEX
8
MID
10
2321.022
20
882.359
0
VERTEX
8
MID
10
2350.452
20
851.263
0
VERTEX
8
MID
10
2377.905
20
818.409
0
VERTEX
8
MID
10
2403.274
20
783.92
0
VERTEX
8
MID
10
2426.464
20
747.93
0
VERTEX
8
MID
10
2447.386
20
710.575
0
VERTEX
8
MID
10
2465.96
20
671.999
0
VERTEX
8
MID
10
2478.589
20
641
0
VERTEX
8
MID
10
2482.114
20
632.349
0
VERTEX
8
MID
10
2495.788
20
591.777
0
VERTEX
8
MID
10
2506.928
20
550.437
0
VERTEX
8
MID
10
2515.492
20
508.488
0
VERTEX
8
MID
10
2521.448
20
466.09
0
VERTEX
8
MID
10
2524.772
20
423.405
0
VERTEX
8
MID
10
2525.112
20
402
0
VERTEX
8
MID
10
2621.458
20
402
0
VERTEX
8
MID
10
2970
20
641
0
VERTEX
8
MID
10
3070
20
641
0
VERTEX
8
MID
10
3070
20
141
0
VERTEX
8
MID
10
2970
20
141
0
VERTEX
8
MID
10
2621.458
20
380
0
VERTEX
8
MID
10
2525.113
20
380
0
VERTEX
8
MID
10
2524.772
20
358.595
0
VERTEX
8
MID
10
2521.448
20
315.91
0
VERTEX
8
MID
10
2515.492
20
273.512
0
VERTEX
8
MID
10
2506.928
20
231.563
0
VERTEX
8
MID
10
2495.788
20
190.223
0
VERTEX
8
MID
10
2482.114
20
149.651
0
VERTEX
8
MID
10
2465.96
20
110.001
0
VERTEX
8
MID
10
2447.386
20
71.425
0
VERTEX
8
MID
10
2426.465
20
34.07
0
VERTEX
8
MID
10
2403.274
20
-1.92
0
VERTEX
8
MID
10
2377.905
20
-36.409
0
VERTEX
8
MID
10
2350.452
20
-69.263
0
VERTEX
8
MID
10
2321.022
20
-100.359
0
VERTEX
8
MID
10
2289.726
20
-129.577
0
VERTEX
8
MID
10
2256.685
20
-156.805
0
VERTEX
8
MID
10
2222.025
20
-181.939
0
VERTEX
8
MID
10
2185.877
20
-204.883
0
VERTEX
8
MID
10
2148.381
20
-225.55
0
VERTEX
8
MID
10
2109.679
20
-243.86
0
VERTEX
8
MID
10
2069.92
20
-259.744
0
VERTEX
8
MID
10
2029.256
20
-273.141
0
VERTEX
8
MID
10
1987.841
20
-283.999
0
VERTEX
8
MID
10
1945.834
20
-292.277
0
VERTEX
8
MID
10
1903.396
20
-297.944
0
VERTEX
8
MID
10
1860.689
20
-300.977
0
VERTEX
8
MID
10
1817.877
20
-301.366
0
VERTEX
8
MID
10
1775.122
20
-299.108
0
VERTEX
8
MID
10
1732.588
20
-294.213
0
VERTEX
8
MID
10
1690.438
20
-286.698
0
VERTEX
8
MID
10
1648.833
20
-276.594
0
VERTEX
8
MID
10
1607.932
20
-263.938
0
VERTEX
8
MID
10
1567.891
20
-248.778
0
VERTEX
8
MID
10
1528.863
20
-231.174
0
VERTEX
8
MID
10
1509.931
20
-221.182
0
VERTEX
8
MID
10
866.055
20
150.559
0
VERTEX
8
MID
10
859.937
20
154.092
0
VERTEX
8
MID
10
847.281
20
160.374
0
VERTEX
8
MID
10
834.256
20
165.849
0
VERTEX
8
MID
10
820.913
20
170.496
0
VERTEX
8
MID
10
807.304
20
174.296
0
VERTEX
8
MID
10
793.484
20
177.233
0
VERTEX
8
MID
10
779.506
20
179.297
0
VERTEX
8
MID
10
765.426
20
180.48
0
VERTEX
8
MID
10
751.3
20
180.776
0
VERTEX
8
MID
10
737.183
20
180.184
0
VERTEX
8
MID
10
723.131
20
178.707
0
VERTEX
8
MID
10
709.2
20
176.351
0
VERTEX
8
MID
10
695.444
20
173.124
0
VERTEX
8
MID
10
681.918
20
169.04
0
VERTEX
8
MID
10
668.675
20
164.115
0
VERTEX
8
MID
10
655.767
20
158.369
0
VERTEX
8
MID
10
643.246
20
151.823
0
VERTEX
8
MID
10
631.16
20
144.503
0
VERTEX
8
MID
10
619.558
20
136.439
0
VERTEX
8
MID
10
608.485
20
127.663
0
VERTEX
8
MID
10
597.985
20
118.209
0
VERTEX
8
MID
10
588.099
20
108.114
0
VERTEX
8
MID
10
578.867
20
97.418
0
VERTEX
8
MID
10
570.324
20
86.164
0
VERTEX
8
MID
10
562.505
20
74.395
0
VERTEX
8
MID
10
555.44
20
62.159
0
VERTEX
8
MID
10
549.158
20
49.503
0
VERTEX
8
MID
10
543.683
20
36.478
0
VERTEX
8
MID
10
539.036
20
23.135
0
VERTEX
8
MID
10
535.236
20
9.526
0
VERTEX
8
MID
10
532.299
20
-4.295
0
VERTEX
8
MID
10
530.235
20
-18.272
0
VERTEX
8
MID
10
529.052
20
-32.352
0
VERTEX
8
MID
10
528.757
20
-46.478
0
VERTEX
8
MID
10
529.348
20
-60.595
0
VERTEX
8
MID
10
530.825
20
-74.647
0
VERTEX
8
MID
10
533.181
20
-88.578
0
VERTEX
8
MID
10
536.408
20
-102.334
0
VERTEX
8
MID
10
540.492
20
-115.86
0
VERTEX
8
MID
10
545.417
20
-129.104
0
VERTEX
8
MID
10
551.164
20
-142.011
0
VERTEX
8
MID
10
557.71
20
-154.533
0
VERTEX
8
MID
10
565.029
20
-166.618
0
VERTEX
8
MID
10
573.093
20
-178.221
0
VERTEX
8
MID
10
581.869
20
-189.294
0
VERTEX
8
MID
10
591.323
20
-199.794
0
VERTEX
8
MID
10
601.418
20
-209.679
0
VERTEX
8
MID
10
612.114
20
-218.912
0
VERTEX
8
MID
10
623.369
20
-227.454
0
VERTEX
8
MID
10
635.137
20
-235.273
0
VERTEX
8
MID
10
641.255
20
-238.806
0
VERTEX
8
MID
10
1285.131
20
-610.547
0
VERTEX
8
MID
10
1303.391
20
-622.037
0
VERTEX
8
MID
10
1338.41
20
-647.245
0
VERTEX
8
MID
10
1371.791
20
-674.585
0
VERTEX
8
MID
10
1403.404
20
-703.951
0
VERTEX
8
MID
10
1433.128
20
-735.228
0
VERTEX
8
MID
10
1460.846
20
-768.296
0
VERTEX
8
MID
10
1486.451
20
-803.026
0
VERTEX
8
MID
10
1509.843
20
-839.283
0
VERTEX
8
MID
10
1530.932
20
-876.926
0
VERTEX
8
MID
10
1549.636
20
-915.809
0
VERTEX
8
MID
10
1565.882
20
-955.782
0
VERTEX
8
MID
10
1579.608
20
-996.689
0
VERTEX
8
MID
10
1590.759
20
-1038.371
0
VERTEX
8
MID
10
1599.293
20
-1080.667
0
VERTEX
8
MID
10
1605.177
20
-1123.412
0
VERTEX
8
MID
10
1608.387
20
-1166.441
0
VERTEX
8
MID
10
1608.911
20
-1209.586
0
VERTEX
8
MID
10
1606.748
20
-1252.68
0
VERTEX
8
MID
10
1601.905
20
-1295.555
0
VERTEX
8
MID
10
1594.401
20
-1338.046
0
VERTEX
8
MID
10
1584.266
20
-1379.987
0
VERTEX
8
MID
10
1571.538
20
-1421.215
0
VERTEX
8
MID
10
1556.268
20
-1461.571
0
VERTEX
8
MID
10
1538.515
20
-1500.898
0
VERTEX
8
MID
10
1518.347
20
-1539.042
0
VERTEX
8
MID
10
1495.842
20
-1575.857
0
VERTEX
8
MID
10
1471.089
20
-1611.199
0
VERTEX
8
MID
10
1444.183
20
-1644.93
0
VERTEX
8
MID
10
1415.228
20
-1676.921
0
VERTEX
8
MID
10
1384.338
20
-1707.046
0
VERTEX
8
MID
10
1351.631
20
-1735.189
0
VERTEX
8
MID
10
1317.235
20
-1761.241
0
VERTEX
8
MID
10
1281.284
20
-1785.1
0
VERTEX
8
MID
10
1243.916
20
-1806.674
0
VERTEX
8
MID
10
1205.278
20
-1825.88
0
VERTEX
8
MID
10
1165.518
20
-1842.641
0
VERTEX
8
MID
10
1124.792
20
-1856.895
0
VERTEX
8
MID
10
1083.258
20
-1868.584
0
VERTEX
8
MID
10
1041.076
20
-1877.664
0
VERTEX
8
MID
10
998.41
20
-1884.1
0
VERTEX
8
MID
10
955.427
20
-1887.866
0
VERTEX
8
MID
10
912.292
20
-1888.948
0
VERTEX
8
MID
10
869.174
20
-1887.342
0
VERTEX
8
MID
10
826.239
20
-1883.054
0
VERTEX
8
MID
10
783.655
20
-1876.1
0
VERTEX
8
MID
10
741.587
20
-1866.508
0
VERTEX
8
MID
10
700.197
20
-1854.315
0
VERTEX
8
MID
10
659.647
20
-1839.568
0
VERTEX
8
MID
10
620.095
20
-1822.324
0
VERTEX
8
MID
10
581.692
20
-1802.651
0
VERTEX
8
MID
10
544.59
20
-1780.624
0
VERTEX
8
MID
10
508.931
20
-1756.33
0
VERTEX
8
MID
10
474.854
20
-1729.862
0
VERTEX
8
MID
10
442.492
20
-1701.323
0
VERTEX
8
MID
10
411.97
20
-1670.825
0
VERTEX
8
MID
10
383.406
20
-1638.485
0
VERTEX
8
MID
10
356.912
20
-1604.429
0
VERTEX
8
MID
10
332.59
20
-1568.789
0
VERTEX
8
MID
10
310.534
20
-1531.704
0
VERTEX
8
MID
10
290.831
20
-1493.317
0
VERTEX
8
MID
10
273.557
20
-1453.777
0
VERTEX
8
MID
10
258.778
20
-1413.239
0
VERTEX
8
MID
10
246.553
20
-1371.859
0
VERTEX
8
MID
10
236.928
20
-1329.798
0
VERTEX
8
MID
10
229.941
20
-1287.219
0
VERTEX
8
MID
10
225.62
20
-1244.288
0
VERTEX
8
MID
10
224.8
20
-1222.73
0
VERTEX
8
MID
10
224.8
20
-472.181
0
VERTEX
8
MID
10
223.913
20
-458.08
0
VERTEX
8
MID
10
222.142
20
-444.062
0
VERTEX
8
MID
10
219.494
20
-430.183
0
VERTEX
8
MID
10
215.981
20
-416.498
0
VERTEX
8
MID
10
211.614
20
-403.06
0
VERTEX
8
MID
10
206.413
20
-389.923
0
VERTEX
8
MID
10
200.397
20
-377.139
0
VERTEX
8
MID
10
193.59
20
-364.757
0
VERTEX
8
MID
10
186.02
20
-352.827
0
VERTEX
8
MID
10
177.715
20
-341.397
0
VERTEX
8
MID
10
168.708
20
-330.51
0
VERTEX
8
MID
10
159.036
20
-320.21
0
VERTEX
8
MID
10
148.736
20
-310.538
0
VERTEX
8
MID
10
137.85
20
-301.532
0
VERTEX
8
MID
10
126.419
20
-293.227
0
VERTEX
8
MID
10
114.489
20
-285.656
0
VERTEX
8
MID
10
102.107
20
-278.849
0
VERTEX
8
MID
10
89.323
20
-272.833
0
VERTEX
8
MID
10
76.186
20
-267.632
0
VERTEX
8
MID
10
62.748
20
-263.265
0
VERTEX
8
MID
10
49.063
20
-259.752
0
VERTEX
8
MID
10
35.184
20
-257.104
0
VERTEX
8
MID
10
21.166
20
-255.333
0
VERTEX
8
MID
10
7.065
20
-254.446
0
VERTEX
8
MID
10
-7.065
20
-254.446
0
VERTEX
8
MID
10
-21.166
20
-255.333
0
VERTEX
8
MID
10
-35.184
20
-257.104
0
VERTEX
8
MID
10
-49.063
20
-259.752
0
VERTEX
8
MID
10
-62.748
20
-263.265
0
VERTEX
8
MID
10
-76.186
20
-267.632
0
VERTEX
8
MID
10
-89.323
20
-272.833
0
VERTEX
8
MID
10
-102.107
20
-278.849
0
VERTEX
8
MID
10
-114.489
20
-285.656
0
VERTEX
8
MID
10
-126.419
20
-293.227
0
VERTEX
8
MID
10
-137.85
20
-301.532
0
VERTEX
8
MID
10
-148.736
20
-310.538
0
VERTEX
8
MID
10
-159.036
20
-320.21
0
VERTEX
8
MID
10
-168.708
20
-330.51
0
VERTEX
8
MID
10
-177.715
20
-341.397
0
VERTEX
8
MID
10
-186.02
20
-352.827
0
VERTEX
8
MID
10
-193.59
20
-364.757
0
VERTEX
8
MID
10
-200.397
20
-377.139
0
VERTEX
8
MID
10
-206.413
20
-389.923
0
VERTEX
8
MID
10
-211.614
20
-403.06
0
VERTEX
8
MID
10
-215.981
20
-416.498
0
VERTEX
8
MID
10
-219.494
20
-430.183
0
VERTEX
8
MID
10
-222.142
20
-444.062
0
VERTEX
8
MID
10
-223.913
20
-458.08
0
VERTEX
8
MID
10
-224.8
20
-472.181
0
VERTEX
8
MID
10
-224.8
20
-1222.73
0
VERTEX
8
MID
10
-225.62
20
-1244.288
0
VERTEX
8
MID
10
-229.941
20
-1287.219
0
VERTEX
8
MID
10
-236.928
20
-1329.798
0
VERTEX
8
MID
10
-246.553
20
-1371.859
0
VERTEX
8
MID
10
-258.778
20
-1413.239
0
VERTEX
8
MID
10
-273.557
20
-1453.777
0
VERTEX
8
MID
10
-290.831
20
-1493.317
0
VERTEX
8
MID
10
-310.534
20
-1531.704
0
VERTEX
8
MID
10
-332.59
20
-1568.789
0
VERTEX
8
MID
10
-356.912
20
-1604.429
0
VERTEX
8
MID
10
-383.406
20
-1638.485
0
VERTEX
8
MID
10
-411.97
20
-1670.825
0
VERTEX
8
MID
10
-442.492
20
-1701.323
0
VERTEX
8
MID
10
-474.854
20
-1729.862
0
VERTEX
8
MID
10
-508.931
20
-1756.33
0
VERTEX
8
MID
10
-544.59
20
-1780.624
0
VERTEX
8
MID
10
-581.692
20
-1802.651
0
VERTEX
8
MID
10
-620.095
20
-1822.324
0
VERTEX
8
MID
10
-659.647
20
-1839.568
0
VERTEX
8
MID
10
-700.197
20
-1854.315
0
VERTEX
8
MID
10
-741.587
20
-1866.508
0
VERTEX
8
MID
10
-783.655
20
-1876.1
0
VERTEX
8
MID
10
-826.239
20
-1883.054
0
VERTEX
8
MID
10
-869.174
20
-1887.342
0
SEQEND
0
POLYLINE
8
BOUNDARIES
70
0
40
0
41
0
66
1
0
VERTEX
8
BOUNDARIES
10
-3500
20
3500
0
VERTEX
8
BOUNDARIES
10
3500
20
3500
0
VERTEX
8
BOUNDARIES
10
3500
20
-3500
0
VERTEX
8
BOUNDARIES
10
-3500
20
-3500
0
VERTEX
8
BOUNDARIES
10
-3500
20
3500
0
SEQEND
0
POLYLINE
8
DICING
70
1
40
0
41
0
66
1
0
VERTEX
8
DICING
10
-3500
20
-3500
0
VERTEX
8
DICING
10
-3500
20
3400
0
VERTEX
8
DICING
10
-3400
20
3400
0
VERTEX
8
DICING
10
-3400
20
-3400
0
VERTEX
8
DICING
10
3400
20
-3400
0
VERTEX
8
DICING
10
3400
20
3400
0
VERTEX
8
DICING
10
-3500
20
3400
0
VERTEX
8
DICING
10
-3500
20
3500
0
VERTEX
8
DICING
10
3500
20
3500
0
VERTEX
8
DICING
10
3500
20
-3500
0
SEQEND
0
POLYLINE
8
L1D0
70
1
40
0
41
0
66
1
0
VERTEX
8
L1D0
10
-2956.292
20
2609.555
0
VERTEX
8
L1D0
10
-2962.76
20
2609.618
0
VERTEX
8
L1D0
10
-2966.897
20
2609.744
0
VERTEX
8
L1D0
10
-2973.281
20
2609.996
0
VERTEX
8
L1D0
10
-2980.071
20
2610.584
0
VERTEX
8
L1D0
10
-2986.665
20
2611.55
0
VERTEX
8
L1D0
10
-2993.322
20
2613.23
0
VERTEX
8
L1D0
10
-2999.153
20
2615.169
0
VERTEX
8
L1D0
10
-3004.97
20
2617.752
0
VERTEX
8
L1D0
10
-3010.787
20
2620.923
0
VERTEX
8
L1D0
10
-3013.566
20
2622.995
0
VERTEX
8
L1D0
10
-3016.191
20
2624.808
0
VERTEX
8
L1D0
10
-3020.202
20
2628.756
0
VERTEX
8
L1D0
10
-3023.828
20
2633.159
0
VERTEX
8
L1D0
10
-3027.125
20
2638.647
0
VERTEX
8
L1D0
10
-3028.35
20
2642.91
0
VERTEX
8
L1D0
10
-3029.057
20
2646.662
0
VERTEX
8
L1D0
10
-3029.127
20
2649.119
0
VERTEX
8
L1D0
10
-3029.127
20
2652.143
0
VERTEX
8
L1D0
10
-3028.742
20
2655.965
0
VERTEX
8
L1D0
10
-3028.154
20
2660.165
0
VERTEX
8
L1D0
10
-3027.188
20
2665.59
0
VERTEX
8
L1D0
10
-3026.082
20
2671.085
0
VERTEX
8
L1D0
10
-3023.625
20
2681.172
0
VERTEX
8
L1D0
10
-3022.785
20
2684.532
0
VERTEX
8
L1D0
10
-3020.832
20
2691.756
0
VERTEX
8
L1D0
10
-3019.278
20
2696.663
0
VERTEX
8
L1D0
10
-3017.738
20
2702.354
0
VERTEX
8
L1D0
10
-3016.373
20
2707.142
0
VERTEX
8
L1D0
10
-3014.504
20
2713.211
0
VERTEX
8
L1D0
10
-3012.285
20
2721.086
0
VERTEX
8
L1D0
10
-3010.479
20
2725.671
0
VERTEX
8
L1D0
10
-3009.051
20
2730.459
0
VERTEX
8
L1D0
10
-3007.826
20
2734.4
0
VERTEX
8
L1D0
10
-3004.2
20
2744.739
0
VERTEX
8
L1D0
10
-3002.786
20
2749.079
0
VERTEX
8
L1D0
10
-3000.63
20
2754.483
0
VERTEX
8
L1D0
10
-2998.173
20
2761.014
0
VERTEX
8
L1D0
10
-2996.234
20
2766.705
0
VERTEX
8
L1D0
10
-2994.099
20
2772.263
0
VERTEX
8
L1D0
10
-2991.831
20
2777.891
0
VERTEX
8
L1D0
10
-2988.072
20
2787.635
0
VERTEX
8
L1D0
10
-2985.419
20
2793.963
0
VERTEX
8
L1D0
10
-2983.998
20
2797.778
0
VERTEX
8
L1D0
10
-2979.798
20
2808.446
0
VERTEX
8
L1D0
10
-2977.859
20
2813.157
0
VERTEX
8
L1D0
10
-2975.64
20
2818.778
0
VERTEX
8
L1D0
10
-2973.575
20
2823.167
0
VERTEX
8
L1D0
10
-2971.307
20
2828.466
0
VERTEX
8
L1D0
10
-2968.724
20
2834.612
0
VERTEX
8
L1D0
10
-2966.267
20
2839.974
0
VERTEX
8
L1D0
10
-2963.81
20
2845.532
0
VERTEX
8
L1D0
10
-2961.395
20
2850.488
0
VERTEX
8
L1D0
10
-2959.778
20
2854.31
0
VERTEX
8
L1D0
10
-2957.972
20
2857.467
0
VERTEX
8
L1D0
10
-2955.963
20
2861.807
0
VERTEX
8
L1D0
10
-2953.632
20
2866.721
0
VERTEX
8
L1D0
10
-2950.727
20
2871.887
0
VERTEX
8
L1D0
10
-2948.123
20
2876.64
0
VERTEX
8
L1D0
10
-2943.734
20
2884.214
0
VERTEX
8
L1D0
10
-2940.234
20
2890.416
0
VERTEX
8
L1D0
10
-2937.392
20
2895.393
0
VERTEX
8
L1D0
10
-2935.061
20
2899.208
0
VERTEX
8
L1D0
10
-2932.212
20
2903.667
0
VERTEX
8
L1D0
10
-2929.16
20
2908.826
0
VERTEX
8
L1D0
10
-2925.926
20
2913.866
0
VERTEX
8
L1D0
10
-2923.203
20
2918.325
0
VERTEX
8
L1D0
10
-2920.809
20
2922.077
0
VERTEX
8
L1D0
10
-2917.841
20
2927.642
0
VERTEX
8
L1D0
10
-2914.796
20
2932.745
0
VERTEX
8
L1D0
10
-2911.562
20
2938.296
0
VERTEX
8
L1D0
10
-2908.503
20
2943.777
0
VERTEX
8
L1D0
10
-2905.472
20
2950.434
0
VERTEX
8
L1D0
10
-2902.56
20
2956.251
0
VERTEX
8
L1D0
10
-2899.515
20
2962.649
0
VERTEX
8
L1D0
10
-2895.105
20
2972.708
0
VERTEX
8
L1D0
10
-2892.977
20
2977.748
0
VERTEX
8
L1D0
10
-2888.84
20
2989.13
0
VERTEX
8
L1D0
10
-2886.572
20
2995.521
0
VERTEX
8
L1D0
10
-2880.216
20
3014.645
0
VERTEX
8
L1D0
10
-2878.151
20
3019.356
0
VERTEX
8
L1D0
10
-2875.694
20
3024.599
0
VERTEX
8
L1D0
10
-2875.26
20
3026.202
0
VERTEX
8
L1D0
10
-2870.976
20
3032.922
0
VERTEX
8
L1D0
10
-2868.449
20
3035.939
0
VERTEX
8
L1D0
10
-2865.908
20
3038.76
0
VERTEX
8
L1D0
10
-2863.143
20
3041.063
0
VERTEX
8
L1D0
10
-2860.616
20
3043.688
0
VERTEX
8
L1D0
10
-2857.011
20
3046.215
0
VERTEX
8
L1D0
10
-2854.869
20
3047.678
0
VERTEX
8
L1D0
10
-2852.72
20
3049.043
0
VERTEX
8
L1D0
10
-2849.213
20
3050.793
0
VERTEX
8
L1D0
10
-2846.294
20
3052.158
0
VERTEX
8
L1D0
10
-2842.682
20
3053.621
0
VERTEX
8
L1D0
10
-2838.783
20
3055.077
0
VERTEX
8
L1D0
10
-2837.495
20
3055.497
0
VERTEX
8
L1D0
10
-2837.495
20
3033.608
0
VERTEX
8
L1D0
10
-2839.245
20
3032.936
0
VERTEX
8
L1D0
10
-2841.681
20
3031.445
0
VERTEX
8
L1D0
10
-2844.32
20
3029.282
0
VERTEX
8
L1D0
10
-2845.566
20
3027.987
0
VERTEX
8
L1D0
10
-2846.553
20
3026.979
0
VERTEX
8
L1D0
10
-2848.31
20
3025.362
0
VERTEX
8
L1D0
10
-2850.543
20
3022.394
0
VERTEX
8
L1D0
10
-2853.266
20
3018.096
0
VERTEX
8
L1D0
10
-2858.061
20
3009.78
0
VERTEX
8
L1D0
10
-2860.364
20
3004.509
0
VERTEX
8
L1D0
10
-2862.723
20
2997.621
0
VERTEX
8
L1D0
10
-2864.55
20
2991.944
0
VERTEX
8
L1D0
10
-2866.65
20
2984.454
0
VERTEX
8
L1D0
10
-2867.336
20
2981.213
0
VERTEX
8
L1D0
10
-2868.813
20
2975.606
0
VERTEX
8
L1D0
10
-2870.444
20
2969.25
0
VERTEX
8
L1D0
10
-2871.795
20
2963.237
0
VERTEX
8
L1D0
10
-2873.216
20
2957.427
0
VERTEX
8
L1D0
10
-2876.478
20
2946.017
0
VERTEX
8
L1D0
10
-2877.29
20
2943.455
0
VERTEX
8
L1D0
10
-2878.704
20
2939.871
0
VERTEX
8
L1D0
10
-2879.985
20
2936.154
0
VERTEX
8
L1D0
10
-2881.203
20
2932.976
0
VERTEX
8
L1D0
10
-2881.539
20
2930.337
0
VERTEX
8
L1D0
10
-2881.539
20
2928.65
0
VERTEX
8
L1D0
10
-2880.944
20
2927.502
0
VERTEX
8
L1D0
10
-2879.726
20
2926.62
0
VERTEX
8
L1D0
10
-2877.423
20
2926.011
0
VERTEX
8
L1D0
10
-2874.854
20
2925.612
0
VERTEX
8
L1D0
10
-2865.089
20
2925.731
0
VERTEX
8
L1D0
10
-2858.81
20
2925.591
0
VERTEX
8
L1D0
10
-2854.134
20
2925.458
0
VERTEX
8
L1D0
10
-2851.026
20
2924.849
0
VERTEX
8
L1D0
10
-2849.136
20
2924.247
0
VERTEX
8
L1D0
10
-2846.973
20
2922.21
0
VERTEX
8
L1D0
10
-2845.685
20
2920.187
0
VERTEX
8
L1D0
10
-2843.732
20
2916.939
0
VERTEX
8
L1D0
10
-2842.983
20
2914.377
0
VERTEX
8
L1D0
10
-2842.64
20
2911.703
0
VERTEX
8
L1D0
10
-2842.64
20
2908.665
0
VERTEX
8
L1D0
10
-2843.039
20
2905.956
0
VERTEX
8
L1D0
10
-2843.921
20
2903.121
0
VERTEX
8
L1D0
10
-2845.202
20
2900.286
0
VERTEX
8
L1D0
10
-2847.099
20
2897.304
0
VERTEX
8
L1D0
10
-2851.355
20
2889.807
0
VERTEX
8
L1D0
10
-2856.647
20
2880.707
0
VERTEX
8
L1D0
10
-2860.637
20
2874.092
0
VERTEX
8
L1D0
10
-2864.9
20
2866.917
0
VERTEX
8
L1D0
10
-2868.68
20
2860.778
0
VERTEX
8
L1D0
10
-2871.389
20
2856.116
0
VERTEX
8
L1D0
10
-2878.844
20
2843.159
0
VERTEX
8
L1D0
10
-2882.694
20
2836.397
0
VERTEX
8
L1D0
10
-2887.02
20
2828.361
0
VERTEX
8
L1D0
10
-2889.869
20
2822.817
0
VERTEX
8
L1D0
10
-2891.283
20
2820.108
0
VERTEX
8
L1D0
10
-2893.74
20
2814.851
0
VERTEX
8
L1D0
10
-2894.888
20
2812.485
0
VERTEX
8
L1D0
10
-2897.051
20
2807.627
0
VERTEX
8
L1D0
10
-2901.51
20
2796.413
0
VERTEX
8
L1D0
10
-2903.876
20
2788.902
0
VERTEX
8
L1D0
10
-2905.563
20
2782.077
0
VERTEX
8
L1D0
10
-2907.005
20
2775.686
0
VERTEX
8
L1D0
10
-2908.349
20
2768.798
0
VERTEX
8
L1D0
10
-2909.504
20
2761.497
0
VERTEX
8
L1D0
10
-2910.666
20
2750.633
0
VERTEX
8
L1D0
10
-2911.485
20
2745.362
0
VERTEX
8
L1D0
10
-2912.36
20
2740.224
0
VERTEX
8
L1D0
10
-2913.438
20
2736.234
0
VERTEX
8
L1D0
10
-2914.656
20
2731.509
0
VERTEX
8
L1D0
10
-2916.21
20
2726.714
0
VERTEX
8
L1D0
10
-2917.778
20
2722.92
0
VERTEX
8
L1D0
10
-2919.528
20
2719.616
0
VERTEX
8
L1D0
10
-2922.3
20
2716.235
0
VERTEX
8
L1D0
10
-2925.002
20
2714.345
0
VERTEX
8
L1D0
10
-2927.774
20
2713.19
0
VERTEX
8
L1D0
10
-2931.092
20
2712.714
0
VERTEX
8
L1D0
10
-2933.927
20
2713.19
0
VERTEX
8
L1D0
10
-2937.105
20
2714.009
0
VERTEX
8
L1D0
10
-2940.29
20
2715.696
0
VERTEX
8
L1D0
10
-2941.977
20
2716.781
0
VERTEX
8
L1D0
10
-2944.406
20
2718.258
0
VERTEX
8
L1D0
10
-2947.521
20
2721.639
0
VERTEX
8
L1D0
10
-2950.16
20
2725.769
0
VERTEX
8
L1D0
10
-2951.987
20
2729.885
0
VERTEX
8
L1D0
10
-2953.268
20
2734.148
0
VERTEX
8
L1D0
10
-2954.178
20
2739.048
0
VERTEX
8
L1D0
10
-2954.99
20
2745.467
0
VERTEX
8
L1D0
10
-2955.669
20
2751.207
0
VERTEX
8
L1D0
10
-2956.614
20
2763.989
0
VERTEX
8
L1D0
10
-2957.153
20
2767.706
0
VERTEX
8
L1D0
10
-2957.895
20
2773.313
0
VERTEX
8
L1D0
10
-2958.917
20
2776.218
0
VERTEX
8
L1D0
10
-2960.135
20
2777.975
0
VERTEX
8
L1D0
10
-2961.752
20
2778.717
0
VERTEX
8
L1D0
10
-2963.439
20
2778.92
0
VERTEX
8
L1D0
10
-2965.329
20
2778.444
0
VERTEX
8
L1D0
10
-2966.547
20
2777.702
0
VERTEX
8
L1D0
10
-2967.702
20
2775.812
0
VERTEX
8
L1D0
10
-2969.046
20
2774.181
0
VERTEX
8
L1D0
10
-2970.74
20
2770.737
0
VERTEX
8
L1D0
10
-2973.722
20
2764.388
0
VERTEX
8
L1D0
10
-2976.767
20
2756.751
0
VERTEX
8
L1D0
10
-2978.993
20
2751.347
0
VERTEX
8
L1D0
10
-2981.163
20
2745.152
0
VERTEX
8
L1D0
10
-2982.794
20
2740.413
0
VERTEX
8
L1D0
10
-2984.957
20
2733.798
0
VERTEX
8
L1D0
10
-2986.98
20
2726.973
0
VERTEX
8
L1D0
10
-2988.401
20
2721.765
0
VERTEX
8
L1D0
10
-2990.844
20
2712.329
0
VERTEX
8
L1D0
10
-2993.147
20
2701.647
0
VERTEX
8
L1D0
10
-2994.764
20
2694.416
0
VERTEX
8
L1D0
10
-2996.325
20
2684.847
0
VERTEX
8
L1D0
10
-2998.628
20
2669.307
0
VERTEX
8
L1D0
10
-2999.636
20
2660.186
0
VERTEX
8
L1D0
10
-3000.119
20
2653.718
0
VERTEX
8
L1D0
10
-3000.588
20
2650.001
0
VERTEX
8
L1D0
10
-3001.337
20
2640.6
0
VERTEX
8
L1D0
10
-2998.488
20
2639.186
0
VERTEX
8
L1D0
10
-2993.903
20
2637.023
0
VERTEX
8
L1D0
10
-2989.094
20
2634.797
0
VERTEX
8
L1D0
10
-2984.565
20
2633.103
0
VERTEX
8
L1D0
10
-2978.349
20
2632.025
0
VERTEX
8
L1D0
10
-2974.373
20
2632.158
0
VERTEX
8
L1D0
10
-2970.789
20
2631.752
0
VERTEX
8
L1D0
10
-2958.623
20
2632.221
0
VERTEX
8
L1D0
10
-2956.523
20
2632.431
0
VERTEX
8
L1D0
10
-2954.766
20
2633.166
0
VERTEX
8
L1D0
10
-2954.094
20
2634.188
0
VERTEX
8
L1D0
10
-2953.884
20
2635.805
0
VERTEX
8
L1D0
10
-2954.493
20
2636.687
0
VERTEX
8
L1D0
10
-2956.796
20
2639.795
0
VERTEX
8
L1D0
10
-2959.638
20
2642.763
0
VERTEX
8
L1D0
10
-2962.41
20
2645.136
0
VERTEX
8
L1D0
10
-2965.266
20
2647.887
0
VERTEX
8
L1D0
10
-2969.928
20
2651.534
0
VERTEX
8
L1D0
10
-2974.457
20
2655.384
0
VERTEX
8
L1D0
10
-2977.166
20
2658.569
0
VERTEX
8
L1D0
10
-2978.517
20
2661.404
0
VERTEX
8
L1D0
10
-2978.993
20
2665.317
0
VERTEX
8
L1D0
10
-2978.993
20
2670.189
0
VERTEX
8
L1D0
10
-2978.853
20
2673.227
0
VERTEX
8
L1D0
10
-2977.166
20
2673.164
0
VERTEX
8
L1D0
10
-2972.567
20
2673.5
0
VERTEX
8
L1D0
10
-2969.522
20
2673.696
0
VERTEX
8
L1D0
10
-2963.775
20
2673.437
0
VERTEX
8
L1D0
10
-2955.186
20
2672.618
0
VERTEX
8
L1D0
10
-2948.186
20
2671.869
0
VERTEX
8
L1D0
10
-2941.97
20
2670.924
0
VERTEX
8
L1D0
10
-2933.654
20
2669.573
0
VERTEX
8
L1D0
10
-2926.143
20
2668.425
0
VERTEX
8
L1D0
10
-2916.14
20
2667.543
0
VERTEX
8
L1D0
10
-2908.524
20
2667.144
0
VERTEX
8
L1D0
10
-2904.534
20
2667.144
0
VERTEX
8
L1D0
10
-2899.263
20
2667.207
0
VERTEX
8
L1D0
10
-2893.446
20
2667.879
0
VERTEX
8
L1D0
10
-2886.747
20
2668.425
0
VERTEX
8
L1D0
10
-2881.007
20
2669.174
0
VERTEX
8
L1D0
10
-2868.197
20
2671.274
0
VERTEX
8
L1D0
10
-2859.195
20
2673.024
0
VERTEX
8
L1D0
10
-2851.229
20
2674.179
0
VERTEX
8
L1D0
10
-2844.74
20
2675.523
0
VERTEX
8
L1D0
10
-2840.946
20
2676.741
0
VERTEX
8
L1D0
10
-2832.987
20
2679.401
0
VERTEX
8
L1D0
10
-2825.49
20
2682.096
0
VERTEX
8
L1D0
10
-2809.334
20
2687.57
0
VERTEX
8
L1D0
10
-2803.713
20
2689.803
0
VERTEX
8
L1D0
10
-2795.292
20
2692.232
0
VERTEX
8
L1D0
10
-2791.715
20
2693.177
0
VERTEX
8
L1D0
10
-2787.053
20
2693.513
0
VERTEX
8
L1D0
10
-2781.432
20
2692.974
0
VERTEX
8
L1D0
10
-2776.973
20
2691.693
0
VERTEX
8
L1D0
10
-2771.898
20
2689.593
0
VERTEX
8
L1D0
10
-2767.446
20
2686.758
0
VERTEX
8
L1D0
10
-2763.582
20
2683.58
0
VERTEX
8
L1D0
10
-2760.516
20
2679.639
0
VERTEX
8
L1D0
10
-2758.094
20
2676.125
0
VERTEX
8
L1D0
10
-2755.658
20
2671.995
0
VERTEX
8
L1D0
10
-2754.104
20
2668.824
0
VERTEX
8
L1D0
10
-2750.583
20
2664.092
0
VERTEX
8
L1D0
10
-2747.811
20
2662.139
0
VERTEX
8
L1D0
10
-2746.257
20
2661.593
0
VERTEX
8
L1D0
10
-2745.039
20
2661.39
0
VERTEX
8
L1D0
10
-2742.68
20
2663.28
0
VERTEX
8
L1D0
10
-2739.551
20
2667.788
0
VERTEX
8
L1D0
10
-2732.18
20
2680.416
0
VERTEX
8
L1D0
10
-2727.105
20
2690.489
0
VERTEX
8
L1D0
10
-2723.99
20
2697.09
0
VERTEX
8
L1D0
10
-2722.842
20
2699.729
0
VERTEX
8
L1D0
10
-2720.819
20
2704.251
0
VERTEX
8
L1D0
10
-2719.265
20
2707.499
0
VERTEX
8
L1D0
10
-2717.907
20
2710.943
0
VERTEX
8
L1D0
10
-2715.471
20
2718.377
0
VERTEX
8
L1D0
10
-2714.939
20
2721.086
0
VERTEX
8
L1D0
10
-2715.135
20
2722.43
0
VERTEX
8
L1D0
10
-2716.143
20
2722.899
0
VERTEX
8
L1D0
10
-2718.719
20
2722.43
0
VERTEX
8
L1D0
10
-2722.296
20
2721.009
0
VERTEX
8
L1D0
10
-2725.544
20
2719.595
0
VERTEX
8
L1D0
10
-2731.13
20
2717.222
0
VERTEX
8
L1D0
10
-2737.689
20
2713.778
0
VERTEX
8
L1D0
10
-2744.654
20
2710.866
0
VERTEX
8
L1D0
10
-2749.449
20
2708.78
0
VERTEX
8
L1D0
10
-2756.75
20
2706.953
0
VERTEX
8
L1D0
10
-2762.028
20
2706.407
0
VERTEX
8
L1D0
10
-2765.535
20
2706.953
0
VERTEX
8
L1D0
10
-2767.971
20
2708.57
0
VERTEX
8
L1D0
10
-2770.071
20
2711.076
0
VERTEX
8
L1D0
10
-2770.743
20
2713.841
0
VERTEX
8
L1D0
10
-2770.134
20
2719.791
0
VERTEX
8
L1D0
10
-2766.606
20
2732.825
0
VERTEX
8
L1D0
10
-2764.856
20
2738.901
0
VERTEX
8
L1D0
10
-2761.874
20
2752.761
0
VERTEX
8
L1D0
10
-2760.117
20
2763.842
0
VERTEX
8
L1D0
10
-2759.634
20
2768.826
0
VERTEX
8
L1D0
10
-2759.235
20
2773.691
0
VERTEX
8
L1D0
10
-2758.962
20
2780.586
0
VERTEX
8
L1D0
10
-2758.766
20
2787.551
0
VERTEX
8
L1D0
10
-2758.829
20
2792.612
0
VERTEX
8
L1D0
10
-2759.102
20
2798.352
0
VERTEX
8
L1D0
10
-2759.165
20
2801.852
0
VERTEX
8
L1D0
10
-2759.984
20
2813.136
0
VERTEX
8
L1D0
10
-2761.265
20
2824.287
0
VERTEX
8
L1D0
10
-2762.007
20
2830.034
0
VERTEX
8
L1D0
10
-2762.693
20
2833.94
0
VERTEX
8
L1D0
10
-2763.428
20
2837.181
0
VERTEX
8
L1D0
10
-2764.716
20
2843.936
0
VERTEX
8
L1D0
10
-2766.2
20
2850.894
0
VERTEX
8
L1D0
10
-2767.418
20
2856.438
0
VERTEX
8
L1D0
10
-2769.182
20
2864.208
0
VERTEX
8
L1D0
10
-2780.823
20
2905.473
0
VERTEX
8
L1D0
10
-2782.314
20
2910.884
0
VERTEX
8
L1D0
10
-2785.562
20
2922.434
0
VERTEX
8
L1D0
10
-2787.725
20
2928.783
0
VERTEX
8
L1D0
10
-2789.279
20
2934.803
0
VERTEX
8
L1D0
10
-2790.714
20
2939.99
0
VERTEX
8
L1D0
10
-2792.268
20
2946.402
0
VERTEX
8
L1D0
10
-2793.549
20
2953.577
0
VERTEX
8
L1D0
10
-2793.962
20
2960.262
0
VERTEX
8
L1D0
10
-2794.095
20
2965.064
0
VERTEX
8
L1D0
10
-2794.095
20
2970.867
0
VERTEX
8
L1D0
10
-2793.486
20
2976.411
0
VERTEX
8
L1D0
10
-2792.583
20
2979.981
0
VERTEX
8
L1D0
10
-2790.896
20
2983.838
0
VERTEX
8
L1D0
10
-2788.46
20
2987.142
0
VERTEX
8
L1D0
10
-2786.094
20
2989.718
0
VERTEX
8
L1D0
10
-2782.58
20
2992.686
0
VERTEX
8
L1D0
10
-2779.808
20
2994.912
0
VERTEX
8
L1D0
10
-2776.224
20
2997.411
0
VERTEX
8
L1D0
10
-2772.71
20
2999.105
0
VERTEX
8
L1D0
10
-2769.126
20
3000.519
0
VERTEX
8
L1D0
10
-2763.918
20
3002.01
0
VERTEX
8
L1D0
10
-2760.005
20
3003.095
0
VERTEX
8
L1D0
10
-2751.591
20
3004.943
0
VERTEX
8
L1D0
10
-2747.601
20
3005.615
0
VERTEX
8
L1D0
10
-2743.884
20
3006.434
0
VERTEX
8
L1D0
10
-2737.598
20
3007.652
0
VERTEX
8
L1D0
10
-2731.991
20
3008.996
0
VERTEX
8
L1D0
10
-2727.119
20
3010.011
0
VERTEX
8
L1D0
10
-2723.738
20
3011.432
0
VERTEX
8
L1D0
10
-2721.239
20
3012.51
0
VERTEX
8
L1D0
10
-2720.084
20
3013.658
0
VERTEX
8
L1D0
10
-2720.154
20
3014.813
0
VERTEX
8
L1D0
10
-2720.903
20
3015.555
0
VERTEX
8
L1D0
10
-2722.583
20
3016.094
0
VERTEX
8
L1D0
10
-2725.355
20
3016.5
0
VERTEX
8
L1D0
10
-2729.478
20
3016.703
0
VERTEX
8
L1D0
10
-2733.608
20
3017.039
0
VERTEX
8
L1D0
10
-2738.403
20
3017.172
0
VERTEX
8
L1D0
10
-2742.47
20
3017.375
0
VERTEX
8
L1D0
10
-2748.588
20
3017.249
0
VERTEX
8
L1D0
10
-2756.967
20
3017.382
0
VERTEX
8
L1D0
10
-2761.034
20
3017.319
0
VERTEX
8
L1D0
10
-2765.766
20
3017.186
0
VERTEX
8
L1D0
10
-2774.481
20
3016.773
0
VERTEX
8
L1D0
10
-2779.017
20
3016.304
0
VERTEX
8
L1D0
10
-2780.438
20
3015.905
0
VERTEX
8
L1D0
10
-2783.343
20
3015.569
0
VERTEX
8
L1D0
10
-2785.506
20
3016.164
0
VERTEX
8
L1D0
10
-2787.809
20
3017.382
0
VERTEX
8
L1D0
10
-2790.441
20
3019.685
0
VERTEX
8
L1D0
10
-2793.885
20
3022.59
0
VERTEX
8
L1D0
10
-2797.133
20
3025.152
0
VERTEX
8
L1D0
10
-2798.757
20
3026.097
0
VERTEX
8
L1D0
10
-2799.135
20
3025.838
0
VERTEX
8
L1D0
10
-2799.744
20
3025.572
0
VERTEX
8
L1D0
10
-2800.479
20
3024.284
0
VERTEX
8
L1D0
10
-2801.165
20
3021.918
0
VERTEX
8
L1D0
10
-2802.033
20
3016.178
0
VERTEX
8
L1D0
10
-2802.782
20
3013.476
0
VERTEX
8
L1D0
10
-2803.664
20
3011.376
0
VERTEX
8
L1D0
10
-2805.078
20
3009.213
0
VERTEX
8
L1D0
10
-2806.527
20
3007.526
0
VERTEX
8
L1D0
10
-2809.502
20
3005.3
0
VERTEX
8
L1D0
10
-2812.82
20
3003.669
0
VERTEX
8
L1D0
10
-2816.397
20
3002.787
0
VERTEX
8
L1D0
10
-2820.254
20
3002.661
0
VERTEX
8
L1D0
10
-2824.244
20
3003.536
0
VERTEX
8
L1D0
10
-2826.939
20
3005.027
0
VERTEX
8
L1D0
10
-2829.039
20
3006.581
0
VERTEX
8
L1D0
10
-2830.866
20
3008.268
0
VERTEX
8
L1D0
10
-2832.224
20
3009.962
0
VERTEX
8
L1D0
10
-2833.778
20
3012.657
0
VERTEX
8
L1D0
10
-2835.332
20
3016.311
0
VERTEX
8
L1D0
10
-2836.074
20
3019.419
0
VERTEX
8
L1D0
10
-2836.613
20
3023.262
0
VERTEX
8
L1D0
10
-2836.214
20
3025.971
0
VERTEX
8
L1D0
10
-2835.801
20
3027.665
0
VERTEX
8
L1D0
10
-2835.36
20
3028.61
0
VERTEX
8
L1D0
10
-2834.996
20
3029.415
0
VERTEX
8
L1D0
10
-2834.45
20
3031.382
0
VERTEX
8
L1D0
10
-2834.583
20
3032.187
0
VERTEX
8
L1D0
10
-2835.255
20
3032.796
0
VERTEX
8
L1D0
10
-2836.41
20
3033.405
0
VERTEX
8
L1D0
10
-2837.495
20
3033.608
0
VERTEX
8
L1D0
10
-2837.495
20
3055.497
0
VERTEX
8
L1D0
10
-2834.499
20
3056.442
0
VERTEX
8
L1D0
10
-2831.678
20
3057.03
0
VERTEX
8
L1D0
10
-2828.556
20
3057.324
0
VERTEX
8
L1D0
10
-2824.356
20
3057.422
0
VERTEX
8
L1D0
10
-2818.581
20
3057.282
0
VERTEX
8
L1D0
10
-2818.581
20
3036.401
0
VERTEX
8
L1D0
10
-2821.206
20
3035.981
0
VERTEX
8
L1D0
10
-2823.243
20
3035.232
0
VERTEX
8
L1D0
10
-2824.86
20
3034.238
0
VERTEX
8
L1D0
10
-2826.603
20
3032.943
0
VERTEX
8
L1D0
10
-2828.066
20
3031.452
0
VERTEX
8
L1D0
10
-2829.228
20
3029.667
0
VERTEX
8
L1D0
10
-2830.145
20
3027.882
0
VERTEX
8
L1D0
10
-2830.971
20
3025.803
0
VERTEX
8
L1D0
10
-2831.475
20
3024.144
0
VERTEX
8
L1D0
10
-2831.636
20
3022.688
0
VERTEX
8
L1D0
10
-2831.678
20
3020.651
0
VERTEX
8
L1D0
10
-2831.433
20
3019.286
0
VERTEX
8
L1D0
10
-2830.845
20
3018.95
0
VERTEX
8
L1D0
10
-2830.439
20
3019.328
0
VERTEX
8
L1D0
10
-2829.48
20
3020.154
0
VERTEX
8
L1D0
10
-2828.528
20
3021.771
0
VERTEX
8
L1D0
10
-2827.73
20
3023.43
0
VERTEX
8
L1D0
10
-2826.939
20
3024.851
0
VERTEX
8
L1D0
10
-2826.113
20
3026.139
0
VERTEX
8
L1D0
10
-2824.86
20
3027.63
0
VERTEX
8
L1D0
10
-2823.53
20
3028.757
0
VERTEX
8
L1D0
10
-2821.997
20
3029.667
0
VERTEX
8
L1D0
10
-2819.96
20
3030.542
0
VERTEX
8
L1D0
10
-2818.343
20
3030.752
0
VERTEX
8
L1D0
10
-2816.348
20
3030.752
0
VERTEX
8
L1D0
10
-2814.549
20
3030.374
0
VERTEX
8
L1D0
10
-2813.73
20
3029.912
0
VERTEX
8
L1D0
10
-2812.89
20
3029.415
0
VERTEX
8
L1D0
10
-2811.644
20
3028.505
0
VERTEX
8
L1D0
10
-2810.727
20
3027.546
0
VERTEX
8
L1D0
10
-2809.733
20
3026.258
0
VERTEX
8
L1D0
10
-2809.068
20
3024.767
0
VERTEX
8
L1D0
10
-2808.48
20
3023.108
0
VERTEX
8
L1D0
10
-2807.444
20
3020.483
0
VERTEX
8
L1D0
10
-2807.031
20
3019.202
0
VERTEX
8
L1D0
10
-2806.905
20
3024.221
0
VERTEX
8
L1D0
10
-2806.989
20
3026.013
0
VERTEX
8
L1D0
10
-2807.528
20
3028.127
0
VERTEX
8
L1D0
10
-2808.284
20
3030.122
0
VERTEX
8
L1D0
10
-2808.333
20
3030.227
0
VERTEX
8
L1D0
10
-2809.355
20
3032.243
0
VERTEX
8
L1D0
10
-2810.643
20
3033.657
0
VERTEX
8
L1D0
10
-2812.386
20
3034.938
0
VERTEX
8
L1D0
10
-2814.227
20
3035.855
0
VERTEX
8
L1D0
10
-2815.886
20
3036.191
0
VERTEX
8
L1D0
10
-2818.581
20
3036.401
0
VERTEX
8
L1D0
10
-2818.581
20
3057.282
0
VERTEX
8
L1D0
10
-2816.754
20
3057.233
0
VERTEX
8
L1D0
10
-2814.521
20
3057.03
0
VERTEX
8
L1D0
10
-2812.379
20
3056.736
0
VERTEX
8
L1D0
10
-2810.034
20
3056.547
0
VERTEX
8
L1D0
10
-2807.304
20
3056.148
0
VERTEX
8
L1D0
10
-2804.966
20
3055.574
0
VERTEX
8
L1D0
10
-2802.341
20
3054.797
0
VERTEX
8
L1D0
10
-2799.317
20
3053.621
0
VERTEX
8
L1D0
10
-2797.175
20
3052.55
0
VERTEX
8
L1D0
10
-2794.053
20
3050.793
0
VERTEX
8
L1D0
10
-2790.378
20
3048.035
0
VERTEX
8
L1D0
10
-2787.851
20
3045.795
0
VERTEX
8
L1D0
10
-2785.709
20
3043.947
0
VERTEX
8
L1D0
10
-2783.861
20
3042.197
0
VERTEX
8
L1D0
10
-2781.614
20
3039.852
0
VERTEX
8
L1D0
10
-2779.472
20
3037.514
0
VERTEX
8
L1D0
10
-2777.624
20
3035.568
0
VERTEX
8
L1D0
10
-2774.6
20
3032.25
0
VERTEX
8
L1D0
10
-2770.757
20
3032.481
0
VERTEX
8
L1D0
10
-2768.727
20
3032.684
0
VERTEX
8
L1D0
10
-2765.276
20
3033.069
0
VERTEX
8
L1D0
10
-2762.784
20
3033.272
0
VERTEX
8
L1D0
10
-2759.921
20
3033.573
0
VERTEX
8
L1D0
10
-2757.765
20
3033.678
0
VERTEX
8
L1D0
10
-2752.97
20
3033.804
0
VERTEX
8
L1D0
10
-2748.378
20
3033.839
0
VERTEX
8
L1D0
10
-2743.317
20
3033.552
0
VERTEX
8
L1D0
10
-2733.671
20
3032.649
0
VERTEX
8
L1D0
10
-2729.583
20
3032.04
0
VERTEX
8
L1D0
10
-2726.195
20
3031.347
0
VERTEX
8
L1D0
10
-2723.486
20
3030.948
0
VERTEX
8
L1D0
10
-2716.745
20
3029.303
0
VERTEX
8
L1D0
10
-2713.595
20
3028.295
0
VERTEX
8
L1D0
10
-2710.445
20
3027.21
0
VERTEX
8
L1D0
10
-2708.072
20
3026.258
0
VERTEX
8
L1D0
10
-2704.866
20
3024.816
0
VERTEX
8
L1D0
10
-2702.969
20
3023.745
0
VERTEX
8
L1D0
10
-2701.548
20
3022.863
0
VERTEX
8
L1D0
10
-2700.036
20
3021.743
0
VERTEX
8
L1D0
10
-2697.992
20
3019.832
0
VERTEX
8
L1D0
10
-2696.291
20
3017.109
0
VERTEX
8
L1D0
10
-2695.479
20
3014.862
0
VERTEX
8
L1D0
10
-2695.101
20
3012.902
0
VERTEX
8
L1D0
10
-2694.989
20
3011.439
0
VERTEX
8
L1D0
10
-2694.989
20
3010.067
0
VERTEX
8
L1D0
10
-2695.262
20
3008.94
0
VERTEX
8
L1D0
10
-2696.067
20
3007.596
0
VERTEX
8
L1D0
10
-2697.089
20
3006.252
0
VERTEX
8
L1D0
10
-2697.999
20
3005.426
0
VERTEX
8
L1D0
10
-2699.028
20
3004.53
0
VERTEX
8
L1D0
10
-2700.393
20
3003.599
0
VERTEX
8
L1D0
10
-2701.94
20
3002.633
0
VERTEX
8
L1D0
10
-2703.354
20
3001.835
0
VERTEX
8
L1D0
10
-2705.216
20
3000.911
0
VERTEX
8
L1D0
10
-2706.728
20
3000.197
0
VERTEX
8
L1D0
10
-2708.87
20
2999.294
0
VERTEX
8
L1D0
10
-2711.355
20
2998.349
0
VERTEX
8
L1D0
10
-2712.839
20
2997.845
0
VERTEX
8
L1D0
10
-2721.015
20
2995.374
0
VERTEX
8
L1D0
10
-2725.887
20
2994.03
0
VERTEX
8
L1D0
10
-2731.76
20
2992.784
0
VERTEX
8
L1D0
10
-2736.191
20
2991.797
0
VERTEX
8
L1D0
10
-2740.538
20
2990.726
0
VERTEX
8
L1D0
10
-2743.31
20
2989.956
0
VERTEX
8
L1D0
10
-2745.956
20
2989.2
0
VERTEX
8
L1D0
10
-2749.407
20
2988.297
0
VERTEX
8
L1D0
10
-2752.529
20
2987.163
0
VERTEX
8
L1D0
10
-2756.288
20
2985.672
0
VERTEX
8
L1D0
10
-2758.899
20
2984.363
0
VERTEX
8
L1D0
10
-2761.58
20
2983.103
0
VERTEX
8
L1D0
10
-2764.107
20
2981.472
0
VERTEX
8
L1D0
10
-2766.543
20
2979.617
0
VERTEX
8
L1D0
10
-2767.635
20
2978.616
0
VERTEX
8
L1D0
10
-2769.035
20
2977.265
0
VERTEX
8
L1D0
10
-2769.987
20
2976.138
0
VERTEX
8
L1D0
10
-2772.087
20
2973.324
0
VERTEX
8
L1D0
10
-2773.235
20
2971.308
0
VERTEX
8
L1D0
10
-2774.418
20
2968.662
0
VERTEX
8
L1D0
10
-2775.377
20
2966.114
0
VERTEX
8
L1D0
10
-2775.93
20
2964.056
0
VERTEX
8
L1D0
10
-2776.07
20
2962.551
0
VERTEX
8
L1D0
10
-2776.203
20
2960.22
0
VERTEX
8
L1D0
10
-2776.182
20
2958.092
0
VERTEX
8
L1D0
10
-2775.86
20
2954.613
0
VERTEX
8
L1D0
10
-2775.398
20
2952.051
0
VERTEX
8
L1D0
10
-2774.747
20
2949.174
0
VERTEX
8
L1D0
10
-2774.096
20
2946.717
0
VERTEX
8
L1D0
10
-2773.347
20
2944.155
0
VERTEX
8
L1D0
10
-2772.528
20
2941.467
0
VERTEX
8
L1D0
10
-2771.408
20
2937.911
0
VERTEX
8
L1D0
10
-2768.678
20
2929.889
0
VERTEX
8
L1D0
10
-2767.229
20
2926.046
0
VERTEX
8
L1D0
10
-2766.102
20
2922.665
0
VERTEX
8
L1D0
10
-2765.157
20
2920.131
0
VERTEX
8
L1D0
10
-2757.569
20
2899.418
0
VERTEX
8
L1D0
10
-2753.124
20
2896.275
0
VERTEX
8
L1D0
10
-2749.239
20
2893.685
0
VERTEX
8
L1D0
10
-2741.483
20
2888.435
0
VERTEX
8
L1D0
10
-2736.597
20
2885.243
0
VERTEX
8
L1D0
10
-2728.148
20
2879.321
0
VERTEX
8
L1D0
10
-2719.482
20
2872.881
0
VERTEX
8
L1D0
10
-2710.431
20
2865.447
0
VERTEX
8
L1D0
10
-2706.056
20
2861.457
0
VERTEX
8
L1D0
10
-2703.683
20
2859.161
0
VERTEX
8
L1D0
10
-2699.931
20
2855.262
0
VERTEX
8
L1D0
10
-2694.933
20
2849.795
0
VERTEX
8
L1D0
10
-2692.007
20
2846.316
0
VERTEX
8
L1D0
10
-2688.92
20
2842.032
0
VERTEX
8
L1D0
10
-2686.232
20
2838.399
0
VERTEX
8
L1D0
10
-2684.328
20
2835.144
0
VERTEX
8
L1D0
10
-2682.291
20
2831.364
0
VERTEX
8
L1D0
10
-2681.444
20
2829.684
0
VERTEX
8
L1D0
10
-2680.751
20
2827.92
0
VERTEX
8
L1D0
10
-2680.233
20
2826.24
0
VERTEX
8
L1D0
10
-2679.918
20
2824.476
0
VERTEX
8
L1D0
10
-2679.89
20
2823.02
0
VERTEX
8
L1D0
10
-2680.107
20
2821.718
0
VERTEX
8
L1D0
10
-2680.422
20
2820.92
0
VERTEX
8
L1D0
10
-2681.003
20
2819.898
0
VERTEX
8
L1D0
10
-2682.018
20
2818.82
0
VERTEX
8
L1D0
10
-2683.194
20
2817.959
0
VERTEX
8
L1D0
10
-2684.307
20
2817.357
0
VERTEX
8
L1D0
10
-2685.749
20
2816.874
0
VERTEX
8
L1D0
10
-2687.429
20
2816.223
0
VERTEX
8
L1D0
10
-2688.962
20
2815.88
0
VERTEX
8
L1D0
10
-2690.243
20
2815.614
0
VERTEX
8
L1D0
10
-2691.776
20
2815.362
0
VERTEX
8
L1D0
10
-2693.771
20
2815.236
0
VERTEX
8
L1D0
10
-2696.291
20
2815.271
0
VERTEX
8
L1D0
10
-2698.538
20
2815.334
0
VERTEX
8
L1D0
10
-2703.081
20
2816.202
0
VERTEX
8
L1D0
10
-2708.765
20
2817.686
0
VERTEX
8
L1D0
10
-2715.114
20
2819.744
0
VERTEX
8
L1D0
10
-2720.714
20
2821.886
0
VERTEX
8
L1D0
10
-2727.224
20
2824.518
0
VERTEX
8
L1D0
10
-2732.999
20
2826.828
0
VERTEX
8
L1D0
10
-2738.018
20
2828.886
0
VERTEX
8
L1D0
10
-2738.186
20
2823.867
0
VERTEX
8
L1D0
10
-2738.522
20
2809.314
0
VERTEX
8
L1D0
10
-2739.054
20
2795.321
0
VERTEX
8
L1D0
10
-2739.453
20
2782.259
0
VERTEX
8
L1D0
10
-2739.936
20
2771.717
0
VERTEX
8
L1D0
10
-2740.104
20
2767.587
0
VERTEX
8
L1D0
10
-2741.091
20
2757.066
0
VERTEX
8
L1D0
10
-2741.511
20
2754.581
0
VERTEX
8
L1D0
10
-2742.323
20
2750.15
0
VERTEX
8
L1D0
10
-2743.275
20
2746.482
0
VERTEX
8
L1D0
10
-2744.493
20
2741.603
0
VERTEX
8
L1D0
10
-2745.984
20
2733.203
0
VERTEX
8
L1D0
10
-2745.956
20
2727.617
0
VERTEX
8
L1D0
10
-2742.302
20
2729.339
0
VERTEX
8
L1D0
10
-2739.614
20
2730.683
0
VERTEX
8
L1D0
10
-2733.965
20
2733.42
0
VERTEX
8
L1D0
10
-2728.596
20
2736.059
0
VERTEX
8
L1D0
10
-2723.43
20
2738.201
0
VERTEX
8
L1D0
10
-2717.844
20
2740.301
0
VERTEX
8
L1D0
10
-2713.749
20
2741.421
0
VERTEX
8
L1D0
10
-2711.901
20
2741.834
0
VERTEX
8
L1D0
10
-2709.066
20
2742.408
0
VERTEX
8
L1D0
10
-2707.904
20
2742.548
0
VERTEX
8
L1D0
10
-2704.04
20
2742.926
0
VERTEX
8
L1D0
10
-2702.703
20
2742.926
0
VERTEX
8
L1D0
10
-2700.141
20
2742.863
0
VERTEX
8
L1D0
10
-2698.608
20
2742.765
0
VERTEX
8
L1D0
10
-2695.64
20
2742.24
0
VERTEX
8
L1D0
10
-2693.19
20
2741.603
0
VERTEX
8
L1D0
10
-2690.81
20
2740.728
0
VERTEX
8
L1D0
10
-2688.99
20
2739.741
0
VERTEX
8
L1D0
10
-2687.541
20
2738.285
0
VERTEX
8
L1D0
10
-2686.904
20
2736.479
0
VERTEX
8
L1D0
10
-2686.547
20
2734.736
0
VERTEX
8
L1D0
10
-2686.61
20
2732.174
0
VERTEX
8
L1D0
10
-2686.904
20
2729.78
0
VERTEX
8
L1D0
10
-2687.072
20
2727.512
0
VERTEX
8
L1D0
10
-2687.541
20
2725.461
0
VERTEX
8
L1D0
10
-2688.185
20
2723.193
0
VERTEX
8
L1D0
10
-2689.116
20
2720.925
0
VERTEX
8
L1D0
10
-2690.453
20
2717.544
0
VERTEX
8
L1D0
10
-2697.95
20
2700.471
0
VERTEX
8
L1D0
10
-2702.087
20
2692.071
0
VERTEX
8
L1D0
10
-2703.963
20
2687.871
0
VERTEX
8
L1D0
10
-2706.749
20
2682.768
0
VERTEX
8
L1D0
10
-2709.395
20
2677.728
0
VERTEX
8
L1D0
10
-2711.012
20
2674.431
0
VERTEX
8
L1D0
10
-2715.177
20
2667.011
0
VERTEX
8
L1D0
10
-2717.886
20
2662.412
0
VERTEX
8
L1D0
10
-2721.246
20
2657.12
0
VERTEX
8
L1D0
10
-2725.712
20
2650.463
0
VERTEX
8
L1D0
10
-2728.554
20
2647.229
0
VERTEX
8
L1D0
10
-2731.403
20
2644.058
0
VERTEX
8
L1D0
10
-2734.182
20
2641.538
0
VERTEX
8
L1D0
10
-2737.353
20
2639.669
0
VERTEX
8
L1D0
10
-2739.446
20
2638.605
0
VERTEX
8
L1D0
10
-2742.743
20
2637.891
0
VERTEX
8
L1D0
10
-2746.103
20
2638.283
0
VERTEX
8
L1D0
10
-2748.945
20
2639.571
0
VERTEX
8
L1D0
10
-2750.436
20
2640.474
0
VERTEX
8
L1D0
10
-2751.794
20
2641.58
0
VERTEX
8
L1D0
10
-2753.607
20
2643.512
0
VERTEX
8
L1D0
10
-2757.996
20
2648.559
0
VERTEX
8
L1D0
10
-2760.453
20
2652.311
0
VERTEX
8
L1D0
10
-2765.052
20
2659.094
0
VERTEX
8
L1D0
10
-2766.963
20
2661.957
0
VERTEX
8
L1D0
10
-2768.832
20
2663.903
0
VERTEX
8
L1D0
10
-2770.652
20
2666.486
0
VERTEX
8
L1D0
10
-2772.269
20
2667.9
0
VERTEX
8
L1D0
10
-2774.586
20
2670.035
0
VERTEX
8
L1D0
10
-2776.98
20
2671.848
0
VERTEX
8
L1D0
10
-2779.5
20
2673.654
0
VERTEX
8
L1D0
10
-2784.288
20
2672.037
0
VERTEX
8
L1D0
10
-2788.362
20
2670.623
0
VERTEX
8
L1D0
10
-2793.416
20
2668.803
0
VERTEX
8
L1D0
10
-2797.035
20
2667.648
0
VERTEX
8
L1D0
10
-2801.109
20
2666.22
0
VERTEX
8
L1D0
10
-2804.21
20
2665.191
0
VERTEX
8
L1D0
10
-2812.148
20
2662.601
0
VERTEX
8
L1D0
10
-2819.652
20
2660.529
0
VERTEX
8
L1D0
10
-2835.5
20
2656.595
0
VERTEX
8
L1D0
10
-2841.051
20
2655.552
0
VERTEX
8
L1D0
10
-2847.519
20
2654.523
0
VERTEX
8
L1D0
10
-2851.53
20
2653.935
0
VERTEX
8
L1D0
10
-2860.049
20
2652.899
0
VERTEX
8
L1D0
10
-2866.65
20
2652.381
0
VERTEX
8
L1D0
10
-2876.093
20
2651.87
0
VERTEX
8
L1D0
10
-2880.881
20
2651.667
0
VERTEX
8
L1D0
10
-2889.092
20
2651.219
0
VERTEX
8
L1D0
10
-2895.812
20
2651.282
0
VERTEX
8
L1D0
10
-2906.207
20
2651.282
0
VERTEX
8
L1D0
10
-2916.875
20
2651.345
0
VERTEX
8
L1D0
10
-2925.737
20
2651.87
0
VERTEX
8
L1D0
10
-2930.973
20
2652.059
0
VERTEX
8
L1D0
10
-2937.245
20
2652.773
0
VERTEX
8
L1D0
10
-2942.439
20
2653.158
0
VERTEX
8
L1D0
10
-2944.833
20
2653.088
0
VERTEX
8
L1D0
10
-2946.387
20
2653.088
0
VERTEX
8
L1D0
10
-2946.639
20
2652.57
0
VERTEX
8
L1D0
10
-2945.799
20
2650.764
0
VERTEX
8
L1D0
10
-2942.18
20
2647.404
0
VERTEX
8
L1D0
10
-2938.631
20
2643.974
0
VERTEX
8
L1D0
10
-2936.3
20
2641.328
0
VERTEX
8
L1D0
10
-2933.78
20
2637.905
0
VERTEX
8
L1D0
10
-2931.449
20
2634.342
0
VERTEX
8
L1D0
10
-2928.992
20
2629.043
0
VERTEX
8
L1D0
10
-2928.6
20
2627.363
0
VERTEX
8
L1D0
10
-2928.474
20
2625.2
0
VERTEX
8
L1D0
10
-2929.062
20
2621.826
0
VERTEX
8
L1D0
10
-2930.168
20
2618.277
0
VERTEX
8
L1D0
10
-2931.785
20
2615.309
0
VERTEX
8
L1D0
10
-2933.913
20
2613.237
0
VERTEX
8
L1D0
10
-2935.922
20
2612.075
0
VERTEX
8
L1D0
10
-2938.89
20
2611.109
0
VERTEX
8
L1D0
10
-2942.124
20
2610.332
0
VERTEX
8
L1D0
10
-2946.072
20
2609.94
0
VERTEX
8
L1D0
10
-2951.504
20
2609.681
0
SEQEND
0
ENDSEC
0
EOF
