  0
SECTION
  2
HEADER
  0
ENDSEC
  0
SECTION
  2
TABLES
  0
TABLE
  2
LTYPE
 70
     1
 0
LTYPE
  2
CONTINUOUS
 70
    64
  3
Solid line
 72
    65
 73
     0
 40
0.0
  0
ENDTAB
  0
TABLE
  2
LAYER
 70
     2
 0
LAYER
  2
L0D0
 70
     0
 62
     7
  6
CONTINUOUS
  0
ENDTAB
  0
ENDSEC
  0
SECTION
  2
BLOCKS
  0
ENDSEC
  0
SECTION
  2
ENTITIES
  0
POLYLINE
  8
L0D0
 66
     1
 10
0.0
 20
0.0
 30
0.0
 70
     1
  0
VERTEX
  8
L0D0
 10
725.112889
 20
70.939941
 30
0.0
  0
VERTEX
  8
L0D0
 10
729.223912
 20
71.060059
 30
0.0
  0
VERTEX
  8
L0D0
 10
733.332921
 20
71.259033
 30
0.0
  0
VERTEX
  8
L0D0
 10
737.435887
 20
71.537964
 30
0.0
  0
VERTEX
  8
L0D0
 10
741.533910
 20
71.895996
 30
0.0
  0
VERTEX
  8
L0D0
 10
745.622899
 20
72.333984
 30
0.0
  0
VERTEX
  8
L0D0
 10
749.703892
 20
72.850952
 30
0.0
  0
VERTEX
  8
L0D0
 10
753.772923
 20
73.447021
 30
0.0
  0
VERTEX
  8
L0D0
 10
757.830907
 20
74.121948
 30
0.0
  0
VERTEX
  8
L0D0
 10
761.873936
 20
74.875977
 30
0.0
  0
VERTEX
  8
L0D0
 10
765.901891
 20
75.707031
 30
0.0
  0
VERTEX
  8
L0D0
 10
769.913914
 20
76.616943
 30
0.0
  0
VERTEX
  8
L0D0
 10
773.905919
 20
77.604004
 30
0.0
  0
VERTEX
  8
L0D0
 10
777.878941
 20
78.668945
 30
0.0
  0
VERTEX
  8
L0D0
 10
781.830907
 20
79.810059
 30
0.0
  0
VERTEX
  8
L0D0
 10
785.759923
 20
81.027954
 30
0.0
  0
VERTEX
  8
L0D0
 10
789.663914
 20
82.322021
 30
0.0
  0
VERTEX
  8
L0D0
 10
793.541905
 20
83.691040
 30
0.0
  0
VERTEX
  8
L0D0
 10
797.393895
 20
85.135010
 30
0.0
  0
VERTEX
  8
L0D0
 10
801.215916
 20
86.654053
 30
0.0
  0
VERTEX
  8
L0D0
 10
805.008885
 20
88.245972
 30
0.0
  0
VERTEX
  8
L0D0
 10
808.768895
 20
89.911987
 30
0.0
  0
VERTEX
  8
L0D0
 10
812.496922
 20
91.650024
 30
0.0
  0
VERTEX
  8
L0D0
 10
816.189915
 20
93.461060
 30
0.0
  0
VERTEX
  8
L0D0
 10
819.847935
 20
95.342041
 30
0.0
  0
VERTEX
  8
L0D0
 10
823.467931
 20
97.293945
 30
0.0
  0
VERTEX
  8
L0D0
 10
827.049901
 20
99.316040
 30
0.0
  0
VERTEX
  8
L0D0
 10
830.591893
 20
101.406982
 30
0.0
  0
VERTEX
  8
L0D0
 10
834.092931
 20
103.566040
 30
0.0
  0
VERTEX
  8
L0D0
 10
837.550938
 20
105.792969
 30
0.0
  0
VERTEX
  8
L0D0
 10
840.964940
 20
108.086060
 30
0.0
  0
VERTEX
  8
L0D0
 10
844.333897
 20
110.446045
 30
0.0
  0
VERTEX
  8
L0D0
 10
847.656895
 20
112.869995
 30
0.0
  0
VERTEX
  8
L0D0
 10
850.932896
 20
115.358032
 30
0.0
  0
VERTEX
  8
L0D0
 10
854.158910
 20
117.909058
 30
0.0
  0
VERTEX
  8
L0D0
 10
857.334935
 20
120.521973
 30
0.0
  0
VERTEX
  8
L0D0
 10
860.459935
 20
123.196045
 30
0.0
  0
VERTEX
  8
L0D0
 10
863.532933
 20
125.931030
 30
0.0
  0
VERTEX
  8
L0D0
 10
866.551915
 20
128.723999
 30
0.0
  0
VERTEX
  8
L0D0
 10
869.515904
 20
131.576050
 30
0.0
  0
VERTEX
  8
L0D0
 10
872.423924
 20
134.484009
 30
0.0
  0
VERTEX
  8
L0D0
 10
875.275914
 20
137.447998
 30
0.0
  0
VERTEX
  8
L0D0
 10
878.068883
 20
140.467041
 30
0.0
  0
VERTEX
  8
L0D0
 10
880.803929
 20
143.540039
 30
0.0
  0
VERTEX
  8
L0D0
 10
883.477940
 20
146.665039
 30
0.0
  0
VERTEX
  8
L0D0
 10
886.090916
 20
149.840942
 30
0.0
  0
VERTEX
  8
L0D0
 10
888.641942
 20
153.067017
 30
0.0
  0
VERTEX
  8
L0D0
 10
891.129918
 20
156.343018
 30
0.0
  0
VERTEX
  8
L0D0
 10
893.553929
 20
159.666016
 30
0.0
  0
VERTEX
  8
L0D0
 10
895.913914
 20
163.035034
 30
0.0
  0
VERTEX
  8
L0D0
 10
898.206883
 20
166.448975
 30
0.0
  0
VERTEX
  8
L0D0
 10
900.433934
 20
169.906982
 30
0.0
  0
VERTEX
  8
L0D0
 10
902.592931
 20
173.407959
 30
0.0
  0
VERTEX
  8
L0D0
 10
904.683934
 20
176.949951
 30
0.0
  0
VERTEX
  8
L0D0
 10
906.705907
 20
180.531982
 30
0.0
  0
VERTEX
  8
L0D0
 10
908.657933
 20
184.151978
 30
0.0
  0
VERTEX
  8
L0D0
 10
910.538914
 20
187.810059
 30
0.0
  0
VERTEX
  8
L0D0
 10
912.349889
 20
191.503052
 30
0.0
  0
VERTEX
  8
L0D0
 10
914.087926
 20
195.230957
 30
0.0
  0
VERTEX
  8
L0D0
 10
915.753941
 20
198.990967
 30
0.0
  0
VERTEX
  8
L0D0
 10
917.345921
 20
202.784058
 30
0.0
  0
VERTEX
  8
L0D0
 10
918.864903
 20
206.605957
 30
0.0
  0
VERTEX
  8
L0D0
 10
920.308934
 20
210.458008
 30
0.0
  0
VERTEX
  8
L0D0
 10
921.677892
 20
214.336060
 30
0.0
  0
VERTEX
  8
L0D0
 10
922.971898
 20
218.239990
 30
0.0
  0
VERTEX
  8
L0D0
 10
924.189915
 20
222.168945
 30
0.0
  0
VERTEX
  8
L0D0
 10
925.330907
 20
226.120972
 30
0.0
  0
VERTEX
  8
L0D0
 10
926.395909
 20
230.093994
 30
0.0
  0
VERTEX
  8
L0D0
 10
927.382909
 20
234.086060
 30
0.0
  0
VERTEX
  8
L0D0
 10
928.292943
 20
238.098022
 30
0.0
  0
VERTEX
  8
L0D0
 10
929.123936
 20
242.125977
 30
0.0
  0
VERTEX
  8
L0D0
 10
929.877904
 20
246.168945
 30
0.0
  0
VERTEX
  8
L0D0
 10
930.552892
 20
250.227051
 30
0.0
  0
VERTEX
  8
L0D0
 10
931.148900
 20
254.296021
 30
0.0
  0
VERTEX
  8
L0D0
 10
931.665929
 20
258.376953
 30
0.0
  0
VERTEX
  8
L0D0
 10
932.103917
 20
262.465942
 30
0.0
  0
VERTEX
  8
L0D0
 10
932.461888
 20
266.563965
 30
0.0
  0
VERTEX
  8
L0D0
 10
932.740941
 20
270.666992
 30
0.0
  0
VERTEX
  8
L0D0
 10
932.939915
 20
274.776001
 30
0.0
  0
VERTEX
  8
L0D0
 10
933.059911
 20
278.886963
 30
0.0
  0
VERTEX
  8
L0D0
 10
933.099889
 20
283.000000
 30
0.0
  0
VERTEX
  8
L0D0
 10
933.099889
 20
1383.000000
 30
0.0
  0
VERTEX
  8
L0D0
 10
933.139928
 20
1386.882996
 30
0.0
  0
VERTEX
  8
L0D0
 10
933.260899
 20
1390.764999
 30
0.0
  0
VERTEX
  8
L0D0
 10
933.460912
 20
1394.643005
 30
0.0
  0
VERTEX
  8
L0D0
 10
933.741917
 20
1398.516998
 30
0.0
  0
VERTEX
  8
L0D0
 10
934.101903
 20
1402.382996
 30
0.0
  0
VERTEX
  8
L0D0
 10
934.542943
 20
1406.242004
 30
0.0
  0
VERTEX
  8
L0D0
 10
935.062901
 20
1410.089996
 30
0.0
  0
VERTEX
  8
L0D0
 10
935.662938
 20
1413.927002
 30
0.0
  0
VERTEX
  8
L0D0
 10
936.340916
 20
1417.751007
 30
0.0
  0
VERTEX
  8
L0D0
 10
937.098912
 20
1421.559998
 30
0.0
  0
VERTEX
  8
L0D0
 10
937.934911
 20
1425.352005
 30
0.0
  0
VERTEX
  8
L0D0
 10
938.849889
 20
1429.126999
 30
0.0
  0
VERTEX
  8
L0D0
 10
939.841893
 20
1432.880997
 30
0.0
  0
VERTEX
  8
L0D0
 10
940.910924
 20
1436.615005
 30
0.0
  0
VERTEX
  8
L0D0
 10
942.057896
 20
1440.324997
 30
0.0
  0
VERTEX
  8
L0D0
 10
943.280919
 20
1444.011002
 30
0.0
  0
VERTEX
  8
L0D0
 10
944.579930
 20
1447.671005
 30
0.0
  0
VERTEX
  8
L0D0
 10
945.953892
 20
1451.302994
 30
0.0
  0
VERTEX
  8
L0D0
 10
947.402928
 20
1454.906006
 30
0.0
  0
VERTEX
  8
L0D0
 10
948.925938
 20
1458.478996
 30
0.0
  0
VERTEX
  8
L0D0
 10
950.522923
 20
1462.018997
 30
0.0
  0
VERTEX
  8
L0D0
 10
952.191930
 20
1465.525002
 30
0.0
  0
VERTEX
  8
L0D0
 10
953.933934
 20
1468.996002
 30
0.0
  0
VERTEX
  8
L0D0
 10
955.746922
 20
1472.431000
 30
0.0
  0
VERTEX
  8
L0D0
 10
957.629918
 20
1475.827003
 30
0.0
  0
VERTEX
  8
L0D0
 10
959.583897
 20
1479.182999
 30
0.0
  0
VERTEX
  8
L0D0
 10
961.605931
 20
1482.499001
 30
0.0
  0
VERTEX
  8
L0D0
 10
963.695897
 20
1485.772003
 30
0.0
  0
VERTEX
  8
L0D0
 10
965.853917
 20
1489.000999
 30
0.0
  0
VERTEX
  8
L0D0
 10
968.077916
 20
1492.183998
 30
0.0
  0
VERTEX
  8
L0D0
 10
970.366917
 20
1495.320999
 30
0.0
  0
VERTEX
  8
L0D0
 10
972.719884
 20
1498.411003
 30
0.0
  0
VERTEX
  8
L0D0
 10
975.136937
 20
1501.449997
 30
0.0
  0
VERTEX
  8
L0D0
 10
977.616917
 20
1504.440002
 30
0.0
  0
VERTEX
  8
L0D0
 10
980.156895
 20
1507.376999
 30
0.0
  0
VERTEX
  8
L0D0
 10
982.756932
 20
1510.261002
 30
0.0
  0
VERTEX
  8
L0D0
 10
985.416905
 20
1513.091003
 30
0.0
  0
VERTEX
  8
L0D0
 10
988.134923
 20
1515.864998
 30
0.0
  0
VERTEX
  8
L0D0
 10
990.908910
 20
1518.583000
 30
0.0
  0
VERTEX
  8
L0D0
 10
993.738927
 20
1521.243000
 30
0.0
  0
VERTEX
  8
L0D0
 10
996.622899
 20
1523.842999
 30
0.0
  0
VERTEX
  8
L0D0
 10
999.559911
 20
1526.382999
 30
0.0
  0
VERTEX
  8
L0D0
 10
1002.549901
 20
1528.862999
 30
0.0
  0
VERTEX
  8
L0D0
 10
1005.588902
 20
1531.279999
 30
0.0
  0
VERTEX
  8
L0D0
 10
1008.678929
 20
1533.632999
 30
0.0
  0
VERTEX
  8
L0D0
 10
1011.815892
 20
1535.922001
 30
0.0
  0
VERTEX
  8
L0D0
 10
1014.998936
 20
1538.146000
 30
0.0
  0
VERTEX
  8
L0D0
 10
1018.227940
 20
1540.304001
 30
0.0
  0
VERTEX
  8
L0D0
 10
1021.500890
 20
1542.394001
 30
0.0
  0
VERTEX
  8
L0D0
 10
1024.816930
 20
1544.416000
 30
0.0
  0
VERTEX
  8
L0D0
 10
1028.172887
 20
1546.369999
 30
0.0
  0
VERTEX
  8
L0D0
 10
1031.568883
 20
1548.252998
 30
0.0
  0
VERTEX
  8
L0D0
 10
1035.003941
 20
1550.066002
 30
0.0
  0
VERTEX
  8
L0D0
 10
1038.474889
 20
1551.808001
 30
0.0
  0
VERTEX
  8
L0D0
 10
1041.980931
 20
1553.476999
 30
0.0
  0
VERTEX
  8
L0D0
 10
1045.520909
 20
1555.073999
 30
0.0
  0
VERTEX
  8
L0D0
 10
1049.093907
 20
1556.597000
 30
0.0
  0
VERTEX
  8
L0D0
 10
1052.696934
 20
1558.046000
 30
0.0
  0
VERTEX
  8
L0D0
 10
1056.328892
 20
1559.420000
 30
0.0
  0
VERTEX
  8
L0D0
 10
1059.988927
 20
1560.719000
 30
0.0
  0
VERTEX
  8
L0D0
 10
1063.674901
 20
1561.941999
 30
0.0
  0
VERTEX
  8
L0D0
 10
1067.384923
 20
1563.089001
 30
0.0
  0
VERTEX
  8
L0D0
 10
1071.118932
 20
1564.158001
 30
0.0
  0
VERTEX
  8
L0D0
 10
1074.872899
 20
1565.150000
 30
0.0
  0
VERTEX
  8
L0D0
 10
1078.647923
 20
1566.065001
 30
0.0
  0
VERTEX
  8
L0D0
 10
1082.439915
 20
1566.900999
 30
0.0
  0
VERTEX
  8
L0D0
 10
1086.248936
 20
1567.659000
 30
0.0
  0
VERTEX
  8
L0D0
 10
1090.072911
 20
1568.337000
 30
0.0
  0
VERTEX
  8
L0D0
 10
1093.909886
 20
1568.937000
 30
0.0
  0
VERTEX
  8
L0D0
 10
1097.757909
 20
1569.457000
 30
0.0
  0
VERTEX
  8
L0D0
 10
1101.616917
 20
1569.898000
 30
0.0
  0
VERTEX
  8
L0D0
 10
1105.482884
 20
1570.258000
 30
0.0
  0
VERTEX
  8
L0D0
 10
1109.356908
 20
1570.539000
 30
0.0
  0
VERTEX
  8
L0D0
 10
1113.234898
 20
1570.739000
 30
0.0
  0
VERTEX
  8
L0D0
 10
1117.116917
 20
1570.860000
 30
0.0
  0
VERTEX
  8
L0D0
 10
1120.999913
 20
1570.900000
 30
0.0
  0
VERTEX
  8
L0D0
 10
1420.999913
 20
1570.900000
 30
0.0
  0
VERTEX
  8
L0D0
 10
1420.999913
 20
1578.000000
 30
0.0
  0
VERTEX
  8
L0D0
 10
1120.999913
 20
1578.000000
 30
0.0
  0
VERTEX
  8
L0D0
 10
1117.072911
 20
1577.960000
 30
0.0
  0
VERTEX
  8
L0D0
 10
1113.147923
 20
1577.842000
 30
0.0
  0
VERTEX
  8
L0D0
 10
1109.225926
 20
1577.644000
 30
0.0
  0
VERTEX
  8
L0D0
 10
1105.308934
 20
1577.368000
 30
0.0
  0
VERTEX
  8
L0D0
 10
1101.397923
 20
1577.012000
 30
0.0
  0
VERTEX
  8
L0D0
 10
1097.494908
 20
1576.578000
 30
0.0
  0
VERTEX
  8
L0D0
 10
1093.601903
 20
1576.066000
 30
0.0
  0
VERTEX
  8
L0D0
 10
1089.719884
 20
1575.475000
 30
0.0
  0
VERTEX
  8
L0D0
 10
1085.849889
 20
1574.806000
 30
0.0
  0
VERTEX
  8
L0D0
 10
1081.994908
 20
1574.059000
 30
0.0
  0
VERTEX
  8
L0D0
 10
1078.155919
 20
1573.235000
 30
0.0
  0
VERTEX
  8
L0D0
 10
1074.332921
 20
1572.334000
 30
0.0
  0
VERTEX
  8
L0D0
 10
1070.529942
 20
1571.356000
 30
0.0
  0
VERTEX
  8
L0D0
 10
1066.747899
 20
1570.301000
 30
0.0
  0
VERTEX
  8
L0D0
 10
1062.986913
 20
1569.171000
 30
0.0
  0
VERTEX
  8
L0D0
 10
1059.249913
 20
1567.965000
 30
0.0
  0
VERTEX
  8
L0D0
 10
1055.537938
 20
1566.684000
 30
0.0
  0
VERTEX
  8
L0D0
 10
1051.851903
 20
1565.327999
 30
0.0
  0
VERTEX
  8
L0D0
 10
1048.194920
 20
1563.899000
 30
0.0
  0
VERTEX
  8
L0D0
 10
1044.566930
 20
1562.396000
 30
0.0
  0
VERTEX
  8
L0D0
 10
1040.969884
 20
1560.820000
 30
0.0
  0
VERTEX
  8
L0D0
 10
1037.404942
 20
1559.173000
 30
0.0
  0
VERTEX
  8
L0D0
 10
1033.873936
 20
1557.454000
 30
0.0
  0
VERTEX
  8
L0D0
 10
1030.378941
 20
1555.664000
 30
0.0
  0
VERTEX
  8
L0D0
 10
1026.919896
 20
1553.804001
 30
0.0
  0
VERTEX
  8
L0D0
 10
1023.499913
 20
1551.875000
 30
0.0
  0
VERTEX
  8
L0D0
 10
1020.118932
 20
1549.876999
 30
0.0
  0
VERTEX
  8
L0D0
 10
1016.778905
 20
1547.812000
 30
0.0
  0
VERTEX
  8
L0D0
 10
1013.480931
 20
1545.680000
 30
0.0
  0
VERTEX
  8
L0D0
 10
1010.226903
 20
1543.481998
 30
0.0
  0
VERTEX
  8
L0D0
 10
1007.017918
 20
1541.219002
 30
0.0
  0
VERTEX
  8
L0D0
 10
1003.854893
 20
1538.890999
 30
0.0
  0
VERTEX
  8
L0D0
 10
1000.739903
 20
1536.500999
 30
0.0
  0
VERTEX
  8
L0D0
 10
997.672887
 20
1534.048000
 30
0.0
  0
VERTEX
  8
L0D0
 10
994.655919
 20
1531.534000
 30
0.0
  0
VERTEX
  8
L0D0
 10
991.690892
 20
1528.959999
 30
0.0
  0
VERTEX
  8
L0D0
 10
988.777928
 20
1526.326000
 30
0.0
  0
VERTEX
  8
L0D0
 10
985.918919
 20
1523.633999
 30
0.0
  0
VERTEX
  8
L0D0
 10
983.113927
 20
1520.886002
 30
0.0
  0
VERTEX
  8
L0D0
 10
980.365941
 20
1518.081001
 30
0.0
  0
VERTEX
  8
L0D0
 10
977.673924
 20
1515.222000
 30
0.0
  0
VERTEX
  8
L0D0
 10
975.039891
 20
1512.308998
 30
0.0
  0
VERTEX
  8
L0D0
 10
972.465916
 20
1509.344002
 30
0.0
  0
VERTEX
  8
L0D0
 10
969.951939
 20
1506.327003
 30
0.0
  0
VERTEX
  8
L0D0
 10
967.498936
 20
1503.260002
 30
0.0
  0
VERTEX
  8
L0D0
 10
965.108922
 20
1500.144997
 30
0.0
  0
VERTEX
  8
L0D0
 10
962.780919
 20
1496.982002
 30
0.0
  0
VERTEX
  8
L0D0
 10
960.517918
 20
1493.773003
 30
0.0
  0
VERTEX
  8
L0D0
 10
958.319920
 20
1490.518997
 30
0.0
  0
VERTEX
  8
L0D0
 10
956.187901
 20
1487.221001
 30
0.0
  0
VERTEX
  8
L0D0
 10
954.122899
 20
1483.880997
 30
0.0
  0
VERTEX
  8
L0D0
 10
952.124913
 20
1480.500000
 30
0.0
  0
VERTEX
  8
L0D0
 10
950.195897
 20
1477.080002
 30
0.0
  0
VERTEX
  8
L0D0
 10
948.335912
 20
1473.621002
 30
0.0
  0
VERTEX
  8
L0D0
 10
946.545934
 20
1470.125999
 30
0.0
  0
VERTEX
  8
L0D0
 10
944.826939
 20
1466.595001
 30
0.0
  0
VERTEX
  8
L0D0
 10
943.179906
 20
1463.029999
 30
0.0
  0
VERTEX
  8
L0D0
 10
941.603917
 20
1459.432999
 30
0.0
  0
VERTEX
  8
L0D0
 10
940.100926
 20
1455.805000
 30
0.0
  0
VERTEX
  8
L0D0
 10
938.671910
 20
1452.147995
 30
0.0
  0
VERTEX
  8
L0D0
 10
937.315892
 20
1448.462006
 30
0.0
  0
VERTEX
  8
L0D0
 10
936.034886
 20
1444.750000
 30
0.0
  0
VERTEX
  8
L0D0
 10
934.828892
 20
1441.013000
 30
0.0
  0
VERTEX
  8
L0D0
 10
933.698888
 20
1437.251999
 30
0.0
  0
VERTEX
  8
L0D0
 10
932.643895
 20
1433.470001
 30
0.0
  0
VERTEX
  8
L0D0
 10
931.665929
 20
1429.667007
 30
0.0
  0
VERTEX
  8
L0D0
 10
930.764928
 20
1425.843994
 30
0.0
  0
VERTEX
  8
L0D0
 10
929.940892
 20
1422.005005
 30
0.0
  0
VERTEX
  8
L0D0
 10
929.193883
 20
1418.149994
 30
0.0
  0
VERTEX
  8
L0D0
 10
928.524937
 20
1414.279999
 30
0.0
  0
VERTEX
  8
L0D0
 10
927.933934
 20
1410.397995
 30
0.0
  0
VERTEX
  8
L0D0
 10
927.421910
 20
1406.505005
 30
0.0
  0
VERTEX
  8
L0D0
 10
926.987889
 20
1402.602005
 30
0.0
  0
VERTEX
  8
L0D0
 10
926.631932
 20
1398.690994
 30
0.0
  0
VERTEX
  8
L0D0
 10
926.355931
 20
1394.774002
 30
0.0
  0
VERTEX
  8
L0D0
 10
926.157933
 20
1390.852005
 30
0.0
  0
VERTEX
  8
L0D0
 10
926.039891
 20
1386.927002
 30
0.0
  0
VERTEX
  8
L0D0
 10
925.999913
 20
1383.000000
 30
0.0
  0
VERTEX
  8
L0D0
 10
925.999913
 20
283.000000
 30
0.0
  0
VERTEX
  8
L0D0
 10
925.959935
 20
278.974976
 30
0.0
  0
VERTEX
  8
L0D0
 10
925.841893
 20
274.952026
 30
0.0
  0
VERTEX
  8
L0D0
 10
925.643895
 20
270.931030
 30
0.0
  0
VERTEX
  8
L0D0
 10
925.367894
 20
266.916016
 30
0.0
  0
VERTEX
  8
L0D0
 10
925.012913
 20
262.906006
 30
0.0
  0
VERTEX
  8
L0D0
 10
924.578892
 20
258.905029
 30
0.0
  0
VERTEX
  8
L0D0
 10
924.066930
 20
254.911987
 30
0.0
  0
VERTEX
  8
L0D0
 10
923.475926
 20
250.931030
 30
0.0
  0
VERTEX
  8
L0D0
 10
922.806920
 20
246.962036
 30
0.0
  0
VERTEX
  8
L0D0
 10
922.060887
 20
243.005981
 30
0.0
  0
VERTEX
  8
L0D0
 10
921.236913
 20
239.067017
 30
0.0
  0
VERTEX
  8
L0D0
 10
920.335912
 20
235.144043
 30
0.0
  0
VERTEX
  8
L0D0
 10
919.357884
 20
231.239014
 30
0.0
  0
VERTEX
  8
L0D0
 10
918.302892
 20
227.354980
 30
0.0
  0
VERTEX
  8
L0D0
 10
917.172887
 20
223.491943
 30
0.0
  0
VERTEX
  8
L0D0
 10
915.966893
 20
219.651978
 30
0.0
  0
VERTEX
  8
L0D0
 10
914.684911
 20
215.836060
 30
0.0
  0
VERTEX
  8
L0D0
 10
913.328892
 20
212.046021
 30
0.0
  0
VERTEX
  8
L0D0
 10
911.898900
 20
208.284058
 30
0.0
  0
VERTEX
  8
L0D0
 10
910.394933
 20
204.550049
 30
0.0
  0
VERTEX
  8
L0D0
 10
908.818883
 20
200.845947
 30
0.0
  0
VERTEX
  8
L0D0
 10
907.168919
 20
197.175049
 30
0.0
  0
VERTEX
  8
L0D0
 10
905.447911
 20
193.536011
 30
0.0
  0
VERTEX
  8
L0D0
 10
903.655919
 20
189.932007
 30
0.0
  0
VERTEX
  8
L0D0
 10
901.793919
 20
186.364014
 30
0.0
  0
VERTEX
  8
L0D0
 10
899.861913
 20
182.833008
 30
0.0
  0
VERTEX
  8
L0D0
 10
897.860936
 20
179.339966
 30
0.0
  0
VERTEX
  8
L0D0
 10
895.790929
 20
175.887939
 30
0.0
  0
VERTEX
  8
L0D0
 10
893.654942
 20
172.477051
 30
0.0
  0
VERTEX
  8
L0D0
 10
891.450902
 20
169.108032
 30
0.0
  0
VERTEX
  8
L0D0
 10
889.181920
 20
165.782959
 30
0.0
  0
VERTEX
  8
L0D0
 10
886.847935
 20
162.504028
 30
0.0
  0
VERTEX
  8
L0D0
 10
884.450902
 20
159.270996
 30
0.0
  0
VERTEX
  8
L0D0
 10
881.989903
 20
156.086060
 30
0.0
  0
VERTEX
  8
L0D0
 10
879.466893
 20
152.948975
 30
0.0
  0
VERTEX
  8
L0D0
 10
876.882909
 20
149.863037
 30
0.0
  0
VERTEX
  8
L0D0
 10
874.238927
 20
146.828003
 30
0.0
  0
VERTEX
  8
L0D0
 10
871.535924
 20
143.845947
 30
0.0
  0
VERTEX
  8
L0D0
 10
868.774937
 20
140.916992
 30
0.0
  0
VERTEX
  8
L0D0
 10
865.956883
 20
138.042969
 30
0.0
  0
VERTEX
  8
L0D0
 10
863.082921
 20
135.224976
 30
0.0
  0
VERTEX
  8
L0D0
 10
860.153905
 20
132.463989
 30
0.0
  0
VERTEX
  8
L0D0
 10
857.171910
 20
129.760986
 30
0.0
  0
VERTEX
  8
L0D0
 10
854.136937
 20
127.116943
 30
0.0
  0
VERTEX
  8
L0D0
 10
851.050938
 20
124.532959
 30
0.0
  0
VERTEX
  8
L0D0
 10
847.913914
 20
122.010010
 30
0.0
  0
VERTEX
  8
L0D0
 10
844.728917
 20
119.548950
 30
0.0
  0
VERTEX
  8
L0D0
 10
841.495885
 20
117.151978
 30
0.0
  0
VERTEX
  8
L0D0
 10
838.216893
 20
114.817993
 30
0.0
  0
VERTEX
  8
L0D0
 10
834.891942
 20
112.548950
 30
0.0
  0
VERTEX
  8
L0D0
 10
831.522923
 20
110.344971
 30
0.0
  0
VERTEX
  8
L0D0
 10
828.111913
 20
108.208984
 30
0.0
  0
VERTEX
  8
L0D0
 10
824.659886
 20
106.139038
 30
0.0
  0
VERTEX
  8
L0D0
 10
821.166905
 20
104.137939
 30
0.0
  0
VERTEX
  8
L0D0
 10
817.635899
 20
102.206055
 30
0.0
  0
VERTEX
  8
L0D0
 10
814.067906
 20
100.343994
 30
0.0
  0
VERTEX
  8
L0D0
 10
810.463902
 20
98.552002
 30
0.0
  0
VERTEX
  8
L0D0
 10
806.824925
 20
96.831055
 30
0.0
  0
VERTEX
  8
L0D0
 10
803.153905
 20
95.181030
 30
0.0
  0
VERTEX
  8
L0D0
 10
799.449925
 20
93.604980
 30
0.0
  0
VERTEX
  8
L0D0
 10
795.715916
 20
92.100952
 30
0.0
  0
VERTEX
  8
L0D0
 10
791.953892
 20
90.671021
 30
0.0
  0
VERTEX
  8
L0D0
 10
788.163914
 20
89.314941
 30
0.0
  0
VERTEX
  8
L0D0
 10
784.347935
 20
88.032959
 30
0.0
  0
VERTEX
  8
L0D0
 10
780.507909
 20
86.827026
 30
0.0
  0
VERTEX
  8
L0D0
 10
776.644933
 20
85.697021
 30
0.0
  0
VERTEX
  8
L0D0
 10
772.760899
 20
84.641968
 30
0.0
  0
VERTEX
  8
L0D0
 10
768.855931
 20
83.663940
 30
0.0
  0
VERTEX
  8
L0D0
 10
764.932896
 20
82.762939
 30
0.0
  0
VERTEX
  8
L0D0
 10
760.993932
 20
81.938965
 30
0.0
  0
VERTEX
  8
L0D0
 10
757.037938
 20
81.192993
 30
0.0
  0
VERTEX
  8
L0D0
 10
753.068883
 20
80.524048
 30
0.0
  0
VERTEX
  8
L0D0
 10
749.087926
 20
79.932983
 30
0.0
  0
VERTEX
  8
L0D0
 10
745.094884
 20
79.421021
 30
0.0
  0
VERTEX
  8
L0D0
 10
741.093907
 20
78.987061
 30
0.0
  0
VERTEX
  8
L0D0
 10
737.083897
 20
78.631958
 30
0.0
  0
VERTEX
  8
L0D0
 10
733.068883
 20
78.355957
 30
0.0
  0
VERTEX
  8
L0D0
 10
729.047887
 20
78.157959
 30
0.0
  0
VERTEX
  8
L0D0
 10
725.024937
 20
78.040039
 30
0.0
  0
VERTEX
  8
L0D0
 10
720.999913
 20
78.000000
 30
0.0
  0
VERTEX
  8
L0D0
 10
620.999913
 20
78.000000
 30
0.0
  0
VERTEX
  8
L0D0
 10
616.974889
 20
78.040039
 30
0.0
  0
VERTEX
  8
L0D0
 10
612.951939
 20
78.157959
 30
0.0
  0
VERTEX
  8
L0D0
 10
608.930943
 20
78.355957
 30
0.0
  0
VERTEX
  8
L0D0
 10
604.915929
 20
78.631958
 30
0.0
  0
VERTEX
  8
L0D0
 10
600.905919
 20
78.987061
 30
0.0
  0
VERTEX
  8
L0D0
 10
596.904942
 20
79.421021
 30
0.0
  0
VERTEX
  8
L0D0
 10
592.911900
 20
79.932983
 30
0.0
  0
VERTEX
  8
L0D0
 10
588.930943
 20
80.524048
 30
0.0
  0
VERTEX
  8
L0D0
 10
584.961949
 20
81.192993
 30
0.0
  0
VERTEX
  8
L0D0
 10
581.005894
 20
81.938965
 30
0.0
  0
VERTEX
  8
L0D0
 10
577.066930
 20
82.762939
 30
0.0
  0
VERTEX
  8
L0D0
 10
573.143956
 20
83.663940
 30
0.0
  0
VERTEX
  8
L0D0
 10
569.238927
 20
84.641968
 30
0.0
  0
VERTEX
  8
L0D0
 10
565.354893
 20
85.697021
 30
0.0
  0
VERTEX
  8
L0D0
 10
561.491856
 20
86.827026
 30
0.0
  0
VERTEX
  8
L0D0
 10
557.651891
 20
88.032959
 30
0.0
  0
VERTEX
  8
L0D0
 10
553.835973
 20
89.314941
 30
0.0
  0
VERTEX
  8
L0D0
 10
550.045934
 20
90.671021
 30
0.0
  0
VERTEX
  8
L0D0
 10
546.283971
 20
92.100952
 30
0.0
  0
VERTEX
  8
L0D0
 10
542.549962
 20
93.604980
 30
0.0
  0
VERTEX
  8
L0D0
 10
538.845860
 20
95.181030
 30
0.0
  0
VERTEX
  8
L0D0
 10
535.174962
 20
96.831055
 30
0.0
  0
VERTEX
  8
L0D0
 10
531.535924
 20
98.552002
 30
0.0
  0
VERTEX
  8
L0D0
 10
527.931920
 20
100.343994
 30
0.0
  0
VERTEX
  8
L0D0
 10
524.363927
 20
102.206055
 30
0.0
  0
VERTEX
  8
L0D0
 10
520.832921
 20
104.137939
 30
0.0
  0
VERTEX
  8
L0D0
 10
517.339879
 20
106.139038
 30
0.0
  0
VERTEX
  8
L0D0
 10
513.887852
 20
108.208984
 30
0.0
  0
VERTEX
  8
L0D0
 10
510.476964
 20
110.344971
 30
0.0
  0
VERTEX
  8
L0D0
 10
507.107945
 20
112.548950
 30
0.0
  0
VERTEX
  8
L0D0
 10
503.782872
 20
114.817993
 30
0.0
  0
VERTEX
  8
L0D0
 10
500.503941
 20
117.151978
 30
0.0
  0
VERTEX
  8
L0D0
 10
497.270909
 20
119.548950
 30
0.0
  0
VERTEX
  8
L0D0
 10
494.085973
 20
122.010010
 30
0.0
  0
VERTEX
  8
L0D0
 10
490.948888
 20
124.532959
 30
0.0
  0
VERTEX
  8
L0D0
 10
487.862950
 20
127.116943
 30
0.0
  0
VERTEX
  8
L0D0
 10
484.827916
 20
129.760986
 30
0.0
  0
VERTEX
  8
L0D0
 10
481.845860
 20
132.463989
 30
0.0
  0
VERTEX
  8
L0D0
 10
478.916905
 20
135.224976
 30
0.0
  0
VERTEX
  8
L0D0
 10
476.042882
 20
138.042969
 30
0.0
  0
VERTEX
  8
L0D0
 10
473.224889
 20
140.916992
 30
0.0
  0
VERTEX
  8
L0D0
 10
470.463902
 20
143.845947
 30
0.0
  0
VERTEX
  8
L0D0
 10
467.760899
 20
146.828003
 30
0.0
  0
VERTEX
  8
L0D0
 10
465.116856
 20
149.863037
 30
0.0
  0
VERTEX
  8
L0D0
 10
462.532872
 20
152.948975
 30
0.0
  0
VERTEX
  8
L0D0
 10
460.009923
 20
156.086060
 30
0.0
  0
VERTEX
  8
L0D0
 10
457.548863
 20
159.270996
 30
0.0
  0
VERTEX
  8
L0D0
 10
455.151891
 20
162.504028
 30
0.0
  0
VERTEX
  8
L0D0
 10
452.817906
 20
165.782959
 30
0.0
  0
VERTEX
  8
L0D0
 10
450.548863
 20
169.108032
 30
0.0
  0
VERTEX
  8
L0D0
 10
448.344884
 20
172.477051
 30
0.0
  0
VERTEX
  8
L0D0
 10
446.208897
 20
175.887939
 30
0.0
  0
VERTEX
  8
L0D0
 10
444.138951
 20
179.339966
 30
0.0
  0
VERTEX
  8
L0D0
 10
442.137852
 20
182.833008
 30
0.0
  0
VERTEX
  8
L0D0
 10
440.205968
 20
186.364014
 30
0.0
  0
VERTEX
  8
L0D0
 10
438.343907
 20
189.932007
 30
0.0
  0
VERTEX
  8
L0D0
 10
436.551915
 20
193.536011
 30
0.0
  0
VERTEX
  8
L0D0
 10
434.830968
 20
197.175049
 30
0.0
  0
VERTEX
  8
L0D0
 10
433.180943
 20
200.845947
 30
0.0
  0
VERTEX
  8
L0D0
 10
431.604893
 20
204.550049
 30
0.0
  0
VERTEX
  8
L0D0
 10
430.100865
 20
208.284058
 30
0.0
  0
VERTEX
  8
L0D0
 10
428.670934
 20
212.046021
 30
0.0
  0
VERTEX
  8
L0D0
 10
427.314854
 20
215.836060
 30
0.0
  0
VERTEX
  8
L0D0
 10
426.032872
 20
219.651978
 30
0.0
  0
VERTEX
  8
L0D0
 10
424.826939
 20
223.491943
 30
0.0
  0
VERTEX
  8
L0D0
 10
423.696934
 20
227.354980
 30
0.0
  0
VERTEX
  8
L0D0
 10
422.641881
 20
231.239014
 30
0.0
  0
VERTEX
  8
L0D0
 10
421.663853
 20
235.144043
 30
0.0
  0
VERTEX
  8
L0D0
 10
420.762852
 20
239.067017
 30
0.0
  0
VERTEX
  8
L0D0
 10
419.938878
 20
243.005981
 30
0.0
  0
VERTEX
  8
L0D0
 10
419.192906
 20
246.962036
 30
0.0
  0
VERTEX
  8
L0D0
 10
418.523961
 20
250.931030
 30
0.0
  0
VERTEX
  8
L0D0
 10
417.932896
 20
254.911987
 30
0.0
  0
VERTEX
  8
L0D0
 10
417.420934
 20
258.905029
 30
0.0
  0
VERTEX
  8
L0D0
 10
416.986974
 20
262.906006
 30
0.0
  0
VERTEX
  8
L0D0
 10
416.631871
 20
266.916016
 30
0.0
  0
VERTEX
  8
L0D0
 10
416.355870
 20
270.931030
 30
0.0
  0
VERTEX
  8
L0D0
 10
416.157872
 20
274.952026
 30
0.0
  0
VERTEX
  8
L0D0
 10
416.039952
 20
278.974976
 30
0.0
  0
VERTEX
  8
L0D0
 10
415.999913
 20
283.000000
 30
0.0
  0
VERTEX
  8
L0D0
 10
415.999913
 20
1383.000000
 30
0.0
  0
VERTEX
  8
L0D0
 10
415.959874
 20
1386.927002
 30
0.0
  0
VERTEX
  8
L0D0
 10
415.841954
 20
1390.852005
 30
0.0
  0
VERTEX
  8
L0D0
 10
415.643956
 20
1394.774002
 30
0.0
  0
VERTEX
  8
L0D0
 10
415.367955
 20
1398.690994
 30
0.0
  0
VERTEX
  8
L0D0
 10
415.011876
 20
1402.602005
 30
0.0
  0
VERTEX
  8
L0D0
 10
414.577916
 20
1406.505005
 30
0.0
  0
VERTEX
  8
L0D0
 10
414.065953
 20
1410.397995
 30
0.0
  0
VERTEX
  8
L0D0
 10
413.474889
 20
1414.279999
 30
0.0
  0
VERTEX
  8
L0D0
 10
412.805943
 20
1418.149994
 30
0.0
  0
VERTEX
  8
L0D0
 10
412.058873
 20
1422.005005
 30
0.0
  0
VERTEX
  8
L0D0
 10
411.234898
 20
1425.843994
 30
0.0
  0
VERTEX
  8
L0D0
 10
410.333897
 20
1429.667007
 30
0.0
  0
VERTEX
  8
L0D0
 10
409.355870
 20
1433.470001
 30
0.0
  0
VERTEX
  8
L0D0
 10
408.300938
 20
1437.251999
 30
0.0
  0
VERTEX
  8
L0D0
 10
407.170934
 20
1441.013000
 30
0.0
  0
VERTEX
  8
L0D0
 10
405.964879
 20
1444.750000
 30
0.0
  0
VERTEX
  8
L0D0
 10
404.683873
 20
1448.462006
 30
0.0
  0
VERTEX
  8
L0D0
 10
403.327916
 20
1452.147995
 30
0.0
  0
VERTEX
  8
L0D0
 10
401.898961
 20
1455.805000
 30
0.0
  0
VERTEX
  8
L0D0
 10
400.395909
 20
1459.432999
 30
0.0
  0
VERTEX
  8
L0D0
 10
398.819859
 20
1463.029999
 30
0.0
  0
VERTEX
  8
L0D0
 10
397.172887
 20
1466.595001
 30
0.0
  0
VERTEX
  8
L0D0
 10
395.453892
 20
1470.125999
 30
0.0
  0
VERTEX
  8
L0D0
 10
393.663853
 20
1473.621002
 30
0.0
  0
VERTEX
  8
L0D0
 10
391.803868
 20
1477.080002
 30
0.0
  0
VERTEX
  8
L0D0
 10
389.874913
 20
1480.500000
 30
0.0
  0
VERTEX
  8
L0D0
 10
387.876866
 20
1483.880997
 30
0.0
  0
VERTEX
  8
L0D0
 10
385.811925
 20
1487.221001
 30
0.0
  0
VERTEX
  8
L0D0
 10
383.679967
 20
1490.518997
 30
0.0
  0
VERTEX
  8
L0D0
 10
381.481969
 20
1493.773003
 30
0.0
  0
VERTEX
  8
L0D0
 10
379.218907
 20
1496.982002
 30
0.0
  0
VERTEX
  8
L0D0
 10
376.890904
 20
1500.144997
 30
0.0
  0
VERTEX
  8
L0D0
 10
374.500890
 20
1503.260002
 30
0.0
  0
VERTEX
  8
L0D0
 10
372.047887
 20
1506.327003
 30
0.0
  0
VERTEX
  8
L0D0
 10
369.533971
 20
1509.344002
 30
0.0
  0
VERTEX
  8
L0D0
 10
366.959874
 20
1512.308998
 30
0.0
  0
VERTEX
  8
L0D0
 10
364.325963
 20
1515.222000
 30
0.0
  0
VERTEX
  8
L0D0
 10
361.633946
 20
1518.081001
 30
0.0
  0
VERTEX
  8
L0D0
 10
358.885899
 20
1520.886002
 30
0.0
  0
VERTEX
  8
L0D0
 10
356.080968
 20
1523.633999
 30
0.0
  0
VERTEX
  8
L0D0
 10
353.221959
 20
1526.326000
 30
0.0
  0
VERTEX
  8
L0D0
 10
350.308873
 20
1528.959999
 30
0.0
  0
VERTEX
  8
L0D0
 10
347.343907
 20
1531.534000
 30
0.0
  0
VERTEX
  8
L0D0
 10
344.326939
 20
1534.048000
 30
0.0
  0
VERTEX
  8
L0D0
 10
341.259923
 20
1536.500999
 30
0.0
  0
VERTEX
  8
L0D0
 10
338.144933
 20
1538.890999
 30
0.0
  0
VERTEX
  8
L0D0
 10
334.981969
 20
1541.219002
 30
0.0
  0
VERTEX
  8
L0D0
 10
331.772862
 20
1543.481998
 30
0.0
  0
VERTEX
  8
L0D0
 10
328.518956
 20
1545.680000
 30
0.0
  0
VERTEX
  8
L0D0
 10
325.220860
 20
1547.812000
 30
0.0
  0
VERTEX
  8
L0D0
 10
321.880894
 20
1549.876999
 30
0.0
  0
VERTEX
  8
L0D0
 10
318.499913
 20
1551.875000
 30
0.0
  0
VERTEX
  8
L0D0
 10
315.079869
 20
1553.804001
 30
0.0
  0
VERTEX
  8
L0D0
 10
311.620885
 20
1555.664000
 30
0.0
  0
VERTEX
  8
L0D0
 10
308.125890
 20
1557.454000
 30
0.0
  0
VERTEX
  8
L0D0
 10
304.594884
 20
1559.173000
 30
0.0
  0
VERTEX
  8
L0D0
 10
301.029942
 20
1560.820000
 30
0.0
  0
VERTEX
  8
L0D0
 10
297.432896
 20
1562.396000
 30
0.0
  0
VERTEX
  8
L0D0
 10
293.804967
 20
1563.899000
 30
0.0
  0
VERTEX
  8
L0D0
 10
290.147862
 20
1565.327999
 30
0.0
  0
VERTEX
  8
L0D0
 10
286.461949
 20
1566.684000
 30
0.0
  0
VERTEX
  8
L0D0
 10
282.749913
 20
1567.965000
 30
0.0
  0
VERTEX
  8
L0D0
 10
279.012852
 20
1569.171000
 30
0.0
  0
VERTEX
  8
L0D0
 10
275.251866
 20
1570.301000
 30
0.0
  0
VERTEX
  8
L0D0
 10
271.469884
 20
1571.356000
 30
0.0
  0
VERTEX
  8
L0D0
 10
267.666905
 20
1572.334000
 30
0.0
  0
VERTEX
  8
L0D0
 10
263.843907
 20
1573.235000
 30
0.0
  0
VERTEX
  8
L0D0
 10
260.004918
 20
1574.059000
 30
0.0
  0
VERTEX
  8
L0D0
 10
256.149937
 20
1574.806000
 30
0.0
  0
VERTEX
  8
L0D0
 10
252.279942
 20
1575.475000
 30
0.0
  0
VERTEX
  8
L0D0
 10
248.397862
 20
1576.066000
 30
0.0
  0
VERTEX
  8
L0D0
 10
244.504918
 20
1576.578000
 30
0.0
  0
VERTEX
  8
L0D0
 10
240.601964
 20
1577.012000
 30
0.0
  0
VERTEX
  8
L0D0
 10
236.690953
 20
1577.368000
 30
0.0
  0
VERTEX
  8
L0D0
 10
232.773961
 20
1577.644000
 30
0.0
  0
VERTEX
  8
L0D0
 10
228.851964
 20
1577.842000
 30
0.0
  0
VERTEX
  8
L0D0
 10
224.926915
 20
1577.960000
 30
0.0
  0
VERTEX
  8
L0D0
 10
220.999913
 20
1578.000000
 30
0.0
  0
VERTEX
  8
L0D0
 10
110.999913
 20
1578.000000
 30
0.0
  0
VERTEX
  8
L0D0
 10
86.359898
 20
1568.150000
 30
0.0
  0
VERTEX
  8
L0D0
 10
32.567906
 20
1568.150000
 30
0.0
  0
VERTEX
  8
L0D0
 10
32.567906
 20
1571.450000
 30
0.0
  0
VERTEX
  8
L0D0
 10
75.967931
 20
1571.450000
 30
0.0
  0
VERTEX
  8
L0D0
 10
75.967931
 20
1581.350000
 30
0.0
  0
VERTEX
  8
L0D0
 10
32.567906
 20
1581.350000
 30
0.0
  0
VERTEX
  8
L0D0
 10
32.567906
 20
1584.650000
 30
0.0
  0
VERTEX
  8
L0D0
 10
75.967931
 20
1584.650000
 30
0.0
  0
VERTEX
  8
L0D0
 10
75.967931
 20
1594.550000
 30
0.0
  0
VERTEX
  8
L0D0
 10
32.567906
 20
1594.550000
 30
0.0
  0
VERTEX
  8
L0D0
 10
32.567906
 20
1597.850000
 30
0.0
  0
VERTEX
  8
L0D0
 10
86.359898
 20
1597.850000
 30
0.0
  0
VERTEX
  8
L0D0
 10
110.999913
 20
1588.000000
 30
0.0
  0
VERTEX
  8
L0D0
 10
220.999913
 20
1588.000000
 30
0.0
  0
VERTEX
  8
L0D0
 10
225.024937
 20
1587.960000
 30
0.0
  0
VERTEX
  8
L0D0
 10
229.047887
 20
1587.842000
 30
0.0
  0
VERTEX
  8
L0D0
 10
233.068883
 20
1587.644000
 30
0.0
  0
VERTEX
  8
L0D0
 10
237.083897
 20
1587.368000
 30
0.0
  0
VERTEX
  8
L0D0
 10
241.093907
 20
1587.013000
 30
0.0
  0
VERTEX
  8
L0D0
 10
245.094884
 20
1586.579000
 30
0.0
  0
VERTEX
  8
L0D0
 10
249.087926
 20
1586.067000
 30
0.0
  0
VERTEX
  8
L0D0
 10
253.068883
 20
1585.476000
 30
0.0
  0
VERTEX
  8
L0D0
 10
257.037877
 20
1584.807000
 30
0.0
  0
VERTEX
  8
L0D0
 10
260.993932
 20
1584.061000
 30
0.0
  0
VERTEX
  8
L0D0
 10
264.932896
 20
1583.237000
 30
0.0
  0
VERTEX
  8
L0D0
 10
268.855870
 20
1582.336000
 30
0.0
  0
VERTEX
  8
L0D0
 10
272.760899
 20
1581.358000
 30
0.0
  0
VERTEX
  8
L0D0
 10
276.644933
 20
1580.303000
 30
0.0
  0
VERTEX
  8
L0D0
 10
280.507970
 20
1579.173000
 30
0.0
  0
VERTEX
  8
L0D0
 10
284.347935
 20
1577.967000
 30
0.0
  0
VERTEX
  8
L0D0
 10
288.163853
 20
1576.685000
 30
0.0
  0
VERTEX
  8
L0D0
 10
291.953892
 20
1575.329000
 30
0.0
  0
VERTEX
  8
L0D0
 10
295.715855
 20
1573.899000
 30
0.0
  0
VERTEX
  8
L0D0
 10
299.449864
 20
1572.395000
 30
0.0
  0
VERTEX
  8
L0D0
 10
303.153966
 20
1570.819000
 30
0.0
  0
VERTEX
  8
L0D0
 10
306.824864
 20
1569.169000
 30
0.0
  0
VERTEX
  8
L0D0
 10
310.463902
 20
1567.448000
 30
0.0
  0
VERTEX
  8
L0D0
 10
314.067906
 20
1565.656000
 30
0.0
  0
VERTEX
  8
L0D0
 10
317.635899
 20
1563.794001
 30
0.0
  0
VERTEX
  8
L0D0
 10
321.166905
 20
1561.862000
 30
0.0
  0
VERTEX
  8
L0D0
 10
324.659947
 20
1559.861000
 30
0.0
  0
VERTEX
  8
L0D0
 10
328.111974
 20
1557.791000
 30
0.0
  0
VERTEX
  8
L0D0
 10
331.522862
 20
1555.655001
 30
0.0
  0
VERTEX
  8
L0D0
 10
334.891881
 20
1553.451000
 30
0.0
  0
VERTEX
  8
L0D0
 10
338.216954
 20
1551.181999
 30
0.0
  0
VERTEX
  8
L0D0
 10
341.495885
 20
1548.848000
 30
0.0
  0
VERTEX
  8
L0D0
 10
344.728917
 20
1546.451000
 30
0.0
  0
VERTEX
  8
L0D0
 10
347.913853
 20
1543.990002
 30
0.0
  0
VERTEX
  8
L0D0
 10
351.050938
 20
1541.466999
 30
0.0
  0
VERTEX
  8
L0D0
 10
354.136876
 20
1538.882999
 30
0.0
  0
VERTEX
  8
L0D0
 10
357.171910
 20
1536.238998
 30
0.0
  0
VERTEX
  8
L0D0
 10
360.153966
 20
1533.535999
 30
0.0
  0
VERTEX
  8
L0D0
 10
363.082921
 20
1530.775002
 30
0.0
  0
VERTEX
  8
L0D0
 10
365.956944
 20
1527.957001
 30
0.0
  0
VERTEX
  8
L0D0
 10
368.774937
 20
1525.083000
 30
0.0
  0
VERTEX
  8
L0D0
 10
371.535924
 20
1522.153999
 30
0.0
  0
VERTEX
  8
L0D0
 10
374.238927
 20
1519.172001
 30
0.0
  0
VERTEX
  8
L0D0
 10
376.882970
 20
1516.137001
 30
0.0
  0
VERTEX
  8
L0D0
 10
379.466954
 20
1513.051003
 30
0.0
  0
VERTEX
  8
L0D0
 10
381.989903
 20
1509.914001
 30
0.0
  0
VERTEX
  8
L0D0
 10
384.450963
 20
1506.728996
 30
0.0
  0
VERTEX
  8
L0D0
 10
386.847935
 20
1503.496002
 30
0.0
  0
VERTEX
  8
L0D0
 10
389.181920
 20
1500.217003
 30
0.0
  0
VERTEX
  8
L0D0
 10
391.450963
 20
1496.891998
 30
0.0
  0
VERTEX
  8
L0D0
 10
393.654942
 20
1493.523003
 30
0.0
  0
VERTEX
  8
L0D0
 10
395.790929
 20
1490.112000
 30
0.0
  0
VERTEX
  8
L0D0
 10
397.860875
 20
1486.660004
 30
0.0
  0
VERTEX
  8
L0D0
 10
399.861974
 20
1483.167000
 30
0.0
  0
VERTEX
  8
L0D0
 10
401.793858
 20
1479.636002
 30
0.0
  0
VERTEX
  8
L0D0
 10
403.655919
 20
1476.068001
 30
0.0
  0
VERTEX
  8
L0D0
 10
405.447911
 20
1472.463997
 30
0.0
  0
VERTEX
  8
L0D0
 10
407.168858
 20
1468.824997
 30
0.0
  0
VERTEX
  8
L0D0
 10
408.818883
 20
1465.153999
 30
0.0
  0
VERTEX
  8
L0D0
 10
410.394933
 20
1461.449997
 30
0.0
  0
VERTEX
  8
L0D0
 10
411.898961
 20
1457.716003
 30
0.0
  0
VERTEX
  8
L0D0
 10
413.328892
 20
1453.953995
 30
0.0
  0
VERTEX
  8
L0D0
 10
414.684972
 20
1450.164001
 30
0.0
  0
VERTEX
  8
L0D0
 10
415.966954
 20
1446.348007
 30
0.0
  0
VERTEX
  8
L0D0
 10
417.172887
 20
1442.507996
 30
0.0
  0
VERTEX
  8
L0D0
 10
418.302892
 20
1438.645004
 30
0.0
  0
VERTEX
  8
L0D0
 10
419.357945
 20
1434.761002
 30
0.0
  0
VERTEX
  8
L0D0
 10
420.335973
 20
1430.856003
 30
0.0
  0
VERTEX
  8
L0D0
 10
421.236974
 20
1426.932999
 30
0.0
  0
VERTEX
  8
L0D0
 10
422.060948
 20
1422.994003
 30
0.0
  0
VERTEX
  8
L0D0
 10
422.806920
 20
1419.037994
 30
0.0
  0
VERTEX
  8
L0D0
 10
423.475865
 20
1415.069000
 30
0.0
  0
VERTEX
  8
L0D0
 10
424.066930
 20
1411.087997
 30
0.0
  0
VERTEX
  8
L0D0
 10
424.578892
 20
1407.095001
 30
0.0
  0
VERTEX
  8
L0D0
 10
425.012852
 20
1403.093994
 30
0.0
  0
VERTEX
  8
L0D0
 10
425.367955
 20
1399.084000
 30
0.0
  0
VERTEX
  8
L0D0
 10
425.643956
 20
1395.069000
 30
0.0
  0
VERTEX
  8
L0D0
 10
425.841954
 20
1391.048004
 30
0.0
  0
VERTEX
  8
L0D0
 10
425.959874
 20
1387.024994
 30
0.0
  0
VERTEX
  8
L0D0
 10
425.999913
 20
1383.000000
 30
0.0
  0
VERTEX
  8
L0D0
 10
425.999913
 20
283.000000
 30
0.0
  0
VERTEX
  8
L0D0
 10
426.039952
 20
279.072998
 30
0.0
  0
VERTEX
  8
L0D0
 10
426.157872
 20
275.147949
 30
0.0
  0
VERTEX
  8
L0D0
 10
426.355870
 20
271.225952
 30
0.0
  0
VERTEX
  8
L0D0
 10
426.631871
 20
267.308960
 30
0.0
  0
VERTEX
  8
L0D0
 10
426.987950
 20
263.397949
 30
0.0
  0
VERTEX
  8
L0D0
 10
427.421910
 20
259.494995
 30
0.0
  0
VERTEX
  8
L0D0
 10
427.933873
 20
255.602051
 30
0.0
  0
VERTEX
  8
L0D0
 10
428.524937
 20
251.719971
 30
0.0
  0
VERTEX
  8
L0D0
 10
429.193883
 20
247.849976
 30
0.0
  0
VERTEX
  8
L0D0
 10
429.940953
 20
243.994995
 30
0.0
  0
VERTEX
  8
L0D0
 10
430.764928
 20
240.156006
 30
0.0
  0
VERTEX
  8
L0D0
 10
431.665929
 20
236.333008
 30
0.0
  0
VERTEX
  8
L0D0
 10
432.643956
 20
232.530029
 30
0.0
  0
VERTEX
  8
L0D0
 10
433.698888
 20
228.748047
 30
0.0
  0
VERTEX
  8
L0D0
 10
434.828892
 20
224.987061
 30
0.0
  0
VERTEX
  8
L0D0
 10
436.034947
 20
221.250000
 30
0.0
  0
VERTEX
  8
L0D0
 10
437.315953
 20
217.537964
 30
0.0
  0
VERTEX
  8
L0D0
 10
438.671910
 20
213.852051
 30
0.0
  0
VERTEX
  8
L0D0
 10
440.100865
 20
210.194946
 30
0.0
  0
VERTEX
  8
L0D0
 10
441.603917
 20
206.567017
 30
0.0
  0
VERTEX
  8
L0D0
 10
443.179967
 20
202.969971
 30
0.0
  0
VERTEX
  8
L0D0
 10
444.826939
 20
199.405029
 30
0.0
  0
VERTEX
  8
L0D0
 10
446.545934
 20
195.874023
 30
0.0
  0
VERTEX
  8
L0D0
 10
448.335973
 20
192.379028
 30
0.0
  0
VERTEX
  8
L0D0
 10
450.195958
 20
188.920044
 30
0.0
  0
VERTEX
  8
L0D0
 10
452.124913
 20
185.500000
 30
0.0
  0
VERTEX
  8
L0D0
 10
454.122960
 20
182.119019
 30
0.0
  0
VERTEX
  8
L0D0
 10
456.187901
 20
178.779053
 30
0.0
  0
VERTEX
  8
L0D0
 10
458.319859
 20
175.480957
 30
0.0
  0
VERTEX
  8
L0D0
 10
460.517857
 20
172.227051
 30
0.0
  0
VERTEX
  8
L0D0
 10
462.780919
 20
169.017944
 30
0.0
  0
VERTEX
  8
L0D0
 10
465.108922
 20
165.854980
 30
0.0
  0
VERTEX
  8
L0D0
 10
467.498936
 20
162.739990
 30
0.0
  0
VERTEX
  8
L0D0
 10
469.951939
 20
159.672974
 30
0.0
  0
VERTEX
  8
L0D0
 10
472.465855
 20
156.656006
 30
0.0
  0
VERTEX
  8
L0D0
 10
475.039952
 20
153.691040
 30
0.0
  0
VERTEX
  8
L0D0
 10
477.673863
 20
150.777954
 30
0.0
  0
VERTEX
  8
L0D0
 10
480.365880
 20
147.918945
 30
0.0
  0
VERTEX
  8
L0D0
 10
483.113927
 20
145.114014
 30
0.0
  0
VERTEX
  8
L0D0
 10
485.918858
 20
142.365967
 30
0.0
  0
VERTEX
  8
L0D0
 10
488.777867
 20
139.673950
 30
0.0
  0
VERTEX
  8
L0D0
 10
491.690953
 20
137.040039
 30
0.0
  0
VERTEX
  8
L0D0
 10
494.655919
 20
134.465942
 30
0.0
  0
VERTEX
  8
L0D0
 10
497.672887
 20
131.952026
 30
0.0
  0
VERTEX
  8
L0D0
 10
500.739903
 20
129.499023
 30
0.0
  0
VERTEX
  8
L0D0
 10
503.854893
 20
127.109009
 30
0.0
  0
VERTEX
  8
L0D0
 10
507.017857
 20
124.781006
 30
0.0
  0
VERTEX
  8
L0D0
 10
510.226964
 20
122.517944
 30
0.0
  0
VERTEX
  8
L0D0
 10
513.480870
 20
120.319946
 30
0.0
  0
VERTEX
  8
L0D0
 10
516.778966
 20
118.187988
 30
0.0
  0
VERTEX
  8
L0D0
 10
520.118932
 20
116.123047
 30
0.0
  0
VERTEX
  8
L0D0
 10
523.499913
 20
114.125000
 30
0.0
  0
VERTEX
  8
L0D0
 10
526.919957
 20
112.196045
 30
0.0
  0
VERTEX
  8
L0D0
 10
530.378941
 20
110.336060
 30
0.0
  0
VERTEX
  8
L0D0
 10
533.873936
 20
108.546021
 30
0.0
  0
VERTEX
  8
L0D0
 10
537.404942
 20
106.827026
 30
0.0
  0
VERTEX
  8
L0D0
 10
540.969884
 20
105.180054
 30
0.0
  0
VERTEX
  8
L0D0
 10
544.566930
 20
103.604004
 30
0.0
  0
VERTEX
  8
L0D0
 10
548.194859
 20
102.100952
 30
0.0
  0
VERTEX
  8
L0D0
 10
551.851964
 20
100.671997
 30
0.0
  0
VERTEX
  8
L0D0
 10
555.537877
 20
99.316040
 30
0.0
  0
VERTEX
  8
L0D0
 10
559.249913
 20
98.035034
 30
0.0
  0
VERTEX
  8
L0D0
 10
562.986974
 20
96.828979
 30
0.0
  0
VERTEX
  8
L0D0
 10
566.747960
 20
95.698975
 30
0.0
  0
VERTEX
  8
L0D0
 10
570.529942
 20
94.644043
 30
0.0
  0
VERTEX
  8
L0D0
 10
574.332921
 20
93.666016
 30
0.0
  0
VERTEX
  8
L0D0
 10
578.155919
 20
92.765015
 30
0.0
  0
VERTEX
  8
L0D0
 10
581.994908
 20
91.941040
 30
0.0
  0
VERTEX
  8
L0D0
 10
585.849889
 20
91.193970
 30
0.0
  0
VERTEX
  8
L0D0
 10
589.719884
 20
90.525024
 30
0.0
  0
VERTEX
  8
L0D0
 10
593.601964
 20
89.933960
 30
0.0
  0
VERTEX
  8
L0D0
 10
597.494908
 20
89.421997
 30
0.0
  0
VERTEX
  8
L0D0
 10
601.397862
 20
88.988037
 30
0.0
  0
VERTEX
  8
L0D0
 10
605.308873
 20
88.631958
 30
0.0
  0
VERTEX
  8
L0D0
 10
609.225865
 20
88.355957
 30
0.0
  0
VERTEX
  8
L0D0
 10
613.147862
 20
88.157959
 30
0.0
  0
VERTEX
  8
L0D0
 10
617.072911
 20
88.040039
 30
0.0
  0
VERTEX
  8
L0D0
 10
620.999913
 20
88.000000
 30
0.0
  0
VERTEX
  8
L0D0
 10
720.999913
 20
88.000000
 30
0.0
  0
VERTEX
  8
L0D0
 10
724.926915
 20
88.040039
 30
0.0
  0
VERTEX
  8
L0D0
 10
728.851903
 20
88.157959
 30
0.0
  0
VERTEX
  8
L0D0
 10
732.773900
 20
88.355957
 30
0.0
  0
VERTEX
  8
L0D0
 10
736.690892
 20
88.631958
 30
0.0
  0
VERTEX
  8
L0D0
 10
740.601903
 20
88.988037
 30
0.0
  0
VERTEX
  8
L0D0
 10
744.504918
 20
89.421997
 30
0.0
  0
VERTEX
  8
L0D0
 10
748.397923
 20
89.933960
 30
0.0
  0
VERTEX
  8
L0D0
 10
752.279942
 20
90.525024
 30
0.0
  0
VERTEX
  8
L0D0
 10
756.149937
 20
91.193970
 30
0.0
  0
VERTEX
  8
L0D0
 10
760.004918
 20
91.941040
 30
0.0
  0
VERTEX
  8
L0D0
 10
763.843907
 20
92.765015
 30
0.0
  0
VERTEX
  8
L0D0
 10
767.666905
 20
93.666016
 30
0.0
  0
VERTEX
  8
L0D0
 10
771.469884
 20
94.644043
 30
0.0
  0
VERTEX
  8
L0D0
 10
775.251927
 20
95.698975
 30
0.0
  0
VERTEX
  8
L0D0
 10
779.012913
 20
96.828979
 30
0.0
  0
VERTEX
  8
L0D0
 10
782.749913
 20
98.035034
 30
0.0
  0
VERTEX
  8
L0D0
 10
786.461888
 20
99.316040
 30
0.0
  0
VERTEX
  8
L0D0
 10
790.147923
 20
100.671997
 30
0.0
  0
VERTEX
  8
L0D0
 10
793.804906
 20
102.100952
 30
0.0
  0
VERTEX
  8
L0D0
 10
797.432896
 20
103.604004
 30
0.0
  0
VERTEX
  8
L0D0
 10
801.029942
 20
105.180054
 30
0.0
  0
VERTEX
  8
L0D0
 10
804.594884
 20
106.827026
 30
0.0
  0
VERTEX
  8
L0D0
 10
808.125890
 20
108.546021
 30
0.0
  0
VERTEX
  8
L0D0
 10
811.620885
 20
110.336060
 30
0.0
  0
VERTEX
  8
L0D0
 10
815.079930
 20
112.196045
 30
0.0
  0
VERTEX
  8
L0D0
 10
818.499913
 20
114.125000
 30
0.0
  0
VERTEX
  8
L0D0
 10
821.880894
 20
116.123047
 30
0.0
  0
VERTEX
  8
L0D0
 10
825.220921
 20
118.187988
 30
0.0
  0
VERTEX
  8
L0D0
 10
828.518895
 20
120.319946
 30
0.0
  0
VERTEX
  8
L0D0
 10
831.772923
 20
122.517944
 30
0.0
  0
VERTEX
  8
L0D0
 10
834.981908
 20
124.781006
 30
0.0
  0
VERTEX
  8
L0D0
 10
838.144933
 20
127.109009
 30
0.0
  0
VERTEX
  8
L0D0
 10
841.259923
 20
129.499023
 30
0.0
  0
VERTEX
  8
L0D0
 10
844.326939
 20
131.952026
 30
0.0
  0
VERTEX
  8
L0D0
 10
847.343907
 20
134.465942
 30
0.0
  0
VERTEX
  8
L0D0
 10
850.308934
 20
137.040039
 30
0.0
  0
VERTEX
  8
L0D0
 10
853.221898
 20
139.673950
 30
0.0
  0
VERTEX
  8
L0D0
 10
856.080907
 20
142.365967
 30
0.0
  0
VERTEX
  8
L0D0
 10
858.885899
 20
145.114014
 30
0.0
  0
VERTEX
  8
L0D0
 10
861.633885
 20
147.918945
 30
0.0
  0
VERTEX
  8
L0D0
 10
864.325902
 20
150.777954
 30
0.0
  0
VERTEX
  8
L0D0
 10
866.959935
 20
153.691040
 30
0.0
  0
VERTEX
  8
L0D0
 10
869.533910
 20
156.656006
 30
0.0
  0
VERTEX
  8
L0D0
 10
872.047887
 20
159.672974
 30
0.0
  0
VERTEX
  8
L0D0
 10
874.500890
 20
162.739990
 30
0.0
  0
VERTEX
  8
L0D0
 10
876.890904
 20
165.854980
 30
0.0
  0
VERTEX
  8
L0D0
 10
879.218907
 20
169.017944
 30
0.0
  0
VERTEX
  8
L0D0
 10
881.481908
 20
172.227051
 30
0.0
  0
VERTEX
  8
L0D0
 10
883.679906
 20
175.480957
 30
0.0
  0
VERTEX
  8
L0D0
 10
885.811925
 20
178.779053
 30
0.0
  0
VERTEX
  8
L0D0
 10
887.876927
 20
182.119019
 30
0.0
  0
VERTEX
  8
L0D0
 10
889.874913
 20
185.500000
 30
0.0
  0
VERTEX
  8
L0D0
 10
891.803929
 20
188.920044
 30
0.0
  0
VERTEX
  8
L0D0
 10
893.663914
 20
192.379028
 30
0.0
  0
VERTEX
  8
L0D0
 10
895.453892
 20
195.874023
 30
0.0
  0
VERTEX
  8
L0D0
 10
897.172887
 20
199.405029
 30
0.0
  0
VERTEX
  8
L0D0
 10
898.819920
 20
202.969971
 30
0.0
  0
VERTEX
  8
L0D0
 10
900.395909
 20
206.567017
 30
0.0
  0
VERTEX
  8
L0D0
 10
901.898900
 20
210.194946
 30
0.0
  0
VERTEX
  8
L0D0
 10
903.327916
 20
213.852051
 30
0.0
  0
VERTEX
  8
L0D0
 10
904.683934
 20
217.537964
 30
0.0
  0
VERTEX
  8
L0D0
 10
905.964940
 20
221.250000
 30
0.0
  0
VERTEX
  8
L0D0
 10
907.170934
 20
224.987061
 30
0.0
  0
VERTEX
  8
L0D0
 10
908.300938
 20
228.748047
 30
0.0
  0
VERTEX
  8
L0D0
 10
909.355931
 20
232.530029
 30
0.0
  0
VERTEX
  8
L0D0
 10
910.333897
 20
236.333008
 30
0.0
  0
VERTEX
  8
L0D0
 10
911.234898
 20
240.156006
 30
0.0
  0
VERTEX
  8
L0D0
 10
912.058934
 20
243.994995
 30
0.0
  0
VERTEX
  8
L0D0
 10
912.805943
 20
247.849976
 30
0.0
  0
VERTEX
  8
L0D0
 10
913.474889
 20
251.719971
 30
0.0
  0
VERTEX
  8
L0D0
 10
914.065892
 20
255.602051
 30
0.0
  0
VERTEX
  8
L0D0
 10
914.577916
 20
259.494995
 30
0.0
  0
VERTEX
  8
L0D0
 10
915.011937
 20
263.397949
 30
0.0
  0
VERTEX
  8
L0D0
 10
915.367894
 20
267.308960
 30
0.0
  0
VERTEX
  8
L0D0
 10
915.643895
 20
271.225952
 30
0.0
  0
VERTEX
  8
L0D0
 10
915.841893
 20
275.147949
 30
0.0
  0
VERTEX
  8
L0D0
 10
915.959935
 20
279.072998
 30
0.0
  0
VERTEX
  8
L0D0
 10
915.999913
 20
283.000000
 30
0.0
  0
VERTEX
  8
L0D0
 10
915.999913
 20
1383.000000
 30
0.0
  0
VERTEX
  8
L0D0
 10
916.039891
 20
1387.024994
 30
0.0
  0
VERTEX
  8
L0D0
 10
916.157933
 20
1391.048004
 30
0.0
  0
VERTEX
  8
L0D0
 10
916.355931
 20
1395.069000
 30
0.0
  0
VERTEX
  8
L0D0
 10
916.631932
 20
1399.084000
 30
0.0
  0
VERTEX
  8
L0D0
 10
916.986913
 20
1403.093994
 30
0.0
  0
VERTEX
  8
L0D0
 10
917.420934
 20
1407.095001
 30
0.0
  0
VERTEX
  8
L0D0
 10
917.932896
 20
1411.087997
 30
0.0
  0
VERTEX
  8
L0D0
 10
918.523900
 20
1415.069000
 30
0.0
  0
VERTEX
  8
L0D0
 10
919.192906
 20
1419.037994
 30
0.0
  0
VERTEX
  8
L0D0
 10
919.938939
 20
1422.994003
 30
0.0
  0
VERTEX
  8
L0D0
 10
920.762913
 20
1426.932999
 30
0.0
  0
VERTEX
  8
L0D0
 10
921.663914
 20
1430.856003
 30
0.0
  0
VERTEX
  8
L0D0
 10
922.641942
 20
1434.761002
 30
0.0
  0
VERTEX
  8
L0D0
 10
923.696934
 20
1438.645004
 30
0.0
  0
VERTEX
  8
L0D0
 10
924.826939
 20
1442.507996
 30
0.0
  0
VERTEX
  8
L0D0
 10
926.032933
 20
1446.348007
 30
0.0
  0
VERTEX
  8
L0D0
 10
927.314915
 20
1450.164001
 30
0.0
  0
VERTEX
  8
L0D0
 10
928.670934
 20
1453.953995
 30
0.0
  0
VERTEX
  8
L0D0
 10
930.100926
 20
1457.716003
 30
0.0
  0
VERTEX
  8
L0D0
 10
931.604893
 20
1461.449997
 30
0.0
  0
VERTEX
  8
L0D0
 10
933.180943
 20
1465.153999
 30
0.0
  0
VERTEX
  8
L0D0
 10
934.830907
 20
1468.824997
 30
0.0
  0
VERTEX
  8
L0D0
 10
936.551915
 20
1472.463997
 30
0.0
  0
VERTEX
  8
L0D0
 10
938.343907
 20
1476.068001
 30
0.0
  0
VERTEX
  8
L0D0
 10
940.205907
 20
1479.636002
 30
0.0
  0
VERTEX
  8
L0D0
 10
942.137913
 20
1483.167000
 30
0.0
  0
VERTEX
  8
L0D0
 10
944.138890
 20
1486.660004
 30
0.0
  0
VERTEX
  8
L0D0
 10
946.208897
 20
1490.112000
 30
0.0
  0
VERTEX
  8
L0D0
 10
948.344884
 20
1493.523003
 30
0.0
  0
VERTEX
  8
L0D0
 10
950.548924
 20
1496.891998
 30
0.0
  0
VERTEX
  8
L0D0
 10
952.817906
 20
1500.217003
 30
0.0
  0
VERTEX
  8
L0D0
 10
955.151891
 20
1503.496002
 30
0.0
  0
VERTEX
  8
L0D0
 10
957.548924
 20
1506.728996
 30
0.0
  0
VERTEX
  8
L0D0
 10
960.009923
 20
1509.914001
 30
0.0
  0
VERTEX
  8
L0D0
 10
962.532933
 20
1513.051003
 30
0.0
  0
VERTEX
  8
L0D0
 10
965.116917
 20
1516.137001
 30
0.0
  0
VERTEX
  8
L0D0
 10
967.760899
 20
1519.172001
 30
0.0
  0
VERTEX
  8
L0D0
 10
970.463902
 20
1522.153999
 30
0.0
  0
VERTEX
  8
L0D0
 10
973.224889
 20
1525.083000
 30
0.0
  0
VERTEX
  8
L0D0
 10
976.042943
 20
1527.957001
 30
0.0
  0
VERTEX
  8
L0D0
 10
978.916905
 20
1530.775002
 30
0.0
  0
VERTEX
  8
L0D0
 10
981.845921
 20
1533.535999
 30
0.0
  0
VERTEX
  8
L0D0
 10
984.827916
 20
1536.238998
 30
0.0
  0
VERTEX
  8
L0D0
 10
987.862889
 20
1538.882999
 30
0.0
  0
VERTEX
  8
L0D0
 10
990.948888
 20
1541.466999
 30
0.0
  0
VERTEX
  8
L0D0
 10
994.085912
 20
1543.990002
 30
0.0
  0
VERTEX
  8
L0D0
 10
997.270909
 20
1546.451000
 30
0.0
  0
VERTEX
  8
L0D0
 10
1000.503941
 20
1548.848000
 30
0.0
  0
VERTEX
  8
L0D0
 10
1003.782933
 20
1551.181999
 30
0.0
  0
VERTEX
  8
L0D0
 10
1007.107884
 20
1553.451000
 30
0.0
  0
VERTEX
  8
L0D0
 10
1010.476903
 20
1555.655001
 30
0.0
  0
VERTEX
  8
L0D0
 10
1013.887913
 20
1557.791000
 30
0.0
  0
VERTEX
  8
L0D0
 10
1017.339940
 20
1559.861000
 30
0.0
  0
VERTEX
  8
L0D0
 10
1020.832921
 20
1561.862000
 30
0.0
  0
VERTEX
  8
L0D0
 10
1024.363927
 20
1563.794001
 30
0.0
  0
VERTEX
  8
L0D0
 10
1027.931920
 20
1565.656000
 30
0.0
  0
VERTEX
  8
L0D0
 10
1031.535924
 20
1567.448000
 30
0.0
  0
VERTEX
  8
L0D0
 10
1035.174901
 20
1569.169000
 30
0.0
  0
VERTEX
  8
L0D0
 10
1038.845921
 20
1570.819000
 30
0.0
  0
VERTEX
  8
L0D0
 10
1042.549901
 20
1572.395000
 30
0.0
  0
VERTEX
  8
L0D0
 10
1046.283910
 20
1573.899000
 30
0.0
  0
VERTEX
  8
L0D0
 10
1050.045934
 20
1575.329000
 30
0.0
  0
VERTEX
  8
L0D0
 10
1053.835912
 20
1576.685000
 30
0.0
  0
VERTEX
  8
L0D0
 10
1057.651891
 20
1577.967000
 30
0.0
  0
VERTEX
  8
L0D0
 10
1061.491917
 20
1579.173000
 30
0.0
  0
VERTEX
  8
L0D0
 10
1065.354893
 20
1580.303000
 30
0.0
  0
VERTEX
  8
L0D0
 10
1069.238927
 20
1581.358000
 30
0.0
  0
VERTEX
  8
L0D0
 10
1073.143895
 20
1582.336000
 30
0.0
  0
VERTEX
  8
L0D0
 10
1077.066930
 20
1583.237000
 30
0.0
  0
VERTEX
  8
L0D0
 10
1081.005894
 20
1584.061000
 30
0.0
  0
VERTEX
  8
L0D0
 10
1084.961888
 20
1584.807000
 30
0.0
  0
VERTEX
  8
L0D0
 10
1088.930943
 20
1585.476000
 30
0.0
  0
VERTEX
  8
L0D0
 10
1092.911900
 20
1586.067000
 30
0.0
  0
VERTEX
  8
L0D0
 10
1096.904942
 20
1586.579000
 30
0.0
  0
VERTEX
  8
L0D0
 10
1100.905919
 20
1587.013000
 30
0.0
  0
VERTEX
  8
L0D0
 10
1104.915929
 20
1587.368000
 30
0.0
  0
VERTEX
  8
L0D0
 10
1108.930943
 20
1587.644000
 30
0.0
  0
VERTEX
  8
L0D0
 10
1112.951939
 20
1587.842000
 30
0.0
  0
VERTEX
  8
L0D0
 10
1116.974889
 20
1587.960000
 30
0.0
  0
VERTEX
  8
L0D0
 10
1120.999913
 20
1588.000000
 30
0.0
  0
VERTEX
  8
L0D0
 10
1420.999913
 20
1588.000000
 30
0.0
  0
VERTEX
  8
L0D0
 10
1420.999913
 20
1595.100000
 30
0.0
  0
VERTEX
  8
L0D0
 10
1120.999913
 20
1595.100000
 30
0.0
  0
VERTEX
  8
L0D0
 10
1116.886937
 20
1595.060000
 30
0.0
  0
VERTEX
  8
L0D0
 10
1112.775914
 20
1594.940000
 30
0.0
  0
VERTEX
  8
L0D0
 10
1108.666905
 20
1594.741000
 30
0.0
  0
VERTEX
  8
L0D0
 10
1104.563939
 20
1594.462000
 30
0.0
  0
VERTEX
  8
L0D0
 10
1100.465916
 20
1594.104000
 30
0.0
  0
VERTEX
  8
L0D0
 10
1096.376927
 20
1593.666000
 30
0.0
  0
VERTEX
  8
L0D0
 10
1092.295934
 20
1593.149000
 30
0.0
  0
VERTEX
  8
L0D0
 10
1088.226903
 20
1592.553000
 30
0.0
  0
VERTEX
  8
L0D0
 10
1084.168919
 20
1591.878000
 30
0.0
  0
VERTEX
  8
L0D0
 10
1080.125890
 20
1591.124000
 30
0.0
  0
VERTEX
  8
L0D0
 10
1076.097935
 20
1590.293000
 30
0.0
  0
VERTEX
  8
L0D0
 10
1072.085912
 20
1589.383000
 30
0.0
  0
VERTEX
  8
L0D0
 10
1068.093907
 20
1588.396000
 30
0.0
  0
VERTEX
  8
L0D0
 10
1064.120885
 20
1587.331000
 30
0.0
  0
VERTEX
  8
L0D0
 10
1060.168919
 20
1586.190000
 30
0.0
  0
VERTEX
  8
L0D0
 10
1056.239903
 20
1584.972000
 30
0.0
  0
VERTEX
  8
L0D0
 10
1052.335912
 20
1583.678000
 30
0.0
  0
VERTEX
  8
L0D0
 10
1048.457921
 20
1582.309000
 30
0.0
  0
VERTEX
  8
L0D0
 10
1044.605931
 20
1580.865000
 30
0.0
  0
VERTEX
  8
L0D0
 10
1040.783910
 20
1579.346000
 30
0.0
  0
VERTEX
  8
L0D0
 10
1036.990941
 20
1577.754000
 30
0.0
  0
VERTEX
  8
L0D0
 10
1033.230931
 20
1576.088000
 30
0.0
  0
VERTEX
  8
L0D0
 10
1029.502904
 20
1574.350000
 30
0.0
  0
VERTEX
  8
L0D0
 10
1025.809911
 20
1572.539000
 30
0.0
  0
VERTEX
  8
L0D0
 10
1022.151891
 20
1570.658000
 30
0.0
  0
VERTEX
  8
L0D0
 10
1018.531895
 20
1568.706000
 30
0.0
  0
VERTEX
  8
L0D0
 10
1014.949925
 20
1566.684000
 30
0.0
  0
VERTEX
  8
L0D0
 10
1011.407933
 20
1564.593000
 30
0.0
  0
VERTEX
  8
L0D0
 10
1007.906895
 20
1562.434000
 30
0.0
  0
VERTEX
  8
L0D0
 10
1004.448888
 20
1560.207001
 30
0.0
  0
VERTEX
  8
L0D0
 10
1001.034886
 20
1557.914000
 30
0.0
  0
VERTEX
  8
L0D0
 10
997.665929
 20
1555.554001
 30
0.0
  0
VERTEX
  8
L0D0
 10
994.342931
 20
1553.129999
 30
0.0
  0
VERTEX
  8
L0D0
 10
991.066930
 20
1550.641998
 30
0.0
  0
VERTEX
  8
L0D0
 10
987.840916
 20
1548.091000
 30
0.0
  0
VERTEX
  8
L0D0
 10
984.664891
 20
1545.478001
 30
0.0
  0
VERTEX
  8
L0D0
 10
981.539891
 20
1542.804001
 30
0.0
  0
VERTEX
  8
L0D0
 10
978.466893
 20
1540.069000
 30
0.0
  0
VERTEX
  8
L0D0
 10
975.447911
 20
1537.276001
 30
0.0
  0
VERTEX
  8
L0D0
 10
972.483922
 20
1534.424000
 30
0.0
  0
VERTEX
  8
L0D0
 10
969.575902
 20
1531.515999
 30
0.0
  0
VERTEX
  8
L0D0
 10
966.723912
 20
1528.551998
 30
0.0
  0
VERTEX
  8
L0D0
 10
963.930943
 20
1525.533001
 30
0.0
  0
VERTEX
  8
L0D0
 10
961.195897
 20
1522.459999
 30
0.0
  0
VERTEX
  8
L0D0
 10
958.521886
 20
1519.334999
 30
0.0
  0
VERTEX
  8
L0D0
 10
955.908910
 20
1516.158997
 30
0.0
  0
VERTEX
  8
L0D0
 10
953.357884
 20
1512.932999
 30
0.0
  0
VERTEX
  8
L0D0
 10
950.869908
 20
1509.656998
 30
0.0
  0
VERTEX
  8
L0D0
 10
948.445897
 20
1506.334000
 30
0.0
  0
VERTEX
  8
L0D0
 10
946.085912
 20
1502.964996
 30
0.0
  0
VERTEX
  8
L0D0
 10
943.792943
 20
1499.551003
 30
0.0
  0
VERTEX
  8
L0D0
 10
941.565892
 20
1496.093002
 30
0.0
  0
VERTEX
  8
L0D0
 10
939.406895
 20
1492.592003
 30
0.0
  0
VERTEX
  8
L0D0
 10
937.315892
 20
1489.050003
 30
0.0
  0
VERTEX
  8
L0D0
 10
935.293919
 20
1485.468002
 30
0.0
  0
VERTEX
  8
L0D0
 10
933.341893
 20
1481.848000
 30
0.0
  0
VERTEX
  8
L0D0
 10
931.460912
 20
1478.190002
 30
0.0
  0
VERTEX
  8
L0D0
 10
929.649937
 20
1474.497002
 30
0.0
  0
VERTEX
  8
L0D0
 10
927.911900
 20
1470.768997
 30
0.0
  0
VERTEX
  8
L0D0
 10
926.245885
 20
1467.009003
 30
0.0
  0
VERTEX
  8
L0D0
 10
924.653905
 20
1463.216003
 30
0.0
  0
VERTEX
  8
L0D0
 10
923.134923
 20
1459.393997
 30
0.0
  0
VERTEX
  8
L0D0
 10
921.690892
 20
1455.542000
 30
0.0
  0
VERTEX
  8
L0D0
 10
920.321934
 20
1451.664001
 30
0.0
  0
VERTEX
  8
L0D0
 10
919.027928
 20
1447.759995
 30
0.0
  0
VERTEX
  8
L0D0
 10
917.809911
 20
1443.830994
 30
0.0
  0
VERTEX
  8
L0D0
 10
916.668919
 20
1439.878998
 30
0.0
  0
VERTEX
  8
L0D0
 10
915.603917
 20
1435.906006
 30
0.0
  0
VERTEX
  8
L0D0
 10
914.616917
 20
1431.914001
 30
0.0
  0
VERTEX
  8
L0D0
 10
913.706883
 20
1427.901993
 30
0.0
  0
VERTEX
  8
L0D0
 10
912.875890
 20
1423.873993
 30
0.0
  0
VERTEX
  8
L0D0
 10
912.121922
 20
1419.830994
 30
0.0
  0
VERTEX
  8
L0D0
 10
911.446934
 20
1415.772995
 30
0.0
  0
VERTEX
  8
L0D0
 10
910.850926
 20
1411.703995
 30
0.0
  0
VERTEX
  8
L0D0
 10
910.333897
 20
1407.623001
 30
0.0
  0
VERTEX
  8
L0D0
 10
909.895909
 20
1403.533997
 30
0.0
  0
VERTEX
  8
L0D0
 10
909.537938
 20
1399.436005
 30
0.0
  0
VERTEX
  8
L0D0
 10
909.258885
 20
1395.332993
 30
0.0
  0
VERTEX
  8
L0D0
 10
909.059911
 20
1391.223999
 30
0.0
  0
VERTEX
  8
L0D0
 10
908.939915
 20
1387.113007
 30
0.0
  0
VERTEX
  8
L0D0
 10
908.899937
 20
1383.000000
 30
0.0
  0
VERTEX
  8
L0D0
 10
908.899937
 20
283.000000
 30
0.0
  0
VERTEX
  8
L0D0
 10
908.859898
 20
279.116943
 30
0.0
  0
VERTEX
  8
L0D0
 10
908.738927
 20
275.234985
 30
0.0
  0
VERTEX
  8
L0D0
 10
908.538914
 20
271.357056
 30
0.0
  0
VERTEX
  8
L0D0
 10
908.257909
 20
267.483032
 30
0.0
  0
VERTEX
  8
L0D0
 10
907.897923
 20
263.616943
 30
0.0
  0
VERTEX
  8
L0D0
 10
907.456883
 20
259.758057
 30
0.0
  0
VERTEX
  8
L0D0
 10
906.936925
 20
255.910034
 30
0.0
  0
VERTEX
  8
L0D0
 10
906.336888
 20
252.072998
 30
0.0
  0
VERTEX
  8
L0D0
 10
905.658910
 20
248.249023
 30
0.0
  0
VERTEX
  8
L0D0
 10
904.900914
 20
244.439941
 30
0.0
  0
VERTEX
  8
L0D0
 10
904.064915
 20
240.647949
 30
0.0
  0
VERTEX
  8
L0D0
 10
903.149937
 20
236.873047
 30
0.0
  0
VERTEX
  8
L0D0
 10
902.157933
 20
233.119019
 30
0.0
  0
VERTEX
  8
L0D0
 10
901.088902
 20
229.385010
 30
0.0
  0
VERTEX
  8
L0D0
 10
899.941930
 20
225.675049
 30
0.0
  0
VERTEX
  8
L0D0
 10
898.718907
 20
221.989014
 30
0.0
  0
VERTEX
  8
L0D0
 10
897.419896
 20
218.328979
 30
0.0
  0
VERTEX
  8
L0D0
 10
896.045934
 20
214.697021
 30
0.0
  0
VERTEX
  8
L0D0
 10
894.596898
 20
211.093994
 30
0.0
  0
VERTEX
  8
L0D0
 10
893.073888
 20
207.520996
 30
0.0
  0
VERTEX
  8
L0D0
 10
891.476903
 20
203.980957
 30
0.0
  0
VERTEX
  8
L0D0
 10
889.807896
 20
200.474976
 30
0.0
  0
VERTEX
  8
L0D0
 10
888.065892
 20
197.004028
 30
0.0
  0
VERTEX
  8
L0D0
 10
886.252904
 20
193.568970
 30
0.0
  0
VERTEX
  8
L0D0
 10
884.369908
 20
190.172974
 30
0.0
  0
VERTEX
  8
L0D0
 10
882.415929
 20
186.817017
 30
0.0
  0
VERTEX
  8
L0D0
 10
880.393895
 20
183.500977
 30
0.0
  0
VERTEX
  8
L0D0
 10
878.303929
 20
180.228027
 30
0.0
  0
VERTEX
  8
L0D0
 10
876.145909
 20
176.999023
 30
0.0
  0
VERTEX
  8
L0D0
 10
873.921910
 20
173.816040
 30
0.0
  0
VERTEX
  8
L0D0
 10
871.632909
 20
170.678955
 30
0.0
  0
VERTEX
  8
L0D0
 10
869.279942
 20
167.588989
 30
0.0
  0
VERTEX
  8
L0D0
 10
866.862889
 20
164.550049
 30
0.0
  0
VERTEX
  8
L0D0
 10
864.382909
 20
161.560059
 30
0.0
  0
VERTEX
  8
L0D0
 10
861.842931
 20
158.623047
 30
0.0
  0
VERTEX
  8
L0D0
 10
859.242894
 20
155.739014
 30
0.0
  0
VERTEX
  8
L0D0
 10
856.582921
 20
152.909058
 30
0.0
  0
VERTEX
  8
L0D0
 10
853.864903
 20
150.135010
 30
0.0
  0
VERTEX
  8
L0D0
 10
851.090916
 20
147.416992
 30
0.0
  0
VERTEX
  8
L0D0
 10
848.260899
 20
144.756958
 30
0.0
  0
VERTEX
  8
L0D0
 10
845.376927
 20
142.156982
 30
0.0
  0
VERTEX
  8
L0D0
 10
842.439915
 20
139.616943
 30
0.0
  0
VERTEX
  8
L0D0
 10
839.449925
 20
137.136963
 30
0.0
  0
VERTEX
  8
L0D0
 10
836.410924
 20
134.719971
 30
0.0
  0
VERTEX
  8
L0D0
 10
833.320897
 20
132.366943
 30
0.0
  0
VERTEX
  8
L0D0
 10
830.183934
 20
130.078003
 30
0.0
  0
VERTEX
  8
L0D0
 10
827.000890
 20
127.854004
 30
0.0
  0
VERTEX
  8
L0D0
 10
823.771886
 20
125.696045
 30
0.0
  0
VERTEX
  8
L0D0
 10
820.498936
 20
123.605957
 30
0.0
  0
VERTEX
  8
L0D0
 10
817.182896
 20
121.583984
 30
0.0
  0
VERTEX
  8
L0D0
 10
813.826939
 20
119.630005
 30
0.0
  0
VERTEX
  8
L0D0
 10
810.430943
 20
117.746948
 30
0.0
  0
VERTEX
  8
L0D0
 10
806.995885
 20
115.933960
 30
0.0
  0
VERTEX
  8
L0D0
 10
803.524937
 20
114.192017
 30
0.0
  0
VERTEX
  8
L0D0
 10
800.018895
 20
112.522949
 30
0.0
  0
VERTEX
  8
L0D0
 10
796.478917
 20
110.926025
 30
0.0
  0
VERTEX
  8
L0D0
 10
792.905919
 20
109.402954
 30
0.0
  0
VERTEX
  8
L0D0
 10
789.302892
 20
107.953979
 30
0.0
  0
VERTEX
  8
L0D0
 10
785.670934
 20
106.579956
 30
0.0
  0
VERTEX
  8
L0D0
 10
782.010899
 20
105.281006
 30
0.0
  0
VERTEX
  8
L0D0
 10
778.324925
 20
104.057983
 30
0.0
  0
VERTEX
  8
L0D0
 10
774.614903
 20
102.911011
 30
0.0
  0
VERTEX
  8
L0D0
 10
770.880894
 20
101.842041
 30
0.0
  0
VERTEX
  8
L0D0
 10
767.126927
 20
100.849976
 30
0.0
  0
VERTEX
  8
L0D0
 10
763.351903
 20
99.935059
 30
0.0
  0
VERTEX
  8
L0D0
 10
759.559911
 20
99.098999
 30
0.0
  0
VERTEX
  8
L0D0
 10
755.750890
 20
98.340942
 30
0.0
  0
VERTEX
  8
L0D0
 10
751.926915
 20
97.662964
 30
0.0
  0
VERTEX
  8
L0D0
 10
748.089940
 20
97.062988
 30
0.0
  0
VERTEX
  8
L0D0
 10
744.241917
 20
96.542969
 30
0.0
  0
VERTEX
  8
L0D0
 10
740.382909
 20
96.102051
 30
0.0
  0
VERTEX
  8
L0D0
 10
736.516942
 20
95.741943
 30
0.0
  0
VERTEX
  8
L0D0
 10
732.642918
 20
95.461060
 30
0.0
  0
VERTEX
  8
L0D0
 10
728.764928
 20
95.260986
 30
0.0
  0
VERTEX
  8
L0D0
 10
724.882909
 20
95.140015
 30
0.0
  0
VERTEX
  8
L0D0
 10
720.999913
 20
95.099976
 30
0.0
  0
VERTEX
  8
L0D0
 10
620.999913
 20
95.099976
 30
0.0
  0
VERTEX
  8
L0D0
 10
617.116856
 20
95.140015
 30
0.0
  0
VERTEX
  8
L0D0
 10
613.234898
 20
95.260986
 30
0.0
  0
VERTEX
  8
L0D0
 10
609.356969
 20
95.461060
 30
0.0
  0
VERTEX
  8
L0D0
 10
605.482945
 20
95.741943
 30
0.0
  0
VERTEX
  8
L0D0
 10
601.616856
 20
96.102051
 30
0.0
  0
VERTEX
  8
L0D0
 10
597.757970
 20
96.542969
 30
0.0
  0
VERTEX
  8
L0D0
 10
593.909947
 20
97.062988
 30
0.0
  0
VERTEX
  8
L0D0
 10
590.072911
 20
97.662964
 30
0.0
  0
VERTEX
  8
L0D0
 10
586.248936
 20
98.340942
 30
0.0
  0
VERTEX
  8
L0D0
 10
582.439854
 20
99.098999
 30
0.0
  0
VERTEX
  8
L0D0
 10
578.647862
 20
99.935059
 30
0.0
  0
VERTEX
  8
L0D0
 10
574.872960
 20
100.849976
 30
0.0
  0
VERTEX
  8
L0D0
 10
571.118932
 20
101.842041
 30
0.0
  0
VERTEX
  8
L0D0
 10
567.384923
 20
102.911011
 30
0.0
  0
VERTEX
  8
L0D0
 10
563.674962
 20
104.057983
 30
0.0
  0
VERTEX
  8
L0D0
 10
559.988927
 20
105.281006
 30
0.0
  0
VERTEX
  8
L0D0
 10
556.328892
 20
106.579956
 30
0.0
  0
VERTEX
  8
L0D0
 10
552.696934
 20
107.953979
 30
0.0
  0
VERTEX
  8
L0D0
 10
549.093907
 20
109.402954
 30
0.0
  0
VERTEX
  8
L0D0
 10
545.520909
 20
110.926025
 30
0.0
  0
VERTEX
  8
L0D0
 10
541.980870
 20
112.522949
 30
0.0
  0
VERTEX
  8
L0D0
 10
538.474889
 20
114.192017
 30
0.0
  0
VERTEX
  8
L0D0
 10
535.003941
 20
115.933960
 30
0.0
  0
VERTEX
  8
L0D0
 10
531.568883
 20
117.746948
 30
0.0
  0
VERTEX
  8
L0D0
 10
528.172887
 20
119.630005
 30
0.0
  0
VERTEX
  8
L0D0
 10
524.816930
 20
121.583984
 30
0.0
  0
VERTEX
  8
L0D0
 10
521.500890
 20
123.605957
 30
0.0
  0
VERTEX
  8
L0D0
 10
518.227940
 20
125.696045
 30
0.0
  0
VERTEX
  8
L0D0
 10
514.998936
 20
127.854004
 30
0.0
  0
VERTEX
  8
L0D0
 10
511.815953
 20
130.078003
 30
0.0
  0
VERTEX
  8
L0D0
 10
508.678868
 20
132.366943
 30
0.0
  0
VERTEX
  8
L0D0
 10
505.588902
 20
134.719971
 30
0.0
  0
VERTEX
  8
L0D0
 10
502.549962
 20
137.136963
 30
0.0
  0
VERTEX
  8
L0D0
 10
499.559972
 20
139.616943
 30
0.0
  0
VERTEX
  8
L0D0
 10
496.622960
 20
142.156982
 30
0.0
  0
VERTEX
  8
L0D0
 10
493.738927
 20
144.756958
 30
0.0
  0
VERTEX
  8
L0D0
 10
490.908971
 20
147.416992
 30
0.0
  0
VERTEX
  8
L0D0
 10
488.134923
 20
150.135010
 30
0.0
  0
VERTEX
  8
L0D0
 10
485.416905
 20
152.909058
 30
0.0
  0
VERTEX
  8
L0D0
 10
482.756871
 20
155.739014
 30
0.0
  0
VERTEX
  8
L0D0
 10
480.156895
 20
158.623047
 30
0.0
  0
VERTEX
  8
L0D0
 10
477.616856
 20
161.560059
 30
0.0
  0
VERTEX
  8
L0D0
 10
475.136876
 20
164.550049
 30
0.0
  0
VERTEX
  8
L0D0
 10
472.719884
 20
167.588989
 30
0.0
  0
VERTEX
  8
L0D0
 10
470.366856
 20
170.678955
 30
0.0
  0
VERTEX
  8
L0D0
 10
468.077916
 20
173.816040
 30
0.0
  0
VERTEX
  8
L0D0
 10
465.853917
 20
176.999023
 30
0.0
  0
VERTEX
  8
L0D0
 10
463.695958
 20
180.228027
 30
0.0
  0
VERTEX
  8
L0D0
 10
461.605870
 20
183.500977
 30
0.0
  0
VERTEX
  8
L0D0
 10
459.583897
 20
186.817017
 30
0.0
  0
VERTEX
  8
L0D0
 10
457.629918
 20
190.172974
 30
0.0
  0
VERTEX
  8
L0D0
 10
455.746861
 20
193.568970
 30
0.0
  0
VERTEX
  8
L0D0
 10
453.933873
 20
197.004028
 30
0.0
  0
VERTEX
  8
L0D0
 10
452.191930
 20
200.474976
 30
0.0
  0
VERTEX
  8
L0D0
 10
450.522862
 20
203.980957
 30
0.0
  0
VERTEX
  8
L0D0
 10
448.925938
 20
207.520996
 30
0.0
  0
VERTEX
  8
L0D0
 10
447.402867
 20
211.093994
 30
0.0
  0
VERTEX
  8
L0D0
 10
445.953892
 20
214.697021
 30
0.0
  0
VERTEX
  8
L0D0
 10
444.579869
 20
218.328979
 30
0.0
  0
VERTEX
  8
L0D0
 10
443.280919
 20
221.989014
 30
0.0
  0
VERTEX
  8
L0D0
 10
442.057896
 20
225.675049
 30
0.0
  0
VERTEX
  8
L0D0
 10
440.910924
 20
229.385010
 30
0.0
  0
VERTEX
  8
L0D0
 10
439.841954
 20
233.119019
 30
0.0
  0
VERTEX
  8
L0D0
 10
438.849889
 20
236.873047
 30
0.0
  0
VERTEX
  8
L0D0
 10
437.934972
 20
240.647949
 30
0.0
  0
VERTEX
  8
L0D0
 10
437.098912
 20
244.439941
 30
0.0
  0
VERTEX
  8
L0D0
 10
436.340855
 20
248.249023
 30
0.0
  0
VERTEX
  8
L0D0
 10
435.662877
 20
252.072998
 30
0.0
  0
VERTEX
  8
L0D0
 10
435.062901
 20
255.910034
 30
0.0
  0
VERTEX
  8
L0D0
 10
434.542882
 20
259.758057
 30
0.0
  0
VERTEX
  8
L0D0
 10
434.101964
 20
263.616943
 30
0.0
  0
VERTEX
  8
L0D0
 10
433.741856
 20
267.483032
 30
0.0
  0
VERTEX
  8
L0D0
 10
433.460973
 20
271.357056
 30
0.0
  0
VERTEX
  8
L0D0
 10
433.260899
 20
275.234985
 30
0.0
  0
VERTEX
  8
L0D0
 10
433.139928
 20
279.116943
 30
0.0
  0
VERTEX
  8
L0D0
 10
433.099889
 20
283.000000
 30
0.0
  0
VERTEX
  8
L0D0
 10
433.099889
 20
1383.000000
 30
0.0
  0
VERTEX
  8
L0D0
 10
433.059972
 20
1387.113007
 30
0.0
  0
VERTEX
  8
L0D0
 10
432.939854
 20
1391.223999
 30
0.0
  0
VERTEX
  8
L0D0
 10
432.740880
 20
1395.332993
 30
0.0
  0
VERTEX
  8
L0D0
 10
432.461949
 20
1399.436005
 30
0.0
  0
VERTEX
  8
L0D0
 10
432.103917
 20
1403.533997
 30
0.0
  0
VERTEX
  8
L0D0
 10
431.665929
 20
1407.623001
 30
0.0
  0
VERTEX
  8
L0D0
 10
431.148961
 20
1411.703995
 30
0.0
  0
VERTEX
  8
L0D0
 10
430.552892
 20
1415.772995
 30
0.0
  0
VERTEX
  8
L0D0
 10
429.877965
 20
1419.830994
 30
0.0
  0
VERTEX
  8
L0D0
 10
429.123936
 20
1423.873993
 30
0.0
  0
VERTEX
  8
L0D0
 10
428.292882
 20
1427.901993
 30
0.0
  0
VERTEX
  8
L0D0
 10
427.382970
 20
1431.914001
 30
0.0
  0
VERTEX
  8
L0D0
 10
426.395909
 20
1435.906006
 30
0.0
  0
VERTEX
  8
L0D0
 10
425.330968
 20
1439.878998
 30
0.0
  0
VERTEX
  8
L0D0
 10
424.189854
 20
1443.830994
 30
0.0
  0
VERTEX
  8
L0D0
 10
422.971959
 20
1447.759995
 30
0.0
  0
VERTEX
  8
L0D0
 10
421.677892
 20
1451.664001
 30
0.0
  0
VERTEX
  8
L0D0
 10
420.308873
 20
1455.542000
 30
0.0
  0
VERTEX
  8
L0D0
 10
418.864903
 20
1459.393997
 30
0.0
  0
VERTEX
  8
L0D0
 10
417.345860
 20
1463.216003
 30
0.0
  0
VERTEX
  8
L0D0
 10
415.753941
 20
1467.009003
 30
0.0
  0
VERTEX
  8
L0D0
 10
414.087926
 20
1470.768997
 30
0.0
  0
VERTEX
  8
L0D0
 10
412.349889
 20
1474.497002
 30
0.0
  0
VERTEX
  8
L0D0
 10
410.538853
 20
1478.190002
 30
0.0
  0
VERTEX
  8
L0D0
 10
408.657872
 20
1481.848000
 30
0.0
  0
VERTEX
  8
L0D0
 10
406.705968
 20
1485.468002
 30
0.0
  0
VERTEX
  8
L0D0
 10
404.683873
 20
1489.050003
 30
0.0
  0
VERTEX
  8
L0D0
 10
402.592931
 20
1492.592003
 30
0.0
  0
VERTEX
  8
L0D0
 10
400.433873
 20
1496.093002
 30
0.0
  0
VERTEX
  8
L0D0
 10
398.206944
 20
1499.551003
 30
0.0
  0
VERTEX
  8
L0D0
 10
395.913853
 20
1502.964996
 30
0.0
  0
VERTEX
  8
L0D0
 10
393.553868
 20
1506.334000
 30
0.0
  0
VERTEX
  8
L0D0
 10
391.129918
 20
1509.656998
 30
0.0
  0
VERTEX
  8
L0D0
 10
388.641881
 20
1512.932999
 30
0.0
  0
VERTEX
  8
L0D0
 10
386.090855
 20
1516.158997
 30
0.0
  0
VERTEX
  8
L0D0
 10
383.477940
 20
1519.334999
 30
0.0
  0
VERTEX
  8
L0D0
 10
380.803868
 20
1522.459999
 30
0.0
  0
VERTEX
  8
L0D0
 10
378.068883
 20
1525.533001
 30
0.0
  0
VERTEX
  8
L0D0
 10
375.275914
 20
1528.551998
 30
0.0
  0
VERTEX
  8
L0D0
 10
372.423863
 20
1531.515999
 30
0.0
  0
VERTEX
  8
L0D0
 10
369.515904
 20
1534.424000
 30
0.0
  0
VERTEX
  8
L0D0
 10
366.551915
 20
1537.276001
 30
0.0
  0
VERTEX
  8
L0D0
 10
363.532872
 20
1540.069000
 30
0.0
  0
VERTEX
  8
L0D0
 10
360.459874
 20
1542.804001
 30
0.0
  0
VERTEX
  8
L0D0
 10
357.334874
 20
1545.478001
 30
0.0
  0
VERTEX
  8
L0D0
 10
354.158971
 20
1548.091000
 30
0.0
  0
VERTEX
  8
L0D0
 10
350.932896
 20
1550.641998
 30
0.0
  0
VERTEX
  8
L0D0
 10
347.656895
 20
1553.129999
 30
0.0
  0
VERTEX
  8
L0D0
 10
344.333897
 20
1555.554001
 30
0.0
  0
VERTEX
  8
L0D0
 10
340.964879
 20
1557.914000
 30
0.0
  0
VERTEX
  8
L0D0
 10
337.550938
 20
1560.207001
 30
0.0
  0
VERTEX
  8
L0D0
 10
334.092931
 20
1562.434000
 30
0.0
  0
VERTEX
  8
L0D0
 10
330.591954
 20
1564.593000
 30
0.0
  0
VERTEX
  8
L0D0
 10
327.049962
 20
1566.684000
 30
0.0
  0
VERTEX
  8
L0D0
 10
323.467931
 20
1568.706000
 30
0.0
  0
VERTEX
  8
L0D0
 10
319.847935
 20
1570.658000
 30
0.0
  0
VERTEX
  8
L0D0
 10
316.189854
 20
1572.539000
 30
0.0
  0
VERTEX
  8
L0D0
 10
312.496861
 20
1574.350000
 30
0.0
  0
VERTEX
  8
L0D0
 10
308.768956
 20
1576.088000
 30
0.0
  0
VERTEX
  8
L0D0
 10
305.008946
 20
1577.754000
 30
0.0
  0
VERTEX
  8
L0D0
 10
301.215855
 20
1579.346000
 30
0.0
  0
VERTEX
  8
L0D0
 10
297.393956
 20
1580.865000
 30
0.0
  0
VERTEX
  8
L0D0
 10
293.541905
 20
1582.309000
 30
0.0
  0
VERTEX
  8
L0D0
 10
289.663853
 20
1583.678000
 30
0.0
  0
VERTEX
  8
L0D0
 10
285.759923
 20
1584.972000
 30
0.0
  0
VERTEX
  8
L0D0
 10
281.830968
 20
1586.190000
 30
0.0
  0
VERTEX
  8
L0D0
 10
277.878941
 20
1587.331000
 30
0.0
  0
VERTEX
  8
L0D0
 10
273.905919
 20
1588.396000
 30
0.0
  0
VERTEX
  8
L0D0
 10
269.913853
 20
1589.383000
 30
0.0
  0
VERTEX
  8
L0D0
 10
265.901891
 20
1590.293000
 30
0.0
  0
VERTEX
  8
L0D0
 10
261.873936
 20
1591.124000
 30
0.0
  0
VERTEX
  8
L0D0
 10
257.830968
 20
1591.878000
 30
0.0
  0
VERTEX
  8
L0D0
 10
253.772862
 20
1592.553000
 30
0.0
  0
VERTEX
  8
L0D0
 10
249.703892
 20
1593.149000
 30
0.0
  0
VERTEX
  8
L0D0
 10
245.622960
 20
1593.666000
 30
0.0
  0
VERTEX
  8
L0D0
 10
241.533971
 20
1594.104000
 30
0.0
  0
VERTEX
  8
L0D0
 10
237.435948
 20
1594.462000
 30
0.0
  0
VERTEX
  8
L0D0
 10
233.332921
 20
1594.741000
 30
0.0
  0
VERTEX
  8
L0D0
 10
229.223912
 20
1594.940000
 30
0.0
  0
VERTEX
  8
L0D0
 10
225.112950
 20
1595.060000
 30
0.0
  0
VERTEX
  8
L0D0
 10
220.999913
 20
1595.100000
 30
0.0
  0
VERTEX
  8
L0D0
 10
110.999913
 20
1595.100000
 30
0.0
  0
VERTEX
  8
L0D0
 10
86.359898
 20
1612.850000
 30
0.0
  0
VERTEX
  8
L0D0
 10
-0.240077
 20
1612.850000
 30
0.0
  0
VERTEX
  8
L0D0
 10
-0.240077
 20
1597.850000
 30
0.0
  0
VERTEX
  8
L0D0
 10
19.367955
 20
1597.850000
 30
0.0
  0
VERTEX
  8
L0D0
 10
19.367955
 20
1591.250000
 30
0.0
  0
VERTEX
  8
L0D0
 10
62.767857
 20
1591.250000
 30
0.0
  0
VERTEX
  8
L0D0
 10
62.767857
 20
1587.950000
 30
0.0
  0
VERTEX
  8
L0D0
 10
19.367955
 20
1587.950000
 30
0.0
  0
VERTEX
  8
L0D0
 10
19.367955
 20
1578.050000
 30
0.0
  0
VERTEX
  8
L0D0
 10
62.767857
 20
1578.050000
 30
0.0
  0
VERTEX
  8
L0D0
 10
62.767857
 20
1574.750000
 30
0.0
  0
VERTEX
  8
L0D0
 10
19.367955
 20
1574.750000
 30
0.0
  0
VERTEX
  8
L0D0
 10
19.367955
 20
1568.150000
 30
0.0
  0
VERTEX
  8
L0D0
 10
-0.240077
 20
1568.150000
 30
0.0
  0
VERTEX
  8
L0D0
 10
-0.240077
 20
1553.150000
 30
0.0
  0
VERTEX
  8
L0D0
 10
-0.240077
 20
1553.150000
 30
0.0
  0
VERTEX
  8
L0D0
 10
-0.240077
 20
1553.150000
 30
0.0
  0
VERTEX
  8
L0D0
 10
86.359898
 20
1553.150000
 30
0.0
  0
VERTEX
  8
L0D0
 10
110.999913
 20
1570.900000
 30
0.0
  0
VERTEX
  8
L0D0
 10
220.999913
 20
1570.900000
 30
0.0
  0
VERTEX
  8
L0D0
 10
224.882970
 20
1570.860000
 30
0.0
  0
VERTEX
  8
L0D0
 10
228.764928
 20
1570.739000
 30
0.0
  0
VERTEX
  8
L0D0
 10
232.642857
 20
1570.539000
 30
0.0
  0
VERTEX
  8
L0D0
 10
236.516881
 20
1570.258000
 30
0.0
  0
VERTEX
  8
L0D0
 10
240.382970
 20
1569.898000
 30
0.0
  0
VERTEX
  8
L0D0
 10
244.241856
 20
1569.457000
 30
0.0
  0
VERTEX
  8
L0D0
 10
248.089879
 20
1568.937000
 30
0.0
  0
VERTEX
  8
L0D0
 10
251.926915
 20
1568.337000
 30
0.0
  0
VERTEX
  8
L0D0
 10
255.750890
 20
1567.659000
 30
0.0
  0
VERTEX
  8
L0D0
 10
259.559972
 20
1566.900999
 30
0.0
  0
VERTEX
  8
L0D0
 10
263.351964
 20
1566.065001
 30
0.0
  0
VERTEX
  8
L0D0
 10
267.126866
 20
1565.150000
 30
0.0
  0
VERTEX
  8
L0D0
 10
270.880894
 20
1564.158001
 30
0.0
  0
VERTEX
  8
L0D0
 10
274.614903
 20
1563.089001
 30
0.0
  0
VERTEX
  8
L0D0
 10
278.324864
 20
1561.941999
 30
0.0
  0
VERTEX
  8
L0D0
 10
282.010899
 20
1560.719000
 30
0.0
  0
VERTEX
  8
L0D0
 10
285.670934
 20
1559.420000
 30
0.0
  0
VERTEX
  8
L0D0
 10
289.302892
 20
1558.046000
 30
0.0
  0
VERTEX
  8
L0D0
 10
292.905919
 20
1556.597000
 30
0.0
  0
VERTEX
  8
L0D0
 10
296.478917
 20
1555.073999
 30
0.0
  0
VERTEX
  8
L0D0
 10
300.018956
 20
1553.476999
 30
0.0
  0
VERTEX
  8
L0D0
 10
303.524937
 20
1551.808001
 30
0.0
  0
VERTEX
  8
L0D0
 10
306.995885
 20
1550.066002
 30
0.0
  0
VERTEX
  8
L0D0
 10
310.430943
 20
1548.252998
 30
0.0
  0
VERTEX
  8
L0D0
 10
313.826939
 20
1546.369999
 30
0.0
  0
VERTEX
  8
L0D0
 10
317.182896
 20
1544.416000
 30
0.0
  0
VERTEX
  8
L0D0
 10
320.498936
 20
1542.394001
 30
0.0
  0
VERTEX
  8
L0D0
 10
323.771886
 20
1540.304001
 30
0.0
  0
VERTEX
  8
L0D0
 10
327.000890
 20
1538.146000
 30
0.0
  0
VERTEX
  8
L0D0
 10
330.183873
 20
1535.922001
 30
0.0
  0
VERTEX
  8
L0D0
 10
333.320958
 20
1533.632999
 30
0.0
  0
VERTEX
  8
L0D0
 10
336.410924
 20
1531.279999
 30
0.0
  0
VERTEX
  8
L0D0
 10
339.449864
 20
1528.862999
 30
0.0
  0
VERTEX
  8
L0D0
 10
342.439854
 20
1526.382999
 30
0.0
  0
VERTEX
  8
L0D0
 10
345.376866
 20
1523.842999
 30
0.0
  0
VERTEX
  8
L0D0
 10
348.260899
 20
1521.243000
 30
0.0
  0
VERTEX
  8
L0D0
 10
351.090855
 20
1518.583000
 30
0.0
  0
VERTEX
  8
L0D0
 10
353.864903
 20
1515.864998
 30
0.0
  0
VERTEX
  8
L0D0
 10
356.582921
 20
1513.091003
 30
0.0
  0
VERTEX
  8
L0D0
 10
359.242955
 20
1510.261002
 30
0.0
  0
VERTEX
  8
L0D0
 10
361.842931
 20
1507.376999
 30
0.0
  0
VERTEX
  8
L0D0
 10
364.382970
 20
1504.440002
 30
0.0
  0
VERTEX
  8
L0D0
 10
366.862950
 20
1501.449997
 30
0.0
  0
VERTEX
  8
L0D0
 10
369.279942
 20
1498.411003
 30
0.0
  0
VERTEX
  8
L0D0
 10
371.632970
 20
1495.320999
 30
0.0
  0
VERTEX
  8
L0D0
 10
373.921910
 20
1492.183998
 30
0.0
  0
VERTEX
  8
L0D0
 10
376.145909
 20
1489.000999
 30
0.0
  0
VERTEX
  8
L0D0
 10
378.303868
 20
1485.772003
 30
0.0
  0
VERTEX
  8
L0D0
 10
380.393956
 20
1482.499001
 30
0.0
  0
VERTEX
  8
L0D0
 10
382.415929
 20
1479.182999
 30
0.0
  0
VERTEX
  8
L0D0
 10
384.369908
 20
1475.827003
 30
0.0
  0
VERTEX
  8
L0D0
 10
386.252965
 20
1472.431000
 30
0.0
  0
VERTEX
  8
L0D0
 10
388.065953
 20
1468.996002
 30
0.0
  0
VERTEX
  8
L0D0
 10
389.807896
 20
1465.525002
 30
0.0
  0
VERTEX
  8
L0D0
 10
391.476964
 20
1462.018997
 30
0.0
  0
VERTEX
  8
L0D0
 10
393.073888
 20
1458.478996
 30
0.0
  0
VERTEX
  8
L0D0
 10
394.596959
 20
1454.906006
 30
0.0
  0
VERTEX
  8
L0D0
 10
396.045934
 20
1451.302994
 30
0.0
  0
VERTEX
  8
L0D0
 10
397.419957
 20
1447.671005
 30
0.0
  0
VERTEX
  8
L0D0
 10
398.718907
 20
1444.011002
 30
0.0
  0
VERTEX
  8
L0D0
 10
399.941930
 20
1440.324997
 30
0.0
  0
VERTEX
  8
L0D0
 10
401.088902
 20
1436.615005
 30
0.0
  0
VERTEX
  8
L0D0
 10
402.157872
 20
1432.880997
 30
0.0
  0
VERTEX
  8
L0D0
 10
403.149937
 20
1429.126999
 30
0.0
  0
VERTEX
  8
L0D0
 10
404.064854
 20
1425.352005
 30
0.0
  0
VERTEX
  8
L0D0
 10
404.900914
 20
1421.559998
 30
0.0
  0
VERTEX
  8
L0D0
 10
405.658971
 20
1417.751007
 30
0.0
  0
VERTEX
  8
L0D0
 10
406.336949
 20
1413.927002
 30
0.0
  0
VERTEX
  8
L0D0
 10
406.936925
 20
1410.089996
 30
0.0
  0
VERTEX
  8
L0D0
 10
407.456944
 20
1406.242004
 30
0.0
  0
VERTEX
  8
L0D0
 10
407.897862
 20
1402.382996
 30
0.0
  0
VERTEX
  8
L0D0
 10
408.257970
 20
1398.516998
 30
0.0
  0
VERTEX
  8
L0D0
 10
408.538853
 20
1394.643005
 30
0.0
  0
VERTEX
  8
L0D0
 10
408.738927
 20
1390.764999
 30
0.0
  0
VERTEX
  8
L0D0
 10
408.859898
 20
1386.882996
 30
0.0
  0
VERTEX
  8
L0D0
 10
408.899937
 20
1383.000000
 30
0.0
  0
VERTEX
  8
L0D0
 10
408.899937
 20
283.000000
 30
0.0
  0
VERTEX
  8
L0D0
 10
408.939854
 20
278.886963
 30
0.0
  0
VERTEX
  8
L0D0
 10
409.059972
 20
274.776001
 30
0.0
  0
VERTEX
  8
L0D0
 10
409.258946
 20
270.666992
 30
0.0
  0
VERTEX
  8
L0D0
 10
409.537877
 20
266.563965
 30
0.0
  0
VERTEX
  8
L0D0
 10
409.895909
 20
262.465942
 30
0.0
  0
VERTEX
  8
L0D0
 10
410.333897
 20
258.376953
 30
0.0
  0
VERTEX
  8
L0D0
 10
410.850865
 20
254.296021
 30
0.0
  0
VERTEX
  8
L0D0
 10
411.446934
 20
250.227051
 30
0.0
  0
VERTEX
  8
L0D0
 10
412.121861
 20
246.168945
 30
0.0
  0
VERTEX
  8
L0D0
 10
412.875890
 20
242.125977
 30
0.0
  0
VERTEX
  8
L0D0
 10
413.706944
 20
238.098022
 30
0.0
  0
VERTEX
  8
L0D0
 10
414.616856
 20
234.086060
 30
0.0
  0
VERTEX
  8
L0D0
 10
415.603917
 20
230.093994
 30
0.0
  0
VERTEX
  8
L0D0
 10
416.668858
 20
226.120972
 30
0.0
  0
VERTEX
  8
L0D0
 10
417.809972
 20
222.168945
 30
0.0
  0
VERTEX
  8
L0D0
 10
419.027867
 20
218.239990
 30
0.0
  0
VERTEX
  8
L0D0
 10
420.321934
 20
214.336060
 30
0.0
  0
VERTEX
  8
L0D0
 10
421.690953
 20
210.458008
 30
0.0
  0
VERTEX
  8
L0D0
 10
423.134923
 20
206.605957
 30
0.0
  0
VERTEX
  8
L0D0
 10
424.653966
 20
202.784058
 30
0.0
  0
VERTEX
  8
L0D0
 10
426.245885
 20
198.990967
 30
0.0
  0
VERTEX
  8
L0D0
 10
427.911900
 20
195.230957
 30
0.0
  0
VERTEX
  8
L0D0
 10
429.649937
 20
191.503052
 30
0.0
  0
VERTEX
  8
L0D0
 10
431.460973
 20
187.810059
 30
0.0
  0
VERTEX
  8
L0D0
 10
433.341954
 20
184.151978
 30
0.0
  0
VERTEX
  8
L0D0
 10
435.293858
 20
180.531982
 30
0.0
  0
VERTEX
  8
L0D0
 10
437.315953
 20
176.949951
 30
0.0
  0
VERTEX
  8
L0D0
 10
439.406895
 20
173.407959
 30
0.0
  0
VERTEX
  8
L0D0
 10
441.565953
 20
169.906982
 30
0.0
  0
VERTEX
  8
L0D0
 10
443.792882
 20
166.448975
 30
0.0
  0
VERTEX
  8
L0D0
 10
446.085973
 20
163.035034
 30
0.0
  0
VERTEX
  8
L0D0
 10
448.445958
 20
159.666016
 30
0.0
  0
VERTEX
  8
L0D0
 10
450.869908
 20
156.343018
 30
0.0
  0
VERTEX
  8
L0D0
 10
453.357945
 20
153.067017
 30
0.0
  0
VERTEX
  8
L0D0
 10
455.908971
 20
149.840942
 30
0.0
  0
VERTEX
  8
L0D0
 10
458.521886
 20
146.665039
 30
0.0
  0
VERTEX
  8
L0D0
 10
461.195958
 20
143.540039
 30
0.0
  0
VERTEX
  8
L0D0
 10
463.930943
 20
140.467041
 30
0.0
  0
VERTEX
  8
L0D0
 10
466.723912
 20
137.447998
 30
0.0
  0
VERTEX
  8
L0D0
 10
469.575963
 20
134.484009
 30
0.0
  0
VERTEX
  8
L0D0
 10
472.483922
 20
131.576050
 30
0.0
  0
VERTEX
  8
L0D0
 10
475.447911
 20
128.723999
 30
0.0
  0
VERTEX
  8
L0D0
 10
478.466954
 20
125.931030
 30
0.0
  0
VERTEX
  8
L0D0
 10
481.539952
 20
123.196045
 30
0.0
  0
VERTEX
  8
L0D0
 10
484.664952
 20
120.521973
 30
0.0
  0
VERTEX
  8
L0D0
 10
487.840855
 20
117.909058
 30
0.0
  0
VERTEX
  8
L0D0
 10
491.066930
 20
115.358032
 30
0.0
  0
VERTEX
  8
L0D0
 10
494.342931
 20
112.869995
 30
0.0
  0
VERTEX
  8
L0D0
 10
497.665929
 20
110.446045
 30
0.0
  0
VERTEX
  8
L0D0
 10
501.034947
 20
108.086060
 30
0.0
  0
VERTEX
  8
L0D0
 10
504.448888
 20
105.792969
 30
0.0
  0
VERTEX
  8
L0D0
 10
507.906895
 20
103.566040
 30
0.0
  0
VERTEX
  8
L0D0
 10
511.407872
 20
101.406982
 30
0.0
  0
VERTEX
  8
L0D0
 10
514.949864
 20
99.316040
 30
0.0
  0
VERTEX
  8
L0D0
 10
518.531895
 20
97.293945
 30
0.0
  0
VERTEX
  8
L0D0
 10
522.151891
 20
95.342041
 30
0.0
  0
VERTEX
  8
L0D0
 10
525.809972
 20
93.461060
 30
0.0
  0
VERTEX
  8
L0D0
 10
529.502965
 20
91.650024
 30
0.0
  0
VERTEX
  8
L0D0
 10
533.230870
 20
89.911987
 30
0.0
  0
VERTEX
  8
L0D0
 10
536.990880
 20
88.245972
 30
0.0
  0
VERTEX
  8
L0D0
 10
540.783971
 20
86.654053
 30
0.0
  0
VERTEX
  8
L0D0
 10
544.605870
 20
85.135010
 30
0.0
  0
VERTEX
  8
L0D0
 10
548.457921
 20
83.691040
 30
0.0
  0
VERTEX
  8
L0D0
 10
552.335973
 20
82.322021
 30
0.0
  0
VERTEX
  8
L0D0
 10
556.239903
 20
81.027954
 30
0.0
  0
VERTEX
  8
L0D0
 10
560.168858
 20
79.810059
 30
0.0
  0
VERTEX
  8
L0D0
 10
564.120885
 20
78.668945
 30
0.0
  0
VERTEX
  8
L0D0
 10
568.093907
 20
77.604004
 30
0.0
  0
VERTEX
  8
L0D0
 10
572.085973
 20
76.616943
 30
0.0
  0
VERTEX
  8
L0D0
 10
576.097935
 20
75.707031
 30
0.0
  0
VERTEX
  8
L0D0
 10
580.125890
 20
74.875977
 30
0.0
  0
VERTEX
  8
L0D0
 10
584.168858
 20
74.121948
 30
0.0
  0
VERTEX
  8
L0D0
 10
588.226964
 20
73.447021
 30
0.0
  0
VERTEX
  8
L0D0
 10
592.295934
 20
72.850952
 30
0.0
  0
VERTEX
  8
L0D0
 10
596.376866
 20
72.333984
 30
0.0
  0
VERTEX
  8
L0D0
 10
600.465855
 20
71.895996
 30
0.0
  0
VERTEX
  8
L0D0
 10
604.563878
 20
71.537964
 30
0.0
  0
VERTEX
  8
L0D0
 10
608.666905
 20
71.259033
 30
0.0
  0
VERTEX
  8
L0D0
 10
612.775914
 20
71.060059
 30
0.0
  0
VERTEX
  8
L0D0
 10
616.886876
 20
70.939941
 30
0.0
  0
VERTEX
  8
L0D0
 10
620.999913
 20
70.900024
 30
0.0
  0
VERTEX
  8
L0D0
 10
720.999913
 20
70.900024
 30
0.0
  0
SEQEND
  0
ENDSEC
  0
EOF
